<svg xmlns="http://www.w3.org/2000/svg" viewBox="0 0 262.83 262.83"><defs><style>.cls-1{fill:#82621f;}</style></defs><g id="Layer_2" data-name="Layer 2"><g id="Layer_1-2" data-name="Layer 1"><path class="cls-1" d="M131.42,23.68c35.09,0,39.24.13,53.1.76,12.81.59,19.77,2.73,24.4,4.53A40.61,40.61,0,0,1,224,38.8a40.69,40.69,0,0,1,9.83,15.11c1.8,4.63,3.94,11.59,4.53,24.4.63,13.86.76,18,.76,53.11s-.13,39.24-.76,53.1c-.59,12.81-2.73,19.77-4.53,24.4a43.52,43.52,0,0,1-24.94,24.94c-4.63,1.8-11.59,3.94-24.4,4.53-13.86.63-18,.76-53.1.76s-39.25-.13-53.11-.76c-12.81-.59-19.77-2.73-24.4-4.53A40.69,40.69,0,0,1,38.8,224,40.61,40.61,0,0,1,29,208.92c-1.8-4.63-3.94-11.59-4.53-24.4-.63-13.86-.76-18-.76-53.1s.13-39.25.76-53.11C25,65.5,27.17,58.54,29,53.91A40.69,40.69,0,0,1,38.8,38.8,40.69,40.69,0,0,1,53.91,29c4.63-1.8,11.59-3.94,24.4-4.53,13.86-.63,18-.76,53.11-.76m0-23.68C95.73,0,91.25.15,77.23.79S53.69,3.65,45.33,6.9A64.33,64.33,0,0,0,22.06,22.06,64.33,64.33,0,0,0,6.9,45.33C3.65,53.69,1.43,63.25.79,77.23S0,95.73,0,131.42s.15,40.16.79,54.18,2.86,23.54,6.11,31.9a64.45,64.45,0,0,0,15.16,23.28,64.3,64.3,0,0,0,23.27,15.15c8.36,3.25,17.92,5.47,31.9,6.11s18.5.79,54.19.79,40.16-.15,54.18-.79,23.54-2.86,31.9-6.11a67.1,67.1,0,0,0,38.43-38.43c3.25-8.36,5.47-17.91,6.11-31.9s.79-18.49.79-54.18-.15-40.17-.79-54.19-2.86-23.54-6.11-31.9a64.3,64.3,0,0,0-15.15-23.27A64.45,64.45,0,0,0,217.5,6.9c-8.36-3.25-17.91-5.47-31.9-6.11S167.11,0,131.42,0Z"/><path class="cls-1" d="M131.42,63.93a67.49,67.49,0,1,0,67.48,67.49A67.49,67.49,0,0,0,131.42,63.93Zm0,111.29a43.81,43.81,0,1,1,43.8-43.8A43.8,43.8,0,0,1,131.42,175.22Z"/><circle class="cls-1" cx="201.57" cy="61.27" r="15.77"/></g></g></svg>