<svg xmlns="http://www.w3.org/2000/svg" xmlns:xlink="http://www.w3.org/1999/xlink" viewBox="0 0 809.01 569.01"><defs><style>.cls-1{fill-rule:evenodd;opacity:0.12;fill:url(#linear-gradient);}.cls-2{fill:url(#linear-gradient-2);}</style><linearGradient id="linear-gradient" x1="-540.07" y1="237.95" x2="2349.17" y2="202.28" gradientUnits="userSpaceOnUse"><stop offset="0.05" stop-color="#82621f"/><stop offset="0.16" stop-color="#886824"/><stop offset="0.3" stop-color="#987833"/><stop offset="0.46" stop-color="#b3934c"/><stop offset="0.56" stop-color="#c7a65e"/><stop offset="0.63" stop-color="#c2a261"/><stop offset="0.7" stop-color="#b4976a"/><stop offset="0.79" stop-color="#9d8578"/><stop offset="0.88" stop-color="#7d6c8c"/><stop offset="0.91" stop-color="#6d5f96"/></linearGradient><linearGradient id="linear-gradient-2" x1="-539.35" y1="296.12" x2="2349.89" y2="260.45" xlink:href="#linear-gradient"/></defs><g id="Layer_2" data-name="Layer 2"><g id="Layer_1-2" data-name="Layer 1"><g id="YouTube_icon" data-name="YouTube icon"><path id="The_Sharpness" data-name="The Sharpness" class="cls-1" d="M321,162.14l191.7,128,26.9-14Z"/><g id="Lozenge"><path class="cls-2" d="M800.93,122.76S793,67,768.77,42.45C738,10.24,703.52,10.08,687.71,8.19,574.51,0,404.68,0,404.68,0h-.35s-169.82,0-283,8.19C105.49,10.08,71,10.24,40.24,42.45,16,67,8.09,122.76,8.09,122.76S0,188.22,0,253.69v61.38C0,380.53,8.09,446,8.09,446s7.9,55.75,32.15,80.3c30.78,32.23,71.2,31.2,89.21,34.58,64.72,6.21,275.06,8.13,275.06,8.13s170-.25,283.2-8.44c15.81-1.88,50.3-2,81.06-34.27C793,501.75,800.93,446,800.93,446S809,380.53,809,315.07V253.69C809,188.22,800.93,122.76,800.93,122.76ZM321,389.44l0-227.3,218.6,114Z"/></g></g></g></g></svg>