<?xml version="1.0" encoding="UTF-8"?><svg id="Layer_2" xmlns="http://www.w3.org/2000/svg" viewBox="0 0 440 147.26"><defs><style>.cls-1{fill:#231f20;}</style></defs><g id="Layer_1-2"><path class="cls-1" d="M149.01,146.62l-9.26-23.59-4.35,8.86v14.73h-9.02v-57.33h9.02v26.97l12.48-26.97h9.1l-11.51,23.75,13.29,33.58h-9.74Z"/><path class="cls-1" d="M197.52,146.62l-2.33-11.35h-13.28l-2.26,11.35h-9.5l14.09-57.33h8.78l13.93,57.33h-9.42ZM188.58,103.14l-4.91,23.99h9.82l-4.91-23.99Z"/><path class="cls-1" d="M244.33,146.62l-13.53-34.06v34.06h-9.02v-57.33h8.05l13.45,34.06v-34.06h9.02v57.33h-7.97Z"/><path class="cls-1" d="M274.44,146.62v-57.33h24.08v8.13h-15.06v16.26h12.96v8.13h-12.96v16.67h15.06v8.13h-24.08Z"/><path class="cls-1" d="M344.67,142.35c-2.33,2.82-5.8,4.91-11.11,4.91s-8.78-2.09-11.11-4.91c-3.78-4.59-4.19-10.79-4.19-24.4s.4-19.81,4.19-24.4c2.33-2.82,5.8-4.91,11.11-4.91s8.78,2.09,11.11,4.91c3.87,4.51,4.19,10.79,4.19,24.4s-.32,19.89-4.19,24.4ZM337.9,98.95c-.81-1.29-2.17-2.17-4.35-2.17s-3.46.89-4.27,2.17c-1.69,2.74-2.01,8.53-2.01,19s.32,16.26,2.01,19c.81,1.29,2.09,2.17,4.27,2.17s3.54-.89,4.35-2.17c1.69-2.74,1.93-8.54,1.93-19s-.24-16.26-1.93-19Z"/><path class="cls-1" d="M386.24,146.62v-25.04h-11.19v25.04h-9.02v-57.33h9.02v24.16h11.19v-24.16h9.02v57.33h-9.02Z"/><path class="cls-1" d="M415.92,146.62v-57.33h24.08v8.13h-15.06v16.26h12.96v8.13h-12.96v16.67h15.06v8.13h-24.08Z"/><path class="cls-1" d="M171.44,56.34c-2.27,2.13-4.9,3.2-8.74,3.2-4.69,0-7.74-1.85-9.8-4.33-3.34-3.98-3.69-9.52-3.69-21.52s.36-17.55,3.69-21.52c2.06-2.49,5.11-4.33,9.8-4.33,3.84,0,6.61,1.14,8.88,3.27,2.56,2.34,3.91,6.18,4.05,10.66h-7.96c-.07-1.85-.36-3.69-1.21-4.9-.71-1.14-1.85-1.85-3.76-1.85s-3.05.78-3.76,1.92c-1.56,2.42-1.78,7.53-1.78,16.77s.21,14.35,1.78,16.76c.71,1.14,1.85,1.92,3.76,1.92s3.05-.71,3.76-1.85c.85-1.28,1.14-3.13,1.21-4.97h7.96c-.14,4.55-1.63,8.45-4.19,10.8Z"/><path class="cls-1" d="M210.87,58.96v-3.2c-.64.92-1.42,1.92-2.27,2.49-1.14.78-2.34,1.28-4.26,1.28-3.13,0-5.11-.92-7.03-3.13-1.49-1.78-2.27-4.62-2.27-8.38,0-3.41,1.21-6.39,3.48-8.38,1.85-1.63,4.26-2.56,8.6-2.56h3.34v-5.19c0-2.77-1.28-4.33-3.62-4.33-1.14,0-1.92.43-2.49,1.07-.78.85-1.14,1.92-1.14,3.48h-7.53c0-2.98.85-5.75,3.2-8.1,1.78-1.78,4.83-3.05,7.88-3.05s6.04.78,7.96,2.77c1.99,1.99,3.27,4.76,3.27,8.81v26.43h-7.1ZM210.45,42.41h-2.49c-1.63,0-2.84.14-3.91,1.14-.92.85-1.49,2.7-1.49,4.19,0,3.34,1.35,5.19,3.91,5.19,2.27,0,3.98-1.92,3.98-4.97v-5.54Z"/><path class="cls-1" d="M243.76,56.69c-2.34-1.78-3.76-4.62-3.76-9.09V8.38h7.53v38.79c0,3.34,1.63,5.04,5.11,5.04v6.75c-3.48,0-6.39-.36-8.88-2.27Z"/><path class="cls-1" d="M286.46,58.96h-7.96l-9.31-37.44h8.31l4.97,25.5,4.9-25.5h8.31l-9.23,37.44Z"/><path class="cls-1" d="M328.09,58.96v-3.2c-.64.92-1.42,1.92-2.27,2.49-1.14.78-2.34,1.28-4.26,1.28-3.13,0-5.11-.92-7.03-3.13-1.49-1.78-2.27-4.62-2.27-8.38,0-3.41,1.21-6.39,3.48-8.38,1.85-1.63,4.26-2.56,8.6-2.56h3.34v-5.19c0-2.77-1.28-4.33-3.62-4.33-1.14,0-1.92.43-2.49,1.07-.78.85-1.14,1.92-1.14,3.48h-7.53c0-2.98.85-5.75,3.2-8.1,1.78-1.78,4.83-3.05,7.88-3.05s6.04.78,7.96,2.77c1.99,1.99,3.27,4.76,3.27,8.81v26.43h-7.1ZM327.66,42.41h-2.49c-1.63,0-2.84.14-3.91,1.14-.92.85-1.49,2.7-1.49,4.19,0,3.34,1.35,5.19,3.91,5.19,2.27,0,3.98-1.92,3.98-4.97v-5.54Z"/><path class="cls-1" d="M371.21,28.28c-3.55,0-6.25,2.42-6.25,6.46v24.22h-7.53V21.53h7.25v3.98c.78-1.14,1.99-2.2,3.27-2.98,1.63-.99,3.62-1.56,5.83-1.56v7.32h-2.56Z"/><path class="cls-1" d="M406.66,63.72c-1.85,7.53-7.17,8.38-13.99,8.38v-6.68c3.27-.07,5.75-.36,6.68-3.91l.64-2.63-9.31-37.37h8.31l4.97,25.5,4.9-25.5h8.31l-10.51,42.2Z"/><polygon class="cls-1" points="60.11 38.33 60.11 0 53.74 0 53.74 38.33 53.74 44.71 60.11 44.71 98.54 44.71 98.54 38.33 60.11 38.33"/><polygon class="cls-1" points="38.43 0 38.43 38.33 0 38.33 0 44.71 38.43 44.71 44.81 44.71 44.81 38.33 44.81 0 38.43 0"/><polygon class="cls-1" points="60.11 53.64 53.74 53.64 53.74 60.02 53.74 146.62 60.11 146.62 60.11 60.02 98.54 60.02 98.54 53.64 60.11 53.64"/><polygon class="cls-1" points="38.43 53.64 0 53.64 0 60.02 38.43 60.02 38.43 146.62 44.81 146.62 44.81 60.02 44.81 53.64 38.43 53.64"/></g></svg>