<svg xmlns="http://www.w3.org/2000/svg" viewBox="0 0 251.21 285.44"><defs><style>.cls-1{opacity:0.58;}.cls-2{fill:#8f796d;}.cls-3{fill:#8e786c;}.cls-4{fill:#8d776b;}.cls-5{fill:#8c776b;}.cls-6{fill:#8b766a;}.cls-7{fill:#8b756a;}.cls-8{fill:#8a7569;}.cls-9{fill:#897469;}.cls-10{fill:#897468;}.cls-11{fill:#887368;}.cls-12{fill:#877267;}.cls-13{fill:#867266;}.cls-14{fill:#867166;}.cls-15{fill:#857165;}.cls-16{fill:#847065;}.cls-17{fill:#846f64;}.cls-18{fill:#836f64;}.cls-19{fill:#826e63;}.cls-20{fill:#816e63;}.cls-21{fill:#816d62;}.cls-22{fill:#806c62;}.cls-23{fill:#7f6c61;}.cls-24{fill:#7f6b61;}.cls-25{fill:#7e6b60;}.cls-26{fill:#7d6a5f;}.cls-27{fill:#7d695f;}.cls-28{fill:#7c695e;}.cls-29{fill:#7b685e;}.cls-30{fill:#7a685d;}.cls-31{fill:#7a675d;}.cls-32{fill:#79665c;}.cls-33{fill:#78665c;}.cls-34{fill:#78655b;}.cls-35{fill:#77655b;}.cls-36{fill:#76645a;}.cls-37{fill:#756359;}.cls-38{fill:#746258;}.cls-39{fill:#736258;}.cls-40{fill:#736157;}.cls-41{fill:#726057;}.cls-42{fill:#716056;}.cls-43{fill:#705f56;}.cls-44{fill:#705f55;}.cls-45{fill:#6f5e55;}.cls-46{fill:#6e5d54;}.cls-47{fill:#6d5c53;}.cls-48{fill:#6c5c52;}.cls-49{fill:#6b5b52;}.cls-50{fill:#6b5a51;}.cls-51{fill:#6a5a51;}.cls-52{fill:#695950;}.cls-53{fill:#695850;}.cls-54{fill:#68584f;}.cls-55{fill:#67574f;}.cls-56{fill:#66574e;}.cls-57{fill:#66564e;}.cls-58{fill:#65554d;}.cls-59{fill:#64554c;}.cls-60{fill:#64544c;}.cls-61{fill:#63544b;}.cls-62{fill:#62534b;}.cls-63{fill:#61524a;}.cls-64{fill:#605149;}.cls-65{fill:#5f5149;}.cls-66{fill:#5f5048;}.cls-67{fill:#5e4f48;}.cls-68{fill:#5d4f47;}.cls-69{fill:#5c4e46;}.cls-70{fill:#5b4d45;}.cls-71{fill:#5a4c45;}.cls-72{fill:#5a4c44;}.cls-73{fill:#594b44;}.cls-74{fill:#584b43;}.cls-75{fill:#584a43;}.cls-76{fill:#574942;}.cls-77{fill:#564942;}.cls-78{fill:#554841;}.cls-79{fill:#544740;}.cls-80{fill:#53463f;}.cls-81{fill:#52453e;}.cls-82{fill:#51453e;}.cls-83{fill:#50443d;}.cls-84{fill:#50433d;}.cls-85{fill:#4f433c;}.cls-86{fill:#4e423c;}.cls-87{fill:#4e423b;}.cls-88{fill:#4d413b;}.cls-89{fill:#4c403a;}.cls-90{fill:#4b4039;}.cls-91{fill:#4b3f39;}.cls-92{fill:#4a3f38;}.cls-93{fill:#493e38;}.cls-94{fill:#493d37;}.cls-95{fill:#483d37;}.cls-96{fill:#473c36;}.cls-97{fill:#463c36;}.cls-98{fill:#463b35;}.cls-99{fill:#453a35;}.cls-100{fill:#443a34;}.cls-101{fill:#443934;}.cls-102{fill:#433933;}.cls-103{fill:#423832;}.cls-104{fill:#413732;}.cls-105{fill:#413731;}.cls-106{fill:#403631;}.cls-107{fill:#3f3630;}.cls-108{fill:#3f3530;}.cls-109{fill:#3e342f;}.cls-110{fill:#3d342f;}.cls-111{fill:#3c332e;}.cls-112{fill:#3b322d;}.cls-113{fill:#3a312c;}.cls-114{fill:#39302b;}.cls-115{fill:#38302b;}.cls-116{fill:#372f2a;}.cls-117{fill:#372e2a;}.cls-118{fill:#362e29;}.cls-119{fill:#352d29;}.cls-120{fill:#352d28;}.cls-121{fill:#342c28;}.cls-122{fill:#332b27;}.cls-123{fill:#322a26;}.cls-124{fill:#312a25;}.cls-125{fill:#302925;}.cls-126{fill:#302824;}.cls-127{fill:#2f2824;}.cls-128{fill:#2e2723;}.cls-129{fill:#2d2622;}.cls-130{fill:#2c2522;}.cls-131{fill:#2b2521;}.cls-132{fill:#2b2421;}.cls-133{fill:#2a2420;}.cls-134{fill:#29231f;}.cls-135{fill:#29221f;}.cls-136{fill:#28221e;}.cls-137{fill:#27211e;}.cls-138{fill:#26211d;}.cls-139{fill:#26201d;}.cls-140{fill:#251f1c;}.cls-141{fill:#241f1c;}.cls-142{fill:#241e1b;}.cls-143{fill:#231d1b;}.cls-144{fill:#221d1a;}.cls-145{fill:#211c19;}.cls-146{fill:#201b18;}.cls-147{fill:#1f1a18;}.cls-148{fill:#1f1a17;}.cls-149{fill:#1e1917;}.cls-150{fill:#1d1916;}.cls-151{fill:#1c1816;}.cls-152{fill:#1c1715;}.cls-153{fill:#1b1715;}.cls-154{fill:#1a1614;}.cls-155{fill:#191513;}.cls-156{fill:#181412;}.cls-157{fill:#171412;}.cls-158{fill:#171311;}.cls-159{fill:#161311;}.cls-160{fill:#151210;}.cls-161{fill:#151110;}.cls-162{fill:#14110f;}.cls-163{fill:#13100f;}.cls-164{fill:#12100e;}.cls-165{fill:#120f0e;}.cls-166{fill:#110e0d;}.cls-167{fill:#100e0c;}.cls-168{fill:#100d0c;}.cls-169{fill:#0f0d0b;}.cls-170{fill:#0e0c0b;}.cls-171{fill:#0e0b0a;}.cls-172{fill:#0d0b0a;}.cls-173{fill:#0c0a09;}.cls-174{fill:#0b0a09;}.cls-175{fill:#0b0908;}.cls-176{fill:#0a0808;}.cls-177{fill:#090807;}.cls-178{fill:#090707;}.cls-179{fill:#080706;}.cls-180{fill:#070605;}.cls-181{fill:#060505;}.cls-182{fill:#060504;}.cls-183{fill:#050404;}.cls-184{fill:#040403;}.cls-185{fill:#040303;}.cls-186{fill:#030202;}.cls-187{fill:#020202;}.cls-188{fill:#010101;}.cls-189{fill:#e5e5e5;}</style></defs><g id="Layer_2" data-name="Layer 2"><g id="Layer_1-2" data-name="Layer 1"><g class="cls-1"><path class="cls-2" d="M199,230,179.7,177.9,160.75,230Zm52.18,55.46H220.39L208.13,253.6H152l-11.57,31.84H110.39L165,145.15h30Z"/><path class="cls-3" d="M198.5,229.26l-19.33-52.08-18.95,52.08Zm52.19,55.46H219.87L207.6,252.88H151.49l-11.57,31.84H109.86l54.65-140.29h30Z"/><path class="cls-3" d="M198,228.54l-19.33-52.08-18.95,52.08ZM250.16,284H219.34l-12.27-31.83H151L139.4,284H109.33L164,143.71h30Z"/><path class="cls-4" d="M197.45,227.82l-19.33-52.08-19,52.08Zm52.18,55.45H218.81l-12.26-31.84H150.44l-11.57,31.84H108.81L163.46,143h30Z"/><path class="cls-5" d="M196.92,227.09,177.59,175l-19,52.08Zm52.19,55.46H218.29L206,250.71h-56.1l-11.58,31.84H108.28l54.66-140.29h30Z"/><path class="cls-6" d="M196.39,226.37l-19.32-52.08-19,52.08Zm52.19,55.46H217.76L205.49,250h-56.1l-11.57,31.84H107.75l54.66-140.29h30Z"/><path class="cls-7" d="M195.87,225.65l-19.33-52.08-18.95,52.08Zm52.18,55.46H217.24L205,249.27H148.86l-11.57,31.84H107.23l54.65-140.29h30Z"/><path class="cls-8" d="M195.34,224.93,176,172.85l-18.95,52.08Zm52.19,55.46H216.71l-12.27-31.84h-56.1l-11.57,31.84H106.7L161.36,140.1h30Z"/><path class="cls-9" d="M194.81,224.21l-19.32-52.09-19,52.09ZM247,279.66H216.18l-12.27-31.84h-56.1l-11.57,31.84H106.17l54.66-140.29h30Z"/><path class="cls-10" d="M194.29,223.48,175,171.4l-19,52.08Zm52.18,55.46H215.66L203.39,247.1H147.28l-11.57,31.84H105.65L160.3,138.65h30Z"/><path class="cls-11" d="M193.76,222.76l-19.33-52.08-19,52.08ZM246,278.22H215.13l-12.27-31.84h-56.1l-11.57,31.84H105.12l54.66-140.29h30Z"/><path class="cls-12" d="M193.24,222,173.91,170,155,222Zm52.18,55.46H214.6l-12.27-31.84h-56.1L134.66,277.5H104.6l54.65-140.29h30Z"/><path class="cls-13" d="M192.71,221.32l-19.33-52.08-18.95,52.08Zm52.18,55.46H214.08l-12.27-31.84H145.7l-11.57,31.84H104.07l54.65-140.29h30Z"/><path class="cls-14" d="M192.18,220.59l-19.33-52.08L153.9,220.59Zm52.19,55.46H213.55l-12.27-31.84h-56.1l-11.57,31.84H103.54L158.2,135.76h30Z"/><path class="cls-15" d="M191.66,219.87l-19.33-52.08-19,52.08Zm52.18,55.46H213l-12.26-31.84H144.65l-11.57,31.84H103L157.67,135h30Z"/><path class="cls-16" d="M191.13,219.15,171.8,167.07l-19,52.08Zm52.18,55.46H212.5l-12.27-31.84h-56.1l-11.58,31.84H102.49l54.66-140.29h30Z"/><path class="cls-17" d="M190.6,218.43l-19.33-52.08-19,52.08Zm52.19,55.46H212L199.7,242.05H143.6L132,273.89H102L156.62,133.6h30Z"/><path class="cls-18" d="M190.08,217.71l-19.33-52.08L151.8,217.71Zm52.18,55.46H211.44l-12.26-31.84H143.07L131.5,273.17H101.44l54.65-140.29h30Z"/><path class="cls-19" d="M189.55,217,170.22,164.9,151.27,217Zm52.19,55.47H210.92L198.65,240.6h-56.1L131,272.45H100.91l54.66-140.3h30Z"/><path class="cls-20" d="M189,216.26l-19.34-52.08-18.95,52.08Zm52.18,55.46H210.39l-12.27-31.84H142l-11.57,31.84H100.38L155,131.43h30Z"/><path class="cls-21" d="M188.5,215.54l-19.33-52.08-18.95,52.08ZM240.68,271H209.86L197.6,239.16H141.49L129.92,271H99.86l54.65-140.29h30Z"/><path class="cls-22" d="M188,214.82l-19.33-52.08-18.95,52.08Zm52.19,55.46H209.34l-12.27-31.84H141l-11.58,31.84H99.33L154,130h30Z"/><path class="cls-23" d="M187.45,214.1,168.12,162l-19,52.09Zm52.18,55.46H208.81l-12.27-31.84h-56.1l-11.57,31.84H98.81l54.65-140.3h30Z"/><path class="cls-24" d="M186.92,213.37l-19.33-52.08-19,52.08Zm52.18,55.47H208.28L196,237h-56.1l-11.58,31.85H98.28l54.65-140.3h30Z"/><path class="cls-25" d="M186.39,212.65l-19.33-52.08-18.95,52.08Zm52.19,55.46H207.76l-12.27-31.84h-56.1l-11.57,31.84H97.75l54.66-140.29h30Z"/><path class="cls-26" d="M185.87,211.93l-19.33-52.08-19,52.08Zm52.18,55.46H207.23L195,235.55h-56.1l-11.57,31.84H97.23L151.88,127.1h30Z"/><path class="cls-27" d="M185.34,211.21,166,159.13l-18.95,52.08Zm52.18,55.46H206.71l-12.27-31.84h-56.1l-11.58,31.84H96.7l54.66-140.29h30Z"/><path class="cls-28" d="M184.81,210.48,165.48,158.4l-18.95,52.08ZM237,266H206.18l-12.27-31.84h-56.1L126.24,266H96.17l54.66-140.3h30Z"/><path class="cls-29" d="M184.29,209.76,165,157.68l-19,52.08Zm52.18,55.47H205.65l-12.27-31.85h-56.1l-11.57,31.85H95.65l54.65-140.3h30Z"/><path class="cls-30" d="M183.76,209,164.43,157l-19,52.08Zm52.18,55.46H205.13l-12.27-31.84h-56.1L125.18,264.5H95.12l54.66-140.29h30Z"/><path class="cls-31" d="M183.24,208.32,163.9,156.24l-19,52.08Zm52.18,55.46H204.6l-12.27-31.84h-56.1l-11.57,31.84H94.59l54.66-140.29h30Z"/><path class="cls-32" d="M182.71,207.6l-19.33-52.08-19,52.08Zm52.18,55.46H204.07l-12.26-31.84H135.7l-11.57,31.84H94.07l54.65-140.29h30Z"/><path class="cls-33" d="M182.18,206.87l-19.33-52.08L143.9,206.87Zm52.18,55.47H203.55L191.28,230.5h-56.1L123.6,262.34H93.54L148.2,122h30Z"/><path class="cls-34" d="M181.66,206.15l-19.34-52.08-18.95,52.08Zm52.18,55.47H203l-12.27-31.84h-56.1l-11.57,31.84H93l54.65-140.3h30Z"/><path class="cls-35" d="M181.13,205.43,161.8,153.35l-19,52.08Zm52.18,55.47H202.49l-12.26-31.85h-56.1L122.55,260.9H92.49l54.66-140.3h30Z"/><path class="cls-36" d="M180.6,204.71l-19.33-52.08-19,52.08Zm52.18,55.46H202L189.7,228.33H133.6L122,260.17H92l54.66-140.29h30Z"/><path class="cls-37" d="M180.08,204,160.74,151.9l-19,52.09Zm52.18,55.46H201.44l-12.27-31.84h-56.1L121.5,259.45H91.44l54.65-140.3h30Z"/><path class="cls-37" d="M179.55,203.26l-19.33-52.08-18.95,52.08Zm52.18,55.47H200.91l-12.26-31.84h-56.1L121,258.73H90.91l54.66-140.3h30Z"/><path class="cls-38" d="M179,202.54l-19.33-52.08-18.95,52.08ZM231.21,258H200.39l-12.27-31.84H132L120.44,258H90.38L145,117.71h30Z"/><path class="cls-39" d="M178.5,201.82l-19.33-52.08-19,52.08Zm52.18,55.47H199.86l-12.27-31.85h-56.1l-11.57,31.85H89.86L144.51,117h30Z"/><path class="cls-40" d="M178,201.1,158.64,149,139.69,201.1Zm52.18,55.46H199.33l-12.26-31.84H131l-11.58,31.84H89.33L144,116.27h30Z"/><path class="cls-41" d="M177.45,200.37l-19.34-52.08-19,52.08Zm52.18,55.47H198.81L186.54,224h-56.1l-11.57,31.84H88.81l54.65-140.3h30Z"/><path class="cls-42" d="M176.92,199.65l-19.33-52.08-19,52.08Zm52.18,55.47H198.28L186,223.28h-56.1l-11.57,31.84H88.28l54.65-140.3h30Z"/><path class="cls-43" d="M176.39,198.93l-19.33-52.08-18.95,52.08Zm52.18,55.47H197.76l-12.27-31.84h-56.1L117.81,254.4H87.75l54.66-140.3h30Z"/><path class="cls-44" d="M175.87,198.21l-19.34-52.08-18.95,52.08Zm52.18,55.47H197.23L185,221.83h-56.1l-11.57,31.85H87.23l54.65-140.3h30Z"/><path class="cls-45" d="M175.34,197.49,156,145.41l-19,52.08ZM227.52,253H196.7l-12.27-31.85H128.34L116.76,253H86.7l54.66-140.3h30Z"/><path class="cls-46" d="M174.81,196.76l-19.33-52.08-18.95,52.08ZM227,252.23H196.18l-12.27-31.84h-56.1l-11.58,31.84H86.17l54.66-140.3h30Z"/><path class="cls-46" d="M174.29,196,155,144,136,196Zm52.18,55.47H195.65l-12.27-31.84h-56.1l-11.57,31.84H85.65l54.65-140.3h30Z"/><path class="cls-47" d="M173.76,195.32l-19.33-52.08-19,52.08Zm52.18,55.47H195.12L182.86,219h-56.1l-11.58,31.84H85.12l54.66-140.3h30Z"/><path class="cls-48" d="M173.23,194.6,153.9,142.52,135,194.6Zm52.18,55.47H194.6l-12.27-31.85h-56.1l-11.58,31.85H84.59l54.66-140.3h30Z"/><path class="cls-49" d="M172.71,193.88l-19.34-52.09-19,52.09Zm52.18,55.47H194.07L181.8,217.5H125.7l-11.57,31.85H84.07L138.72,109h30Z"/><path class="cls-50" d="M172.18,193.15l-19.33-52.08L133.9,193.15Zm52.18,55.47H193.54l-12.26-31.84h-56.1L113.6,248.62H83.54l54.66-140.3h30Z"/><path class="cls-51" d="M171.66,192.43l-19.34-52.08-18.95,52.08Zm52.17,55.47H193l-12.27-31.84h-56.1L113.07,247.9H83l54.65-140.3h30Z"/><path class="cls-52" d="M171.13,191.71l-19.34-52.08-18.95,52.08Zm52.18,55.47H192.49l-12.27-31.84h-56.1l-11.57,31.84H82.49l54.65-140.3h30Z"/><path class="cls-53" d="M170.6,191l-19.33-52.08-19,52.08Zm52.18,55.47H192L179.7,214.61H123.6L112,246.46H82l54.66-140.3h30Z"/><path class="cls-54" d="M170.08,190.26l-19.34-52.08-19,52.08Zm52.18,55.48H191.44l-12.27-31.85h-56.1l-11.58,31.85h-30l54.65-140.31h30Z"/><path class="cls-55" d="M169.55,189.54l-19.33-52.08-19,52.08ZM221.73,245H190.91l-12.27-31.84H122.55L111,245H80.91l54.66-140.3h30Z"/><path class="cls-56" d="M169,188.82l-19.33-52.08-18.95,52.08Zm52.18,55.47H190.38l-12.26-31.84H122l-11.58,31.84H80.38L135,104h30Z"/><path class="cls-57" d="M168.5,188.1,149.16,136,130.21,188.1Zm52.18,55.47H189.86l-12.27-31.84h-56.1l-11.57,31.84H79.86l54.65-140.3h30Z"/><path class="cls-58" d="M168,187.38,148.64,135.3l-19,52.08Zm52.18,55.47H189.33L177.06,211H121l-11.58,31.85H79.33L134,102.55h30Z"/><path class="cls-59" d="M167.45,186.65l-19.34-52.08-19,52.08Zm52.17,55.48H188.81l-12.27-31.85h-56.1l-11.58,31.85H78.8l54.66-140.31h30Z"/><path class="cls-60" d="M166.92,185.93l-19.34-52.08-19,52.08Zm52.18,55.48H188.28L176,209.56h-56.1l-11.57,31.85H78.28L132.93,101.1h30Z"/><path class="cls-61" d="M166.39,185.21l-19.33-52.08-19,52.08Zm52.18,55.47H187.75l-12.27-31.84H119.39l-11.58,31.84H77.75l54.66-140.3h30Z"/><path class="cls-62" d="M165.87,184.49l-19.34-52.08-19,52.08ZM218,240H187.23L175,208.12h-56.1L107.28,240h-30l54.65-140.3h30Z"/><path class="cls-63" d="M165.34,183.76,146,131.68l-19,52.08Zm52.18,55.48H186.7l-12.27-31.85H118.34l-11.58,31.85H76.7L131.35,98.93h30Z"/><path class="cls-63" d="M164.81,183,145.48,131l-19,52.08ZM217,238.52H186.17l-12.26-31.85h-56.1l-11.58,31.85H76.17L130.83,98.21h30Z"/><path class="cls-64" d="M164.29,182.32,145,130.24,126,182.32Zm52.17,55.48H185.65L173.38,206h-56.1L105.7,237.8h-30L130.3,97.49h30Z"/><path class="cls-65" d="M163.76,181.6l-19.34-52.08L125.47,181.6Zm52.18,55.47H185.12l-12.27-31.84H116.76l-11.58,31.84H75.12l54.66-140.3h30Z"/><path class="cls-66" d="M163.23,180.88,143.9,128.8l-19,52.08Zm52.18,55.47H184.59l-12.26-31.84h-56.1l-11.58,31.84H74.59l54.66-140.3h30Z"/><path class="cls-67" d="M162.71,180.15l-19.34-52.08-19,52.08Zm52.17,55.48H184.07L171.8,203.78H115.7l-11.58,31.85H74.07L128.72,95.32h30Z"/><path class="cls-68" d="M162.18,179.43l-19.34-52.08-19,52.08Zm52.18,55.48H183.54l-12.27-31.85H115.18L103.6,234.91H73.54L128.2,94.6h30Z"/><path class="cls-69" d="M161.66,178.71l-19.34-52.08-18.95,52.08Zm52.17,55.48H183l-12.26-31.85h-56.1l-11.58,31.85H73L127.67,93.88h30Z"/><path class="cls-69" d="M161.13,178l-19.34-52.08L122.84,178Zm52.18,55.48H182.49l-12.27-31.85h-56.1l-11.58,31.85H72.49L127.14,93.16h30Z"/><path class="cls-70" d="M160.6,177.27l-19.33-52.08-19,52.08Zm52.18,55.47H182L169.69,200.9H113.6L102,232.74H72l54.66-140.3h30Z"/><path class="cls-71" d="M160.08,176.54l-19.34-52.08-19,52.08ZM212.25,232H181.43l-12.26-31.85h-56.1L101.49,232h-30L126.09,91.71h30Z"/><path class="cls-72" d="M159.55,175.82l-19.34-52.08-19,52.08Zm52.18,55.48H180.91l-12.27-31.85H112.55L101,231.3H70.91L125.57,91h30Z"/><path class="cls-73" d="M159,175.1,139.69,123l-19,52.08Zm52.18,55.48H180.38l-12.27-31.85H112l-11.58,31.85H70.38L125,90.27h30Z"/><path class="cls-74" d="M158.5,174.38,139.16,122.3l-19,52.08Zm52.17,55.48H179.86L167.59,198h-56.1L99.91,229.86h-30L124.51,89.55h30Z"/><path class="cls-75" d="M158,173.65l-19.34-52.08-18.95,52.08Zm52.18,55.48H179.33l-12.27-31.84H111L99.39,229.13H69.33L124,88.82h30Z"/><path class="cls-76" d="M157.44,172.93l-19.33-52.08-19,52.08Zm52.18,55.48H178.8l-12.27-31.85H110.44L98.86,228.41H68.8L123.46,88.1h30Z"/><path class="cls-77" d="M156.92,172.21l-19.34-52.08-19,52.08Zm52.17,55.48H178.28L166,195.84h-56.1L98.33,227.69h-30L122.93,87.38h30Z"/><path class="cls-78" d="M156.39,171.49l-19.34-52.08-19,52.08ZM208.57,227H177.75l-12.27-31.85H109.39L97.81,227H67.75L122.41,86.66h30Z"/><path class="cls-78" d="M155.87,170.77l-19.34-52.08-19,52.08ZM208,226.25H177.22L165,194.4h-56.1L97.28,226.25h-30L121.88,85.94h30Z"/><path class="cls-79" d="M155.34,170,136,118l-19,52.08Zm52.17,55.48H176.7l-12.27-31.84h-56.1L96.75,225.52h-30L121.35,85.21h30Z"/><path class="cls-80" d="M154.81,169.32l-19.34-52.08-19,52.08ZM207,224.8H176.17L163.9,193H107.81L96.23,224.8H66.17L120.83,84.49h30Z"/><path class="cls-80" d="M154.29,168.6,135,116.52,116,168.6Zm52.17,55.48H175.64l-12.26-31.85h-56.1L95.7,224.08h-30L120.3,83.77h30Z"/><path class="cls-81" d="M153.76,167.88,134.42,115.8l-18.95,52.08Zm52.17,55.48H175.12l-12.27-31.85H106.76L95.17,223.36h-30L119.78,83.05h30Z"/><path class="cls-82" d="M153.23,167.16l-19.34-52.08-18.95,52.08Zm52.18,55.48H174.59l-12.27-31.85H106.23L94.65,222.64H64.59L119.25,82.33h30Z"/><path class="cls-83" d="M152.71,166.43l-19.34-52.08-19,52.08Zm52.17,55.49H174.06L161.8,190.07H105.7L94.12,221.92H64.07L118.72,81.6h30Z"/><path class="cls-84" d="M152.18,165.71l-19.34-52.08-19,52.08Zm52.18,55.48H173.54l-12.27-31.85H105.18L93.59,221.19H63.54L118.2,80.88h30Z"/><path class="cls-85" d="M151.65,165l-19.34-52.08-19,52.08Zm52.18,55.48H173l-12.27-31.85H104.65L93.07,220.47H63L117.67,80.16h30Z"/><path class="cls-86" d="M151.13,164.27l-19.34-52.08-18.95,52.08Zm52.17,55.48H172.48L160.22,187.9h-56.1L92.54,219.75H62.49L117.14,79.44h30Z"/><path class="cls-87" d="M150.6,163.54l-19.34-52.08-18.95,52.08ZM202.78,219H172l-12.27-31.85H103.6L92,219H62L116.62,78.71h30Z"/><path class="cls-88" d="M150.08,162.82l-19.34-52.08-19,52.08Zm52.17,55.49H171.43l-12.27-31.85H103.07L91.49,218.31h-30L116.09,78h30Z"/><path class="cls-89" d="M149.55,162.1,130.21,110l-19,52.08Zm52.17,55.48H170.91l-12.27-31.85h-56.1L91,217.58h-30L115.56,77.27h30Z"/><path class="cls-90" d="M149,161.38,129.68,109.3l-19,52.08Zm52.18,55.48H170.38L158.11,185H102L90.44,216.86H60.38L115,76.55h30Z"/><path class="cls-91" d="M148.5,160.66l-19.34-52.08-19,52.08Zm52.17,55.48H169.85l-12.27-31.85H101.49L89.91,216.14h-30L114.51,75.83h30Z"/><path class="cls-92" d="M148,159.93l-19.34-52.08-18.95,52.08Zm52.17,55.49H169.33l-12.27-31.85H101L89.38,215.42h-30L114,75.1h30Z"/><path class="cls-93" d="M147.44,159.21,128.1,107.13l-18.95,52.08Zm52.18,55.49H168.8l-12.27-31.85H100.44L88.86,214.7H58.8L113.46,74.38h30Z"/><path class="cls-94" d="M146.92,158.49l-19.34-52.08-19,52.08ZM199.09,214H168.27L156,182.12H99.91L88.33,214h-30L112.93,73.66h30Z"/><path class="cls-95" d="M146.39,157.77l-19.34-52.08-19,52.08Zm52.17,55.48H167.75L155.48,181.4H99.39L87.8,213.25h-30L112.41,72.94h30Z"/><path class="cls-96" d="M145.87,157.05,126.52,105l-19,52.08ZM198,212.53H167.22L155,180.68H98.86L87.28,212.53H57.22L111.88,72.21h30Z"/><path class="cls-97" d="M145.34,156.32,126,104.24l-19,52.08Zm52.17,55.49H166.69L154.43,180H98.33L86.75,211.81h-30L111.35,71.49h30Z"/><path class="cls-98" d="M144.81,155.6l-19.34-52.08-19,52.08ZM197,211.09H166.17L153.9,179.24H97.81L86.22,211.09h-30L110.83,70.77h30Z"/><path class="cls-99" d="M144.29,154.88,124.94,102.8l-19,52.08Zm52.17,55.49H165.64l-12.27-31.86H97.28L85.7,210.37H55.65L110.3,70.05h30Z"/><path class="cls-100" d="M143.76,154.16l-19.34-52.08-19,52.08Zm52.17,55.48H165.11l-12.26-31.85H96.76L85.17,209.64H55.12L109.77,69.33h30Z"/><path class="cls-101" d="M143.23,153.43l-19.34-52.08-19,52.08Zm52.18,55.49H164.59l-12.27-31.85H96.23L84.64,208.92h-30L109.25,68.6h30Z"/><path class="cls-102" d="M142.71,152.71l-19.35-52.08-19,52.08Zm52.17,55.49H164.06l-12.27-31.85H95.7L84.12,208.2H54.07L108.72,67.88h30Z"/><path class="cls-103" d="M142.18,152,122.84,99.91l-19,52.08Zm52.17,55.49H163.53l-12.26-31.85H95.18L83.59,207.48H53.54L108.2,67.16h30Z"/><path class="cls-104" d="M141.65,151.27,122.31,99.19l-19,52.08Zm52.18,55.49H163L150.74,174.9H94.65L83.07,206.76H53L107.67,66.44h30Z"/><path class="cls-105" d="M141.13,150.55,121.79,98.47l-19,52.08ZM193.3,206H162.48l-12.27-31.85H94.12L82.54,206H52.49L107.14,65.72h30Z"/><path class="cls-106" d="M140.6,149.82,121.26,97.74l-19,52.08Zm52.17,55.49H162l-12.27-31.85H93.6L82,205.31H52L106.62,65h30Z"/><path class="cls-107" d="M140.08,149.1,120.73,97l-19,52.08Zm52.17,55.49H161.43l-12.27-31.85H93.07L81.49,204.59h-30L106.09,64.27h30Z"/><path class="cls-108" d="M139.55,148.38,120.21,96.3l-19,52.08Zm52.17,55.49H160.9L148.63,172H92.54L81,203.87h-30L105.56,63.55h30Z"/><path class="cls-109" d="M139,147.66,119.68,95.58l-19,52.08Zm52.17,55.49H160.38l-12.27-31.86H92L80.43,203.15H50.38L105,62.83h30Z"/><path class="cls-110" d="M138.5,146.94,119.15,94.86l-19,52.08Zm52.17,55.49H159.85l-12.27-31.86H91.49L79.91,202.43h-30L104.51,62.1h30Z"/><path class="cls-111" d="M138,146.21,118.63,94.13l-19,52.08Zm52.17,55.49H159.32l-12.27-31.85H91L79.38,201.7h-30L104,61.38h30Z"/><path class="cls-111" d="M137.44,145.49,118.1,93.41,99.15,145.49ZM189.61,201H158.8l-12.27-31.85H90.44L78.85,201h-30L103.46,60.66h30Z"/><path class="cls-112" d="M136.92,144.77,117.57,92.69,98.62,144.77Zm52.17,55.49H158.27L146,168.41H89.91L78.33,200.26h-30L102.93,59.94h30Z"/><path class="cls-113" d="M136.39,144.05,117.05,92l-19,52.08Zm52.17,55.49H157.74l-12.26-31.86H89.39L77.8,199.54h-30L102.41,59.22h30Z"/><path class="cls-113" d="M135.86,143.32,116.52,91.24l-19,52.08ZM188,198.82H157.22L145,167H88.86L77.27,198.82h-30L101.88,58.49h30Z"/><path class="cls-114" d="M135.34,142.6,116,90.52,97,142.6Zm52.17,55.49H156.69l-12.27-31.85H88.33L76.75,198.09h-30L101.35,57.77h30Z"/><path class="cls-115" d="M134.81,141.88,115.47,89.8l-19,52.08ZM187,197.37H156.16L143.9,165.52H87.81L76.22,197.37h-30L100.83,57.05h30Z"/><path class="cls-116" d="M134.29,141.16,114.94,89.08,96,141.16Zm52.17,55.49H155.64L143.37,164.8H87.28L75.69,196.65h-30L100.3,56.33h30Z"/><path class="cls-117" d="M133.76,140.44,114.41,88.36l-19,52.08Zm52.17,55.49H155.11l-12.27-31.86H86.75L75.17,195.93H45.12L99.77,55.61h30Z"/><path class="cls-118" d="M133.23,139.71,113.89,87.63l-19,52.08Zm52.17,55.5H154.58l-12.26-31.86H86.23L74.64,195.21h-30L99.25,54.88h30Z"/><path class="cls-119" d="M132.71,139,113.36,86.91,94.41,139Zm52.17,55.5H154.06l-12.27-31.86H85.7L74.12,194.49H44.07L98.72,54.16h30Z"/><path class="cls-120" d="M132.18,138.27,112.84,86.19l-19,52.08Zm52.17,55.49H153.53l-12.27-31.85H85.18L73.59,193.76H43.54L98.2,53.44h30Z"/><path class="cls-121" d="M131.65,137.55,112.31,85.47l-19,52.08ZM183.82,193H153l-12.27-31.85H84.65L73.06,193H43L97.67,52.72h30Z"/><path class="cls-122" d="M131.13,136.83,111.78,84.74l-19,52.09Zm52.17,55.49H152.48l-12.27-31.86H84.12L72.54,192.32H42.49L97.14,52h30Z"/><path class="cls-122" d="M130.6,136.1,111.26,84l-19,52.08Zm52.17,55.5H152l-12.27-31.86H83.6L72,191.6H42L96.62,51.27h30Z"/><path class="cls-123" d="M130.07,135.38,110.73,83.3l-19,52.08Zm52.17,55.5H151.43L139.16,159H83.07L71.48,190.88H41.43L96.09,50.55h30Z"/><path class="cls-124" d="M129.55,134.66,110.2,82.58l-19,52.08Zm52.17,55.49H150.9L138.63,158.3H82.54L71,190.15h-30L95.56,49.83h30Z"/><path class="cls-125" d="M129,133.94,109.68,81.86l-19,52.08Zm52.17,55.49H150.37L138.1,157.58H82L70.43,189.43H40.38L95,49.11h30Z"/><path class="cls-126" d="M128.5,133.21,109.15,81.13l-19,52.08Zm52.16,55.5H149.85l-12.27-31.86H81.49L69.9,188.71h-30L94.51,48.38h30Z"/><path class="cls-127" d="M128,132.49,108.62,80.41l-19,52.08ZM180.14,188H149.32l-12.27-31.86H81L69.38,188h-30L94,47.66h30Z"/><path class="cls-128" d="M127.44,131.77,108.1,79.69,89.15,131.77Zm52.17,55.5H148.79l-12.26-31.86H80.44L68.85,187.27h-30L93.46,46.94h30Z"/><path class="cls-128" d="M126.92,131.05,107.57,79,88.62,131.05Zm52.16,55.49H148.27L136,154.69H79.91L68.32,186.54h-30L92.93,46.22h30Z"/><path class="cls-129" d="M126.39,130.33,107,78.25l-19,52.08Zm52.17,55.49H147.74L135.47,154H79.39L67.8,185.82h-30L92.41,45.5h30Z"/><path class="cls-130" d="M125.86,129.6,106.52,77.52l-19,52.08ZM178,185.1H147.21L135,153.24H78.86L67.27,185.1h-30L91.88,44.77h30Z"/><path class="cls-131" d="M125.34,128.88,106,76.8,87,128.88Zm52.17,55.5H146.69l-12.27-31.86H78.33L66.74,184.38h-30L91.35,44.05h30Z"/><path class="cls-132" d="M124.81,128.16,105.46,76.08,86.51,128.16ZM177,183.66H146.16L133.89,151.8H77.81L66.22,183.66h-30L90.83,43.33h30Z"/><path class="cls-133" d="M124.29,127.44,104.94,75.36,86,127.44Zm52.16,55.5H145.63l-12.26-31.86H77.28L65.69,182.94h-30L90.3,42.61h30Z"/><path class="cls-134" d="M123.76,126.72,104.41,74.63l-19,52.09Zm52.17,55.49H145.11l-12.27-31.85H76.75L65.17,182.21H35.12L89.77,41.88h30Z"/><path class="cls-135" d="M123.23,126,103.89,73.91,84.93,126Zm52.17,55.5H144.58l-12.27-31.86H76.23L64.64,181.49h-30L89.25,41.16h30Z"/><path class="cls-136" d="M122.71,125.27,103.36,73.19l-19,52.08Zm52.16,55.5H144.06l-12.27-31.86H75.7L64.11,180.77h-30L88.72,40.44h30Z"/><path class="cls-137" d="M122.18,124.55,102.83,72.47l-19,52.08Zm52.17,55.5H143.53l-12.27-31.86H75.18L63.59,180.05H33.54L88.19,39.72h30Z"/><path class="cls-138" d="M121.65,123.83,102.31,71.75l-19,52.08Zm52.17,55.5H143l-12.27-31.86H74.65L63.06,179.33H33L87.67,39h30Z"/><path class="cls-139" d="M121.13,123.1,101.78,71l-19,52.08Zm52.16,55.5H142.48l-12.27-31.85H74.12L62.53,178.6h-30L87.14,38.27h30Z"/><path class="cls-140" d="M120.6,122.38,101.25,70.3l-19,52.08Zm52.17,55.5H142L129.68,146H73.6L62,177.88H32L86.62,37.55h30Z"/><path class="cls-141" d="M120.07,121.66,100.73,69.58l-19,52.08Zm52.17,55.5H141.42L129.15,145.3H73.07L61.48,177.16h-30L86.09,36.83h30Z"/><path class="cls-142" d="M119.55,120.94,100.2,68.86l-19,52.08Zm52.16,55.5H140.9l-12.27-31.86H72.54L61,176.44h-30L85.56,36.11h30Z"/><path class="cls-143" d="M119,120.22,99.67,68.14l-19,52.08Zm52.17,55.5H140.37L128.1,143.86H72L60.43,175.72h-30L85,35.39h30Z"/><path class="cls-144" d="M118.5,119.49,99.15,67.41l-19,52.08ZM170.66,175H139.84l-12.26-31.86H71.49L59.9,175h-30L84.51,34.66h30Z"/><path class="cls-145" d="M118,118.77,98.62,66.69l-19,52.08Zm52.16,55.5H139.32l-12.27-31.85H71L59.37,174.27h-30L84,33.94h30Z"/><path class="cls-145" d="M117.44,118.05,98.09,66l-19,52.08Zm52.17,55.5H138.79l-12.27-31.86H70.44L58.85,173.55h-30L83.46,33.22h30Z"/><path class="cls-146" d="M116.92,117.33,97.57,65.25,78.62,117.33Zm52.16,55.5H138.26L126,141H69.91L58.32,172.83h-30L82.93,32.5h30Z"/><path class="cls-147" d="M116.39,116.61,97,64.52l-19,52.09Zm52.16,55.5H137.74l-12.27-31.86H69.39l-11.6,31.86h-30L82.41,31.77h30Z"/><path class="cls-148" d="M115.86,115.88,96.51,63.8l-19,52.08ZM168,171.39H137.21l-12.27-31.86H68.86L57.27,171.39H27.22L81.88,31.05h30Z"/><path class="cls-149" d="M115.34,115.16,96,63.08,77,115.16Zm52.16,55.5H136.68l-12.26-31.85H68.33L56.74,170.66h-30L81.35,30.33h30Z"/><path class="cls-150" d="M114.81,114.44,95.46,62.36,76.51,114.44ZM167,169.94H136.16l-12.27-31.86H67.81L56.22,169.94h-30L80.83,29.61h30Z"/><path class="cls-151" d="M114.28,113.72,94.94,61.64,76,113.72Zm52.17,55.5H135.63l-12.27-31.86H67.28L55.69,169.22h-30L80.3,28.89h30Z"/><path class="cls-152" d="M113.76,113,94.41,60.91,75.46,113Zm52.16,55.51H135.11l-12.27-31.86H66.75L55.16,168.5h-30L79.77,28.16h30Z"/><path class="cls-153" d="M113.23,112.27,93.88,60.19,74.93,112.27Zm52.17,55.51H134.58l-12.27-31.86H66.23L54.64,167.78h-30L79.25,27.44h30Z"/><path class="cls-154" d="M112.71,111.55,93.36,59.47l-19,52.08Zm52.16,55.5H134.05L121.78,135.2H65.7L54.11,167.05h-30L78.72,26.72h30Z"/><path class="cls-154" d="M112.18,110.83,92.83,58.75l-19,52.08Zm52.16,55.5H133.53l-12.27-31.86H65.17L53.58,166.33h-30L78.19,26h30Z"/><path class="cls-155" d="M111.65,110.11,92.3,58l-19,52.08Zm52.17,55.5H133l-12.27-31.86H64.65L53.06,165.61H23L77.67,25.28h30Z"/><path class="cls-156" d="M111.13,109.38,91.78,57.3l-19,52.08Zm52.16,55.51H132.47L120.2,133H64.12L52.53,164.89h-30L77.14,24.55h30Z"/><path class="cls-157" d="M110.6,108.66,91.25,56.58l-19,52.08Zm52.16,55.51H132l-12.27-31.86H63.6L52,164.17H22L76.62,23.83h30Z"/><path class="cls-158" d="M110.07,107.94,90.72,55.86l-19,52.08Zm52.17,55.51H131.42l-12.27-31.86H63.07L51.48,163.45h-30L76.09,23.11h30Z"/><path class="cls-159" d="M109.55,107.22,90.2,55.14l-19,52.08Zm52.16,55.5H130.89l-12.26-31.86H62.54L51,162.72h-30L75.56,22.39h30Z"/><path class="cls-160" d="M109,106.49,89.67,54.41l-19,52.08ZM161.18,162H130.37L118.1,130.14H62L50.42,162h-30L75,21.66h30Z"/><path class="cls-161" d="M108.49,105.77,89.14,53.69l-19,52.08Zm52.17,55.51H129.84l-12.27-31.86H61.49L49.9,161.28h-30L74.51,20.94h30Z"/><path class="cls-162" d="M108,105.05,88.62,53l-19,52.08Zm52.16,55.51H129.31L117.05,128.7H61L49.37,160.56h-30L74,20.22h30Z"/><path class="cls-163" d="M107.44,104.33,88.09,52.25l-19,52.08Zm52.16,55.51H128.79L116.52,128H60.44l-11.6,31.86h-30L73.46,19.5h30Z"/><path class="cls-164" d="M106.92,103.61,87.56,51.53l-19,52.08Zm52.16,55.5H128.26L116,127.25H59.91L48.32,159.11h-30L72.93,18.78h30Z"/><path class="cls-165" d="M106.39,102.88,87,50.8l-19,52.08Zm52.16,55.51H127.73l-12.26-31.86H59.38L47.79,158.39h-30L72.4,18.05h30Z"/><path class="cls-166" d="M105.86,102.16,86.51,50.08l-19,52.08ZM158,157.67H127.21l-12.27-31.86H58.86L47.27,157.67H17.22L71.88,17.33h30Z"/><path class="cls-167" d="M105.34,101.44,86,49.36,67,101.44ZM157.5,157H126.68l-12.27-31.86H58.33L46.74,157h-30L71.35,16.61h30Z"/><path class="cls-168" d="M104.81,100.72,85.46,48.64,66.51,100.72ZM157,156.23H126.16l-12.27-31.86H57.81l-11.6,31.86h-30L70.83,15.89h30Z"/><path class="cls-169" d="M104.28,100,84.93,47.92,66,100Zm52.17,55.51H125.63l-12.27-31.87H57.28L45.69,155.51h-30L70.3,15.17h30Z"/><path class="cls-170" d="M103.76,99.27,84.41,47.19l-19,52.08Zm52.16,55.51H125.1l-12.27-31.86H56.75L45.16,154.78h-30L69.77,14.44h30Z"/><path class="cls-171" d="M103.23,98.55,83.88,46.47,64.93,98.55Zm52.16,55.51H124.58L112.31,122.2H56.23l-11.6,31.86h-30L69.25,13.72h30Z"/><path class="cls-172" d="M102.71,97.83,83.35,45.75,64.4,97.83Zm52.16,55.51H124.05l-12.27-31.86H55.7L44.11,153.34h-30L68.72,13h30Z"/><path class="cls-173" d="M102.18,97.11,82.83,45l-19,52.08Zm52.16,55.51H123.52l-12.27-31.86H55.17L43.58,152.62h-30L68.19,12.28h30Z"/><path class="cls-174" d="M101.65,96.38,82.3,44.3,63.35,96.38Zm52.16,55.52H123L110.73,120H54.65L43.05,151.9H13L67.67,11.55h30Z"/><path class="cls-175" d="M101.13,95.66,81.77,43.58,62.82,95.66Zm52.16,55.51H122.47L110.2,119.31H54.12L42.53,151.17h-30L67.14,10.83h30Z"/><path class="cls-176" d="M100.6,94.94,81.25,42.86l-19,52.08Zm52.16,55.51H121.94l-12.26-31.86H53.6L42,150.45H12L66.61,10.11h30Z"/><path class="cls-177" d="M100.07,94.22,80.72,42.14,61.77,94.22Zm52.16,55.51H121.42l-12.27-31.86H53.07l-11.6,31.86h-30L66.09,9.39h30Z"/><path class="cls-178" d="M99.55,93.5,80.19,41.42,61.24,93.5ZM151.71,149H120.89l-12.27-31.86H52.54L41,149h-30L65.56,8.67h30Z"/><path class="cls-179" d="M99,92.77,79.67,40.69l-19,52.08Zm52.16,55.52H120.36L108.1,116.42H52l-11.6,31.87h-30L65,7.94H95Z"/><path class="cls-180" d="M98.49,92.05,79.14,40l-19,52.08Zm52.16,55.52H119.84L107.57,115.7H51.49l-11.6,31.87h-30L64.51,7.22h30Z"/><path class="cls-181" d="M98,91.33,78.61,39.25l-19,52.08Zm52.16,55.51H119.31L107,115H51L39.37,146.84h-30L64,6.5h30Z"/><path class="cls-182" d="M97.44,90.61,78.09,38.53l-19,52.08Zm52.16,55.51H118.78l-12.26-31.86H50.44l-11.6,31.86H8.8L63.46,5.78h30Z"/><path class="cls-183" d="M96.92,89.89,77.56,37.81l-19,52.08Zm52.16,55.51H118.26L106,113.54H49.91L38.32,145.4h-30L62.93,5.06h30Z"/><path class="cls-184" d="M96.39,89.16,77,37.08l-19,52.08Zm52.16,55.52H117.73l-12.27-31.87H49.38L37.79,144.68h-30L62.4,4.33h30Z"/><path class="cls-185" d="M95.86,88.44,76.51,36.36l-19,52.08ZM148,144H117.21l-12.27-31.87H48.86L37.26,144h-30L61.88,3.61h30Z"/><path class="cls-186" d="M95.34,87.72,76,35.64,57,87.72Zm52.16,55.51H116.68l-12.27-31.86H48.33L36.74,143.23H6.7L61.35,2.89h30Z"/><path class="cls-187" d="M94.81,87,75.46,34.92,56.5,87ZM147,142.51H116.15l-12.27-31.86H47.81l-11.6,31.86h-30L60.83,2.17h30Z"/><path class="cls-188" d="M94.28,86.27,74.93,34.19,56,86.27Zm52.16,55.52H115.63l-12.27-31.86H47.28l-11.6,31.86h-30L60.3,1.44h30Z"/><path class="cls-188" d="M93.76,85.55,74.4,33.47l-19,52.08Zm52.16,55.52H115.1L102.83,109.2H46.75L35.16,141.07h-30L59.77.72h30Z"/><path d="M93.23,84.83,73.88,32.75l-19,52.08Zm52.16,55.52H114.57L102.3,108.48H46.23l-11.6,31.87h-30L59.25,0h30Z"/></g><path class="cls-189" d="M140.83,140.35H110L97.74,108.48H41.64L30.07,140.35H0L54.66,0h30ZM88.64,84.83,69.31,32.75l-19,52.08Z"/></g></g></svg>