<svg xmlns="http://www.w3.org/2000/svg" xmlns:xlink="http://www.w3.org/1999/xlink" viewBox="0 0 451.78 120"><defs><style>.cls-1{fill:url(#linear-gradient);}.cls-2{fill:#fff;stroke:#fff;stroke-miterlimit:10;stroke-width:1.5px;}</style><linearGradient id="linear-gradient" x1="-274.45" y1="-148.64" x2="704.49" y2="259.58" gradientUnits="userSpaceOnUse"><stop offset="0.25" stop-color="#4e3866"/><stop offset="0.34" stop-color="#543d66"/><stop offset="0.45" stop-color="#644c65"/><stop offset="0.58" stop-color="#7e6463"/><stop offset="0.72" stop-color="#a38560"/><stop offset="0.84" stop-color="#c7a65e"/></linearGradient></defs><g id="Layer_2" data-name="Layer 2"><g id="Layer_1-2" data-name="Layer 1"><rect class="cls-1" width="451.78" height="120"/><path class="cls-2" d="M71.19,37.36v31a31.19,31.19,0,0,1-.31,4.26,10.79,10.79,0,0,1-1.51,4.24,9.06,9.06,0,0,1-3.68,3.21A15,15,0,0,1,59,81.38c-4,0-6.92-.87-8.9-2.6A9.58,9.58,0,0,1,47,71.43H52.4a8.66,8.66,0,0,0,.34,2.25,7.46,7.46,0,0,0,1.1,2.38,6.31,6.31,0,0,0,2.09,1.86,6.9,6.9,0,0,0,3.36.74,5.59,5.59,0,0,0,3.6-1,6.33,6.33,0,0,0,1.88-2.54,10.25,10.25,0,0,0,.7-3.27c.06-1.18.09-2.26.09-3.25V37.36Z"/><path class="cls-2" d="M92.82,80.64V37.36H107a26.06,26.06,0,0,1,9.4,1.64,22.27,22.27,0,0,1,7.32,4.52,20.07,20.07,0,0,1,4.76,6.83,21.64,21.64,0,0,1-4.88,24.17A22,22,0,0,1,116.5,79a23.58,23.58,0,0,1-8.72,1.61Zm5.63-2.72h6.78a19.88,19.88,0,0,0,8.61-1.7,17.27,17.27,0,0,0,5.82-4.42A17.61,17.61,0,0,0,123,65.71,22.46,22.46,0,0,0,124,59a21,21,0,0,0-1.23-7.14,18,18,0,0,0-3.61-6.06,17,17,0,0,0-5.89-4.17,19.87,19.87,0,0,0-8.08-1.55H98.45Z"/><path class="cls-2" d="M196.09,37.36v3.4H173.78V56.28h19.16v2.84H173.78V80.64h-5.63V37.36Z"/><path class="cls-2" d="M214.26,67.9l-5.44,12.74H206l18.3-43.28h3.09l20.15,43.28h-6L235.59,67.9Zm10.33-23.61h-.25l-8.9,20.83h18.85Z"/><path class="cls-2" d="M277,37.36a17.86,17.86,0,0,1,6.86,1.15,12.21,12.21,0,0,1,4.29,2.84A9.87,9.87,0,0,1,290.39,45a11.84,11.84,0,0,1,.65,3.65,12.93,12.93,0,0,1-.61,3.8,10.8,10.8,0,0,1-5.43,6.4,12.5,12.5,0,0,1-5.09,1.29v.25l.62.31a4.49,4.49,0,0,1,1.27.93,15.64,15.64,0,0,1,1.36,1.79c.55.83,1.3,2,2.24,3.49s2.27,3.52,4,6c.57.87,1.12,1.64,1.65,2.32A11.05,11.05,0,0,0,292.71,77a6.68,6.68,0,0,0,1.85,1.08,6.43,6.43,0,0,0,2.29.37c.21,0,.41,0,.62,0l.62-.09v2.29a4.84,4.84,0,0,1-1.74.61,14.85,14.85,0,0,1-2.22.13,9.07,9.07,0,0,1-3.18-.5,8.38,8.38,0,0,1-2.36-1.33,10.9,10.9,0,0,1-1.93-2c-.59-.78-1.19-1.64-1.8-2.59L280,67.72c-.75-1.16-1.39-2.13-1.93-2.91a9.08,9.08,0,0,0-1.74-1.92,5.8,5.8,0,0,0-2.07-1,11.65,11.65,0,0,0-2.89-.31H268.6V80.64H263V37.36ZM268.6,58.75H275a10.36,10.36,0,0,0,4.37-.86,10,10,0,0,0,3.2-2.26,9.38,9.38,0,0,0,1.95-3.09,9.26,9.26,0,0,0,.66-3.37,9.14,9.14,0,0,0-.72-3.65,7.88,7.88,0,0,0-2.08-2.87,10.11,10.11,0,0,0-3.25-1.89,12.63,12.63,0,0,0-4.25-.68H268.6Z"/><path class="cls-2" d="M316.26,67.9l-5.44,12.74H308l18.29-43.28h3.09l20.16,43.28h-6L337.59,67.9Zm10.32-23.61h-.25l-8.9,20.83h18.86Z"/><path class="cls-2" d="M404.35,80.64h-5.26V78.1a31,31,0,0,1-5.94,2.26,30.25,30.25,0,0,1-8.24,1,26.48,26.48,0,0,1-10.65-1.95,20.68,20.68,0,0,1-7.33-5.19,21.37,21.37,0,0,1-4.28-7.36,26.25,26.25,0,0,1-1.39-8.5,22.54,22.54,0,0,1,1.79-9.18,19.29,19.29,0,0,1,5-6.83,22.51,22.51,0,0,1,7.63-4.26,30.28,30.28,0,0,1,9.68-1.49,27.49,27.49,0,0,1,7.94,1A22.23,22.23,0,0,1,399,40.15a14.9,14.9,0,0,1,3.62,3.18,13.4,13.4,0,0,1,1.88,3.06H400a6.06,6.06,0,0,0-1.64-2.57,12.51,12.51,0,0,0-3.24-2.25A21.37,21.37,0,0,0,390.62,40a23,23,0,0,0-5.44-.62,19.47,19.47,0,0,0-7.69,1.42,15.57,15.57,0,0,0-5.6,4A17.09,17.09,0,0,0,368.46,51a25.83,25.83,0,0,0-1.14,7.86,24.81,24.81,0,0,0,1.21,7.94A17,17,0,0,0,372.15,73a16.56,16.56,0,0,0,6.07,4.11,22.6,22.6,0,0,0,8.55,1.49,23.13,23.13,0,0,0,6.62-.87,22.24,22.24,0,0,0,5.7-2.66V63.88h-6.92V61.35h12.18Z"/></g></g></svg>