<svg xmlns="http://www.w3.org/2000/svg" viewBox="0 0 295.32 240"><defs><style>.cls-1{fill:#82621f;}</style></defs><g id="Layer_2" data-name="Layer 2"><g id="Layer_1-2" data-name="Layer 1"><path class="cls-1" d="M295.32,28.41A121,121,0,0,1,260.52,38,60.75,60.75,0,0,0,287.16,4.43a121.23,121.23,0,0,1-38.47,14.7A60.65,60.65,0,0,0,145.44,74.39,172,172,0,0,1,20.56,11.09,60.66,60.66,0,0,0,39.31,92,60.26,60.26,0,0,1,11.87,84.4c0,.26,0,.51,0,.76a60.62,60.62,0,0,0,48.6,59.41,60.57,60.57,0,0,1-27.36,1,60.66,60.66,0,0,0,56.6,42.08,121.58,121.58,0,0,1-75.25,25.94A123.1,123.1,0,0,1,0,212.78,171.49,171.49,0,0,0,92.88,240c111.44,0,172.38-92.32,172.38-172.39,0-2.62-.06-5.24-.17-7.84A123.15,123.15,0,0,0,295.32,28.41Z"/></g></g></svg>