<svg xmlns="http://www.w3.org/2000/svg" viewBox="0 0 133.43 32.33"><defs><style>.cls-1{fill:#01a0c6;}.cls-1,.cls-2,.cls-3{fill-rule:evenodd;}.cls-2{fill:#0d1c76;}.cls-3{fill:#0c125f;}</style></defs><g id="Layer_2" data-name="Layer 2"><g id="Layer_1-2" data-name="Layer 1"><path class="cls-1" d="M11.64,7.61h9.12c4.9,0,6.74,2.48,6.45,6.12-.46,6-4.1,9.34-8.92,9.34H15.86c-.67,0-1.11.44-1.29,1.62l-1,6.89a.78.78,0,0,1-.66.75H7.15c-.54,0-.73-.42-.59-1.31l3.49-22.1A1.4,1.4,0,0,1,11.64,7.61Z"/><path class="cls-2" d="M51.23,7.2c3.07,0,5.91,1.67,5.52,5.83-.46,4.93-3.12,7.68-7.3,7.69H45.81c-.53,0-.78.42-.92,1.3l-.7,4.49c-.11.68-.46,1-1,1h-3.4c-.54,0-.73-.34-.61-1.12L42,8.41c.14-.88.48-1.21,1.08-1.21Zm-5.54,9.63h2.77c1.73-.06,2.88-1.26,3-3.42a2.08,2.08,0,0,0-2.26-2.29l-2.6,0-.9,5.69ZM66,26.15c.31-.29.63-.43.58-.09l-.11.84c0,.43.12.67.53.67h3c.51,0,.76-.21.88-1L72.73,14.9c.1-.58,0-.87-.49-.87H68.92c-.3,0-.44.17-.52.63l-.12.71c-.07.38-.24.44-.4.07-.56-1.34-2-1.93-4-1.89-4.66.09-7.79,3.63-8.13,8.15A5.61,5.61,0,0,0,61.3,28,6,6,0,0,0,66,26.15Zm-2.52-1.8a3,3,0,0,1-3.11-3.55,4.33,4.33,0,0,1,4.17-3.56,3,3,0,0,1,3.1,3.56,4.32,4.32,0,0,1-4.16,3.55ZM78.64,14h-3c-.63,0-.89.47-.69,1l3.8,11.13L75,31.46c-.31.44-.07.84.37.84h3.44a1.05,1.05,0,0,0,1-.5L91.47,15c.36-.51.19-1-.4-1H87.82c-.56,0-.78.22-1.1.69l-4.87,7.07-2.17-7.08A.94.94,0,0,0,78.64,14Z"/><path class="cls-1" d="M103.63,7.2c3.08,0,5.92,1.67,5.53,5.83-.46,4.93-3.12,7.68-7.3,7.69H98.21c-.52,0-.78.42-.91,1.3l-.71,4.49c-.1.68-.45,1-1,1H92.23c-.54,0-.73-.34-.61-1.12l2.8-18c.14-.88.48-1.21,1.08-1.21ZM98.1,16.83h2.76c1.73-.06,2.88-1.26,3-3.42a2.1,2.1,0,0,0-2.27-2.29l-2.6,0-.89,5.69Zm20.29,9.32c.31-.29.63-.43.58-.09l-.11.84c-.06.43.11.67.52.67h3c.5,0,.75-.21.88-1l1.86-11.67c.09-.58,0-.87-.5-.87h-3.31c-.3,0-.45.17-.53.63l-.12.71c-.06.38-.24.44-.39.07-.57-1.34-2-1.93-4-1.89-4.65.09-7.79,3.63-8.12,8.15A5.61,5.61,0,0,0,113.71,28a6,6,0,0,0,4.68-1.81Zm-2.53-1.8a3,3,0,0,1-3.1-3.55,4.33,4.33,0,0,1,4.16-3.56A3,3,0,0,1,120,20.8a4.32,4.32,0,0,1-4.17,3.55Zm13.92,3.24H126.3a.42.42,0,0,1-.43-.49l3.06-19.38a.62.62,0,0,1,.58-.48H133a.41.41,0,0,1,.43.48L130.36,27.1A.6.6,0,0,1,129.78,27.59Z"/><path class="cls-2" d="M5.94,0h9.13c2.57,0,5.62.08,7.66,1.88a6.17,6.17,0,0,1,1.91,5.17c-.56,7-4.73,10.88-10.32,10.88H9.82c-.77,0-1.27.51-1.49,1.88l-1.26,8c-.08.52-.3.83-.71.86H.73c-.62,0-.84-.48-.68-1.51L4.1,1.52A1.61,1.61,0,0,1,5.94,0Z"/><path class="cls-3" d="M8.46,19,10.05,8.92a1.4,1.4,0,0,1,1.59-1.31h9.12a8.85,8.85,0,0,1,3.69.67c-.92,6.2-4.93,9.65-10.19,9.65H9.76C9.17,17.93,8.73,18.23,8.46,19Z"/></g></g></svg>