<svg xmlns="http://www.w3.org/2000/svg" viewBox="0 0 257.09 257.09"><defs><style>.cls-1{fill:#82621f;}</style></defs><g id="Layer_2" data-name="Layer 2"><g id="Layer_1-2" data-name="Layer 1"><path class="cls-1" d="M14.19,257.09A14.19,14.19,0,0,1,0,242.9V14.19A14.19,14.19,0,0,1,14.19,0H242.9a14.19,14.19,0,0,1,14.19,14.19V242.9a14.19,14.19,0,0,1-14.19,14.19Zm163.2,0V157.53H210.8l5-38.8H177.39V94c0-11.23,3.12-18.89,19.22-18.89h20.55V40.36a275.31,275.31,0,0,0-29.94-1.53c-29.62,0-49.9,18.08-49.9,51.29v28.61h-33.5v38.8h33.5v99.56Z"/></g></g></svg>