<?xml version="1.0" encoding="UTF-8"?><svg id="Layer_2" xmlns="http://www.w3.org/2000/svg" viewBox="0 0 260.95 260.95"><defs><style>.cls-1{fill:#82621f;}</style></defs><g id="Layer_1-2"><path class="cls-1" d="m130.46,0C58.39,0,0,58.44,0,130.5v130.45h130.46c72.06,0,130.49-58.37,130.49-130.45S202.51,0,130.46,0Zm-16.09,157.52l-.41-5.37c-1.03-10.74,2.68-22.09,12.39-33.86,7.85-9.29,13.01-16.52,13.01-24.57,0-8.67-5.37-14.45-16.93-14.66-7.23,0-15.49,2.27-20.65,6.19l-6.19-18.17c7.43-4.75,19.41-8.46,32.42-8.46,25.6,0,37.37,14.87,37.37,31.38,0,14.87-9.08,25.19-17.96,35.31-8.05,9.5-11.36,17.96-10.94,27.87l.21,4.34h-22.3Zm-5.16,28.7c0-9.5,6.61-16.1,15.69-16.1s15.49,6.61,15.69,16.1c0,9.09-6.19,16.11-15.69,16.11s-15.69-7.02-15.69-16.11Z"/></g></svg>