<svg xmlns="http://www.w3.org/2000/svg" viewBox="0 0 228.07 290.3"><defs><style>.cls-1{opacity:0.58;}.cls-2{fill:#947c6e;}.cls-3{fill:#937b6d;}.cls-4{fill:#927a6c;}.cls-5{fill:#917a6c;}.cls-6{fill:#90796b;}.cls-7{fill:#90786b;}.cls-8{fill:#8f786a;}.cls-9{fill:#8e776a;}.cls-10{fill:#8d7669;}.cls-11{fill:#8c7568;}.cls-12{fill:#8b7567;}.cls-13{fill:#8a7467;}.cls-14{fill:#8a7366;}.cls-15{fill:#897366;}.cls-16{fill:#887265;}.cls-17{fill:#877265;}.cls-18{fill:#877164;}.cls-19{fill:#867064;}.cls-20{fill:#857063;}.cls-21{fill:#856f63;}.cls-22{fill:#846e62;}.cls-23{fill:#836e61;}.cls-24{fill:#826d61;}.cls-25{fill:#826d60;}.cls-26{fill:#816c60;}.cls-27{fill:#806b5f;}.cls-28{fill:#7f6b5f;}.cls-29{fill:#7f6a5e;}.cls-30{fill:#7e695e;}.cls-31{fill:#7d695d;}.cls-32{fill:#7c685c;}.cls-33{fill:#7b675b;}.cls-34{fill:#7a665b;}.cls-35{fill:#79665a;}.cls-36{fill:#79655a;}.cls-37{fill:#786559;}.cls-38{fill:#776459;}.cls-39{fill:#776358;}.cls-40{fill:#766358;}.cls-41{fill:#756257;}.cls-42{fill:#746156;}.cls-43{fill:#736055;}.cls-44{fill:#726055;}.cls-45{fill:#715f54;}.cls-46{fill:#715e54;}.cls-47{fill:#705e53;}.cls-48{fill:#6f5d53;}.cls-49{fill:#6e5d52;}.cls-50{fill:#6e5c52;}.cls-51{fill:#6d5b51;}.cls-52{fill:#6c5b50;}.cls-53{fill:#6c5a50;}.cls-54{fill:#6b594f;}.cls-55{fill:#6a594f;}.cls-56{fill:#69584e;}.cls-57{fill:#68574d;}.cls-58{fill:#67564d;}.cls-59{fill:#66564c;}.cls-60{fill:#66554c;}.cls-61{fill:#65554b;}.cls-62{fill:#64544a;}.cls-63{fill:#63534a;}.cls-64{fill:#635349;}.cls-65{fill:#625249;}.cls-66{fill:#615148;}.cls-67{fill:#605148;}.cls-68{fill:#605047;}.cls-69{fill:#5f5047;}.cls-70{fill:#5e4f46;}.cls-71{fill:#5e4e46;}.cls-72{fill:#5d4e45;}.cls-73{fill:#5c4d44;}.cls-74{fill:#5b4c44;}.cls-75{fill:#5b4c43;}.cls-76{fill:#5a4b43;}.cls-77{fill:#594b42;}.cls-78{fill:#584a42;}.cls-79{fill:#584941;}.cls-80{fill:#574941;}.cls-81{fill:#564840;}.cls-82{fill:#55483f;}.cls-83{fill:#55473f;}.cls-84{fill:#54463e;}.cls-85{fill:#53463e;}.cls-86{fill:#52453d;}.cls-87{fill:#52443d;}.cls-88{fill:#51443c;}.cls-89{fill:#50433c;}.cls-90{fill:#50433b;}.cls-91{fill:#4f423b;}.cls-92{fill:#4e413a;}.cls-93{fill:#4d4139;}.cls-94{fill:#4d4039;}.cls-95{fill:#4c4038;}.cls-96{fill:#4b3f38;}.cls-97{fill:#4a3e37;}.cls-98{fill:#493d36;}.cls-99{fill:#483c36;}.cls-100{fill:#473c35;}.cls-101{fill:#473b35;}.cls-102{fill:#463b34;}.cls-103{fill:#453a33;}.cls-104{fill:#443933;}.cls-105{fill:#443932;}.cls-106{fill:#433832;}.cls-107{fill:#423831;}.cls-108{fill:#423731;}.cls-109{fill:#413630;}.cls-110{fill:#403630;}.cls-111{fill:#3f352f;}.cls-112{fill:#3f342f;}.cls-113{fill:#3e342e;}.cls-114{fill:#3d332d;}.cls-115{fill:#3c332d;}.cls-116{fill:#3c322c;}.cls-117{fill:#3b312c;}.cls-118{fill:#3a312b;}.cls-119{fill:#39302b;}.cls-120{fill:#39302a;}.cls-121{fill:#382f2a;}.cls-122{fill:#372e29;}.cls-123{fill:#362e28;}.cls-124{fill:#362d28;}.cls-125{fill:#352c27;}.cls-126{fill:#342c27;}.cls-127{fill:#342b26;}.cls-128{fill:#332b26;}.cls-129{fill:#322a25;}.cls-130{fill:#312925;}.cls-131{fill:#312924;}.cls-132{fill:#302824;}.cls-133{fill:#2f2723;}.cls-134{fill:#2e2722;}.cls-135{fill:#2e2622;}.cls-136{fill:#2d2621;}.cls-137{fill:#2c2521;}.cls-138{fill:#2b2420;}.cls-139{fill:#2a231f;}.cls-140{fill:#29231f;}.cls-141{fill:#28221e;}.cls-142{fill:#28211e;}.cls-143{fill:#27211d;}.cls-144{fill:#26201c;}.cls-145{fill:#261f1c;}.cls-146{fill:#251f1b;}.cls-147{fill:#241e1b;}.cls-148{fill:#231e1a;}.cls-149{fill:#231d1a;}.cls-150{fill:#221c19;}.cls-151{fill:#211c19;}.cls-152{fill:#201b18;}.cls-153{fill:#1f1a17;}.cls-154{fill:#1e1916;}.cls-155{fill:#1d1916;}.cls-156{fill:#1d1815;}.cls-157{fill:#1c1715;}.cls-158{fill:#1b1714;}.cls-159{fill:#1b1614;}.cls-160{fill:#1a1613;}.cls-161{fill:#191513;}.cls-162{fill:#181412;}.cls-163{fill:#171311;}.cls-164{fill:#161310;}.cls-165{fill:#151210;}.cls-166{fill:#15110f;}.cls-167{fill:#14110f;}.cls-168{fill:#13100e;}.cls-169{fill:#120f0e;}.cls-170{fill:#120f0d;}.cls-171{fill:#110e0d;}.cls-172{fill:#100e0c;}.cls-173{fill:#0f0d0b;}.cls-174{fill:#0f0c0b;}.cls-175{fill:#0e0c0a;}.cls-176{fill:#0d0b0a;}.cls-177{fill:#0d0a09;}.cls-178{fill:#0c0a09;}.cls-179{fill:#0b0908;}.cls-180{fill:#0a0908;}.cls-181{fill:#0a0807;}.cls-182{fill:#090707;}.cls-183{fill:#080706;}.cls-184{fill:#070605;}.cls-185{fill:#060504;}.cls-186{fill:#050404;}.cls-187{fill:#040403;}.cls-188{fill:#040303;}.cls-189{fill:#030202;}.cls-190{fill:#020202;}.cls-191{fill:#010101;}.cls-192{fill:#e5e5e5;}</style></defs><g id="Layer_2" data-name="Layer 2"><g id="Layer_1-2" data-name="Layer 1"><g class="cls-1"><path class="cls-2" d="M200.58,236.28l27.49,8.7q-6.33,23-21,34.1T169.77,290.3q-28,0-46-19.17c-12-12.67-18-30.12-18-52.19q0-35,18.09-54.38t47.57-19.44q25.72,0,41.82,15.22c6.4,6,11.17,14.63,14.37,25.85l-28.06,6.72a29.67,29.67,0,0,0-10.38-17.24c-5.26-4.24-11.66-6.28-19.2-6.28-10.39,0-18.81,3.7-25.31,11.17S135,200.1,135,216.79q0,26.67,9.58,38T169.47,266a28.64,28.64,0,0,0,19.43-7.14C194.32,254.11,198.22,246.54,200.58,236.28Z"/><path class="cls-3" d="M200.05,235.56l27.49,8.7q-6.31,23-21,34.1t-37.28,11.22q-27.94,0-46-19.17t-18-52.19q0-35,18.1-54.38T171,144.4q25.74,0,41.83,15.22c6.39,6,11.17,14.63,14.36,25.85l-28,6.71A29.69,29.69,0,0,0,188.7,175c-5.26-4.24-11.65-6.29-19.2-6.29q-15.57,0-25.31,11.18t-9.72,36.23q0,26.67,9.58,38t24.89,11.28a28.53,28.53,0,0,0,19.44-7.14C193.81,253.41,197.69,245.82,200.05,235.56Z"/><path class="cls-3" d="M199.53,234.84l27.49,8.7q-6.33,22.95-21,34.09t-37.29,11.22q-27.94,0-46-19.17t-18-52.18q0-35,18.09-54.39t47.57-19.43q25.73,0,41.82,15.22c6.39,6,11.17,14.63,14.37,25.85l-28.06,6.71a29.66,29.66,0,0,0-10.39-17.23c-5.26-4.24-11.65-6.29-19.19-6.29q-15.58,0-25.32,11.17t-9.72,36.24c0,17.77,3.2,30.45,9.59,38s14.68,11.28,24.89,11.28a28.57,28.57,0,0,0,19.43-7.14C193.28,252.68,197.16,245.1,199.53,234.84Z"/><path class="cls-4" d="M199,234.12l27.49,8.69q-6.33,23-21,34.1t-37.28,11.22q-28,0-46-19.17t-18-52.18q0-35,18.09-54.39T169.9,143q25.72,0,41.82,15.23c6.4,6,11.17,14.63,14.37,25.85L198,190.74a29.65,29.65,0,0,0-10.38-17.24c-5.26-4.23-11.66-6.28-19.2-6.28q-15.58,0-25.31,11.17t-9.72,36.24q0,26.66,9.58,38t24.89,11.28a28.51,28.51,0,0,0,19.43-7.15C192.76,252,196.64,244.38,199,234.12Z"/><path class="cls-5" d="M198.47,233.39l27.49,8.7q-6.32,23-21,34.1t-37.29,11.22q-27.94,0-46-19.17t-18-52.18q0-35,18.09-54.39t47.56-19.44q25.74,0,41.83,15.22c6.39,6.05,11.17,14.63,14.36,25.85L197.51,190a29.72,29.72,0,0,0-10.39-17.24c-5.26-4.24-11.65-6.28-19.2-6.28-10.38,0-18.81,3.7-25.31,11.17s-9.72,19.54-9.72,36.24q0,26.66,9.58,38t24.89,11.27A28.53,28.53,0,0,0,186.8,256C192.23,251.24,196.11,243.65,198.47,233.39Z"/><path class="cls-6" d="M198,232.67l27.49,8.7q-6.33,23-21,34.1t-37.29,11.22q-27.94,0-46-19.17t-18-52.19q0-35,18.09-54.38t47.57-19.44q25.72,0,41.82,15.22c6.39,6,11.17,14.63,14.37,25.85L197,189.3a29.72,29.72,0,0,0-10.38-17.24c-5.27-4.24-11.66-6.29-19.2-6.29q-15.59,0-25.31,11.18t-9.72,36.23q0,26.67,9.58,38t24.89,11.28a28.52,28.52,0,0,0,19.43-7.14C191.71,250.52,195.58,242.93,198,232.67Z"/><path class="cls-7" d="M197.42,232l27.49,8.7q-6.33,22.95-21,34.1T166.61,286q-28,0-46-19.16t-18-52.19q0-35,18.1-54.39t47.56-19.43q25.74,0,41.82,15.22c6.4,6,11.18,14.63,14.37,25.85l-28.06,6.71a29.63,29.63,0,0,0-10.38-17.23c-5.26-4.24-11.66-6.29-19.2-6.29q-15.57,0-25.31,11.18t-9.72,36.23q0,26.67,9.58,38t24.89,11.28a28.5,28.5,0,0,0,19.43-7.14C191.18,249.79,195.06,242.21,197.42,232Z"/><path class="cls-8" d="M196.9,231.23l27.48,8.7q-6.31,22.95-21,34.09t-37.29,11.22q-27.95,0-46-19.17t-18-52.18q0-35,18.09-54.39t47.57-19.43q25.72,0,41.82,15.22c6.39,6,11.17,14.63,14.36,25.85l-28,6.71a29.66,29.66,0,0,0-10.39-17.23c-5.26-4.24-11.65-6.29-19.19-6.29q-15.58,0-25.32,11.17t-9.72,36.24q0,26.65,9.58,38T165.78,261a28.54,28.54,0,0,0,19.44-7.15C190.65,249.07,194.53,241.49,196.9,231.23Z"/><path class="cls-9" d="M196.37,230.51l27.49,8.69q-6.33,23-21,34.1t-37.29,11.22q-27.95,0-46-19.17t-18-52.18q0-35,18.09-54.39t47.57-19.44q25.72,0,41.82,15.23c6.39,6,11.17,14.63,14.37,25.85l-28.06,6.71A29.76,29.76,0,0,0,185,169.89c-5.26-4.23-11.66-6.28-19.2-6.28q-15.58,0-25.31,11.17T130.79,211q0,26.65,9.58,38t24.89,11.28a28.53,28.53,0,0,0,19.43-7.15C190.13,248.35,194,240.77,196.37,230.51Z"/><path class="cls-10" d="M195.84,229.78l27.49,8.7q-6.33,23-21,34.1T165,283.8q-27.94,0-46-19.17t-18-52.18q0-35,18.1-54.39t47.56-19.44q25.74,0,41.83,15.22c6.39,6,11.17,14.63,14.36,25.85l-28.05,6.72a29.69,29.69,0,0,0-10.39-17.24c-5.26-4.24-11.66-6.28-19.2-6.28-10.38,0-18.81,3.7-25.31,11.17s-9.72,19.54-9.72,36.24q0,26.65,9.58,38t24.89,11.27a28.5,28.5,0,0,0,19.43-7.14C189.6,247.63,193.48,240,195.84,229.78Z"/><path class="cls-10" d="M195.32,229.06l27.48,8.7q-6.31,23-21,34.1T164.5,283.08q-27.94,0-46-19.17t-18-52.19q0-35,18.09-54.38t47.57-19.44q25.72,0,41.82,15.22c6.39,6,11.17,14.63,14.36,25.85l-28.05,6.72A29.69,29.69,0,0,0,184,168.45c-5.26-4.24-11.65-6.29-19.19-6.29q-15.59,0-25.32,11.18t-9.72,36.23q0,26.67,9.59,38t24.88,11.28a28.53,28.53,0,0,0,19.44-7.14C189.07,246.9,193,239.32,195.32,229.06Z"/><path class="cls-11" d="M194.79,228.34l27.49,8.7q-6.33,23-21,34.1T164,282.35q-27.94,0-46-19.16T100,211q0-35,18.09-54.39t47.57-19.43q25.73,0,41.82,15.22c6.39,6,11.17,14.63,14.37,25.85L193.82,185a29.73,29.73,0,0,0-10.38-17.23c-5.26-4.24-11.66-6.29-19.2-6.29q-15.59,0-25.31,11.18t-9.72,36.23q0,26.67,9.58,38t24.89,11.28A28.52,28.52,0,0,0,183.11,251C188.55,246.18,192.43,238.6,194.79,228.34Z"/><path class="cls-12" d="M194.26,227.62l27.49,8.7q-6.33,22.95-21,34.09t-37.28,11.22q-27.94,0-46-19.16t-18-52.19q0-35,18.1-54.39t47.56-19.43q25.74,0,41.83,15.22c6.39,6,11.17,14.63,14.36,25.85l-28,6.71A29.66,29.66,0,0,0,182.91,167c-5.26-4.24-11.66-6.29-19.2-6.29q-15.57,0-25.31,11.17t-9.72,36.24q0,26.66,9.58,38t24.89,11.28a28.51,28.51,0,0,0,19.44-7.15C188,245.46,191.9,237.88,194.26,227.62Z"/><path class="cls-13" d="M193.74,226.9l27.49,8.69q-6.33,23-21,34.1t-37.29,11.22q-27.94,0-46-19.17c-12-12.67-18-30.12-18-52.18q0-35,18.09-54.39t47.57-19.44q25.73,0,41.82,15.23c6.39,6,11.17,14.63,14.37,25.85l-28.06,6.71a29.72,29.72,0,0,0-10.39-17.24c-5.26-4.23-11.65-6.28-19.19-6.28q-15.58,0-25.31,11.17t-9.72,36.24q0,26.66,9.58,38t24.88,11.28a28.54,28.54,0,0,0,19.44-7.15C187.49,244.74,191.37,237.16,193.74,226.9Z"/><path class="cls-14" d="M193.21,226.17l27.49,8.7q-6.33,23-21,34.1t-37.29,11.22q-27.94,0-46-19.17c-12-12.67-18-30.12-18-52.18q0-35,18.09-54.39T164.11,135q25.74,0,41.82,15.22c6.4,6,11.18,14.63,14.37,25.85l-28.06,6.72a29.67,29.67,0,0,0-10.38-17.24c-5.26-4.24-11.66-6.29-19.2-6.29q-15.58,0-25.31,11.18t-9.72,36.24q0,26.66,9.58,38t24.89,11.27a28.52,28.52,0,0,0,19.43-7.14C187,244,190.85,236.43,193.21,226.17Z"/><path class="cls-15" d="M192.68,225.45l27.49,8.7q-6.31,23-21,34.1t-37.28,11.21q-27.94,0-46-19.16c-12-12.67-18-30.12-18-52.19q0-35,18.1-54.39t47.56-19.43q25.74,0,41.83,15.22c6.39,6,11.17,14.63,14.36,25.85l-28.05,6.72a29.69,29.69,0,0,0-10.39-17.24c-5.26-4.24-11.65-6.29-19.2-6.29q-15.57,0-25.31,11.18T127.1,206q0,26.66,9.58,37.95t24.89,11.28A28.55,28.55,0,0,0,181,248.06C186.44,243.29,190.32,235.71,192.68,225.45Z"/><path class="cls-16" d="M192.16,224.73l27.49,8.7q-6.33,22.95-21,34.1t-37.29,11.21q-27.94,0-46-19.16c-12-12.67-18-30.12-18-52.19q0-35,18.09-54.39t47.57-19.43q25.73,0,41.82,15.22c6.39,6,11.17,14.63,14.37,25.85l-28.06,6.71a29.7,29.7,0,0,0-10.38-17.23c-5.27-4.24-11.66-6.29-19.2-6.29Q146,157.83,136.3,169t-9.72,36.23q0,26.67,9.58,38t24.89,11.28a28.52,28.52,0,0,0,19.43-7.14C185.91,242.57,189.79,235,192.16,224.73Z"/><path class="cls-17" d="M191.63,224l27.49,8.7q-6.33,22.95-21,34.1T160.82,278q-28,0-46-19.16c-12-12.68-18-30.12-18-52.19q0-35,18.09-54.39t47.57-19.43q25.74,0,41.82,15.22c6.4,6,11.18,14.63,14.37,25.85l-28.05,6.71a29.71,29.71,0,0,0-10.39-17.23c-5.26-4.24-11.66-6.29-19.2-6.29q-15.59,0-25.31,11.17t-9.72,36.24q0,26.65,9.58,38t24.89,11.28A28.46,28.46,0,0,0,180,246.61C185.39,241.85,189.27,234.27,191.63,224Z"/><path class="cls-18" d="M191.1,223.28l27.49,8.7q-6.32,23-21,34.1T160.29,277.3q-27.94,0-46-19.17c-12-12.67-18-30.12-18-52.18q0-35,18.1-54.39T162,132.12q25.74,0,41.83,15.23c6.39,6,11.17,14.63,14.36,25.85l-28.05,6.71a29.72,29.72,0,0,0-10.39-17.24c-5.26-4.23-11.65-6.28-19.19-6.28q-15.59,0-25.32,11.17t-9.72,36.24q0,26.65,9.58,38T160,253a28.54,28.54,0,0,0,19.44-7.15C184.86,241.13,188.74,233.55,191.1,223.28Z"/><path class="cls-19" d="M190.58,222.56l27.49,8.7q-6.33,23-21,34.1t-37.29,11.22q-27.94,0-46-19.17c-12-12.67-18-30.12-18-52.18q0-35,18.09-54.39t47.57-19.44q25.72,0,41.82,15.22c6.39,6,11.17,14.63,14.37,25.86l-28.06,6.71A29.72,29.72,0,0,0,179.23,162c-5.26-4.23-11.66-6.29-19.2-6.29q-15.59,0-25.31,11.18T125,203.08q0,26.65,9.58,37.95t24.89,11.28a28.52,28.52,0,0,0,19.43-7.14C184.33,240.4,188.21,232.82,190.58,222.56Z"/><path class="cls-20" d="M190.05,221.84l27.49,8.7q-6.33,23-21,34.1t-37.28,11.21q-28,0-46-19.16c-12-12.67-18-30.12-18-52.19q0-35,18.09-54.39T161,130.68q25.74,0,41.83,15.22c6.39,6,11.17,14.63,14.36,25.85l-28,6.72a29.69,29.69,0,0,0-10.39-17.24c-5.26-4.24-11.66-6.29-19.2-6.29q-15.58,0-25.31,11.18t-9.72,36.24q0,26.65,9.58,37.95t24.89,11.28a28.5,28.5,0,0,0,19.43-7.14C183.81,239.68,187.69,232.1,190.05,221.84Z"/><path class="cls-21" d="M189.52,221.12l27.49,8.7q-6.31,23-21,34.1t-37.29,11.21q-27.94,0-46-19.16c-12-12.67-18-30.12-18-52.19q0-35,18.09-54.39T160.42,130q25.74,0,41.83,15.22c6.39,6,11.17,14.63,14.36,25.85l-28.05,6.71a29.66,29.66,0,0,0-10.39-17.23c-5.26-4.24-11.65-6.29-19.19-6.29q-15.58,0-25.32,11.17t-9.72,36.24q0,26.67,9.58,38t24.89,11.28a28.49,28.49,0,0,0,19.44-7.15C183.28,239,187.16,231.38,189.52,221.12Z"/><path class="cls-22" d="M189,220.4l27.49,8.7q-6.33,23-21,34.1t-37.29,11.21q-27.94,0-46-19.16c-12-12.68-18-30.12-18-52.19q0-35,18.09-54.39t47.57-19.43q25.72,0,41.82,15.22c6.39,6,11.17,14.63,14.37,25.85L188,177a29.7,29.7,0,0,0-10.38-17.23c-5.26-4.24-11.66-6.29-19.2-6.29q-15.58,0-25.31,11.17t-9.72,36.24q0,26.66,9.58,38t24.89,11.28A28.48,28.48,0,0,0,177.32,243C182.75,238.24,186.63,230.66,189,220.4Z"/><path class="cls-23" d="M188.47,219.67l27.49,8.7q-6.33,23-21,34.1t-37.28,11.22q-28,0-46-19.16c-12-12.68-18-30.13-18-52.19q0-35,18.1-54.39t47.56-19.44q25.74,0,41.83,15.23,9.59,9,14.36,25.85l-28.05,6.71a29.72,29.72,0,0,0-10.39-17.24c-5.26-4.23-11.66-6.29-19.2-6.29q-15.57,0-25.31,11.18t-9.72,36.24q0,26.66,9.58,38t24.89,11.27a28.5,28.5,0,0,0,19.43-7.14C182.23,237.51,186.11,229.94,188.47,219.67Z"/><path class="cls-24" d="M188,219l27.48,8.7q-6.31,23-21,34.1T157.13,273q-27.94,0-46-19.16c-12-12.67-18-30.12-18-52.18q0-35,18.09-54.4t47.57-19.43q25.72,0,41.82,15.22c6.39,6,11.17,14.63,14.37,25.86L187,175.58a29.69,29.69,0,0,0-10.39-17.24c-5.26-4.23-11.65-6.29-19.19-6.29q-15.59,0-25.31,11.18t-9.72,36.24q0,26.66,9.57,37.95t24.89,11.28a28.53,28.53,0,0,0,19.44-7.14C181.7,236.79,185.58,229.21,188,219Z"/><path class="cls-25" d="M187.42,218.23l27.49,8.7q-6.33,23-21,34.1T156.6,272.24q-27.94,0-46-19.16c-12-12.67-18-30.12-18-52.19q0-35,18.09-54.39t47.57-19.43q25.74,0,41.82,15.22c6.39,6,11.18,14.63,14.37,25.85l-28.06,6.72a29.72,29.72,0,0,0-10.38-17.24c-5.26-4.24-11.66-6.29-19.2-6.29q-15.59,0-25.31,11.18t-9.72,36.24q0,26.66,9.58,37.95T156.31,248a28.52,28.52,0,0,0,19.43-7.14C181.17,236.07,185.05,228.49,187.42,218.23Z"/><path class="cls-26" d="M186.89,217.51l27.49,8.7q-6.33,22.95-21,34.1t-37.28,11.21q-27.95,0-46-19.16c-12-12.68-18-30.12-18-52.19q0-35,18.1-54.39t47.56-19.43q25.74,0,41.83,15.22c6.39,6,11.17,14.63,14.36,25.85l-28,6.71a29.66,29.66,0,0,0-10.39-17.23c-5.26-4.24-11.66-6.29-19.2-6.29q-15.57,0-25.31,11.17T121.31,198q0,26.66,9.58,37.95t24.89,11.28a28.46,28.46,0,0,0,19.43-7.15C180.65,235.35,184.53,227.77,186.89,217.51Z"/><path class="cls-27" d="M186.37,216.79l27.48,8.7q-6.32,22.95-21,34.1T155.55,270.8q-27.95,0-46-19.16c-12-12.68-18-30.12-18-52.19q0-35,18.09-54.39t47.57-19.43q25.72,0,41.82,15.22c6.39,6,11.17,14.63,14.37,25.85l-28.06,6.71A29.7,29.7,0,0,0,175,156.18c-5.27-4.24-11.66-6.29-19.2-6.29q-15.58,0-25.31,11.17t-9.72,36.24q0,26.65,9.58,38t24.88,11.28a28.49,28.49,0,0,0,19.44-7.15C180.12,234.62,184,227.05,186.37,216.79Z"/><path class="cls-28" d="M185.84,216.06l27.49,8.7q-6.33,23-21,34.1T155,270.07q-27.95,0-46-19.15c-12-12.68-18-30.13-18-52.19q0-35,18.09-54.4t47.57-19.43q25.74,0,41.82,15.23,9.58,9,14.37,25.85l-28.05,6.71a29.79,29.79,0,0,0-10.39-17.24c-5.26-4.23-11.66-6.29-19.2-6.29q-15.58,0-25.31,11.18t-9.72,36.24q0,26.65,9.58,38t24.89,11.27a28.52,28.52,0,0,0,19.43-7.14C179.6,233.9,183.48,226.33,185.84,216.06Z"/><path class="cls-29" d="M185.31,215.34,212.8,224q-6.33,23-21,34.1T154.5,269.35q-27.94,0-46-19.16c-12-12.67-18-30.12-18-52.18q0-35,18.1-54.4t47.56-19.43q25.74,0,41.83,15.22c6.39,6,11.17,14.63,14.36,25.86L184.35,172A29.69,29.69,0,0,0,174,154.73c-5.26-4.23-11.66-6.29-19.19-6.29q-15.59,0-25.32,11.18t-9.72,36.24q0,26.65,9.58,37.95t24.89,11.28A28.55,28.55,0,0,0,173.64,238C179.07,233.18,183,225.6,185.31,215.34Z"/><path class="cls-30" d="M184.79,214.62l27.49,8.7q-6.33,23-21,34.1T154,268.63q-27.94,0-46-19.16c-12-12.67-18-30.12-18-52.19q0-35,18.09-54.39t47.57-19.43q25.73,0,41.82,15.22c6.39,6,11.17,14.63,14.37,25.85l-28.06,6.72A29.72,29.72,0,0,0,173.44,154c-5.26-4.24-11.66-6.29-19.2-6.29q-15.59,0-25.31,11.18t-9.72,36.24q0,26.66,9.58,38t24.88,11.28a28.53,28.53,0,0,0,19.44-7.14C178.54,232.46,182.42,224.88,184.79,214.62Z"/><path class="cls-31" d="M184.26,213.9l27.49,8.7q-6.33,23-21,34.1t-37.29,11.21q-27.94,0-46-19.16c-12-12.68-18-30.12-18-52.19q0-35,18.09-54.39t47.57-19.43q25.74,0,41.83,15.22c6.39,6,11.17,14.63,14.36,25.85l-28,6.71a29.76,29.76,0,0,0-10.39-17.23c-5.26-4.24-11.66-6.29-19.2-6.29q-15.59,0-25.31,11.17t-9.72,36.25q0,26.66,9.58,38t24.89,11.28a28.48,28.48,0,0,0,19.43-7.15C178,231.74,181.9,224.16,184.26,213.9Z"/><path class="cls-32" d="M183.73,213.18l27.49,8.7q-6.32,23-21,34.1t-37.28,11.21q-27.94,0-46-19.16c-12-12.68-18-30.12-18-52.19q0-35,18.1-54.39T154.63,122q25.74,0,41.83,15.22c6.39,6,11.17,14.63,14.37,25.85l-28.06,6.71a29.66,29.66,0,0,0-10.39-17.23c-5.26-4.24-11.65-6.3-19.19-6.3q-15.58,0-25.32,11.18t-9.72,36.24q0,26.66,9.58,38t24.89,11.28a28.51,28.51,0,0,0,19.44-7.15C177.49,231,181.37,223.44,183.73,213.18Z"/><path class="cls-32" d="M183.21,212.45l27.49,8.7q-6.33,23-21,34.11t-37.29,11.2q-27.94,0-46-19.15c-12-12.68-18-30.13-18-52.19q0-35,18.09-54.4t47.57-19.43q25.72,0,41.82,15.23,9.58,9,14.37,25.85l-28.06,6.71a29.72,29.72,0,0,0-10.38-17.24c-5.26-4.23-11.66-6.29-19.2-6.29q-15.58,0-25.31,11.18T117.63,193q0,26.66,9.58,37.95T152.1,242.2a28.47,28.47,0,0,0,19.43-7.14C177,230.29,180.84,222.72,183.21,212.45Z"/><path class="cls-33" d="M182.68,211.73l27.49,8.7q-6.33,23-21,34.1t-37.28,11.21q-28,0-46-19.16c-12-12.67-18-30.12-18-52.18q0-35,18.09-54.4t47.57-19.43q25.74,0,41.83,15.22c6.39,6,11.17,14.63,14.36,25.86l-28.05,6.71a29.74,29.74,0,0,0-10.39-17.24c-5.26-4.23-11.66-6.29-19.2-6.29q-15.58,0-25.31,11.18t-9.72,36.24q0,26.66,9.58,37.95t24.89,11.28A28.52,28.52,0,0,0,171,234.34C176.44,229.57,180.32,222,182.68,211.73Z"/><path class="cls-34" d="M182.15,211l27.49,8.7q-6.31,23-21,34.1T151.34,265q-27.94,0-46-19.16c-12-12.67-18-30.12-18-52.19q0-35,18.1-54.39t47.56-19.43q25.74,0,41.83,15.22c6.39,6,11.17,14.63,14.37,25.85l-28.06,6.72A29.66,29.66,0,0,0,170.8,150.4c-5.26-4.23-11.65-6.29-19.19-6.29q-15.59,0-25.31,11.18t-9.72,36.24q0,26.66,9.57,37.95T151,240.76a28.51,28.51,0,0,0,19.44-7.15C175.91,228.85,179.79,221.27,182.15,211Z"/><path class="cls-35" d="M181.63,210.29l27.49,8.7q-6.33,22.95-21,34.1T150.81,264.3q-27.94,0-46-19.16c-12-12.68-18-30.12-18-52.19q0-35,18.09-54.39t47.57-19.43q25.74,0,41.82,15.22c6.39,6,11.18,14.63,14.37,25.85l-28.06,6.71a29.7,29.7,0,0,0-10.38-17.23c-5.26-4.24-11.66-6.3-19.2-6.3q-15.59,0-25.31,11.18t-9.72,36.25q0,26.66,9.58,37.95T150.52,240A28.48,28.48,0,0,0,170,232.89C175.38,228.12,179.26,220.55,181.63,210.29Z"/><path class="cls-36" d="M181.1,209.56l27.49,8.71q-6.33,22.95-21,34.1t-37.28,11.2q-28,0-46-19.15c-12-12.68-18-30.12-18-52.19q0-35,18.09-54.4T152,118.41q25.74,0,41.83,15.22,9.58,9,14.36,25.85l-28.05,6.71A29.66,29.66,0,0,0,169.75,149c-5.26-4.24-11.66-6.3-19.2-6.3q-15.59,0-25.31,11.18t-9.72,36.24q0,26.65,9.58,38T150,239.32a28.48,28.48,0,0,0,19.43-7.15C174.86,227.4,178.74,219.83,181.1,209.56Z"/><path class="cls-37" d="M180.57,208.84l27.49,8.7q-6.31,23-21,34.11t-37.29,11.2q-27.94,0-46-19.15c-12-12.68-18-30.13-18-52.19q0-35,18.09-54.4t47.56-19.43q25.74,0,41.83,15.23,9.58,9,14.37,25.85l-28.06,6.71a29.72,29.72,0,0,0-10.38-17.24c-5.27-4.23-11.66-6.29-19.2-6.29q-15.59,0-25.31,11.18T115,189.36q0,26.65,9.57,37.95t24.89,11.28a28.48,28.48,0,0,0,19.44-7.14C174.33,226.68,178.21,219.11,180.57,208.84Z"/><path class="cls-38" d="M180.05,208.12l27.49,8.7q-6.33,23-21,34.1t-37.29,11.21q-27.94,0-46-19.15c-12-12.68-18-30.13-18-52.19q0-35,18.09-54.4T151,117q25.74,0,41.83,15.22c6.38,6,11.17,14.63,14.36,25.86l-28,6.71a29.79,29.79,0,0,0-10.39-17.24c-5.26-4.23-11.66-6.29-19.2-6.29q-15.58,0-25.31,11.18t-9.72,36.24q0,26.66,9.58,38t24.89,11.28a28.52,28.52,0,0,0,19.43-7.14C173.8,226,177.68,218.38,180.05,208.12Z"/><path class="cls-39" d="M179.52,207.4,207,216.1q-6.33,23-21,34.1t-37.28,11.21q-28,0-46-19.16c-12-12.68-18-30.12-18-52.19q0-35,18.1-54.39t47.56-19.43q25.74,0,41.83,15.22c6.39,6,11.17,14.63,14.36,25.85L178.56,164a29.66,29.66,0,0,0-10.39-17.24c-5.26-4.23-11.66-6.29-19.19-6.29q-15.58,0-25.32,11.18t-9.72,36.24q0,26.66,9.58,38t24.89,11.28A28.46,28.46,0,0,0,167.84,230C173.28,225.23,177.16,217.66,179.52,207.4Z"/><path class="cls-40" d="M179,206.68l27.48,8.7q-6.31,23-21,34.1t-37.29,11.2q-27.94,0-46-19.15c-12-12.68-18-30.12-18-52.19q0-35,18.09-54.39t47.57-19.43q25.72,0,41.82,15.22c6.39,6,11.17,14.63,14.37,25.85L178,163.3a29.7,29.7,0,0,0-10.38-17.23c-5.26-4.24-11.66-6.3-19.2-6.3q-15.58,0-25.31,11.18t-9.72,36.25q0,26.66,9.57,38t24.89,11.28a28.49,28.49,0,0,0,19.44-7.15C172.75,224.51,176.63,216.94,179,206.68Z"/><path class="cls-41" d="M178.47,206,206,214.66q-6.33,23-21,34.1T147.65,260q-27.94,0-46-19.15c-12-12.68-18-30.12-18-52.19q0-35,18.09-54.4t47.57-19.42q25.74,0,41.83,15.22,9.57,9,14.36,25.85l-28.05,6.71a29.73,29.73,0,0,0-10.39-17.23c-5.26-4.24-11.66-6.3-19.2-6.3q-15.58,0-25.31,11.18t-9.72,36.25q0,26.64,9.58,38t24.89,11.28a28.48,28.48,0,0,0,19.43-7.15C172.22,223.79,176.1,216.22,178.47,206Z"/><path class="cls-42" d="M177.94,205.23l27.49,8.71q-6.33,23-21,34.1t-37.28,11.2q-27.94,0-46-19.15c-12-12.68-18-30.13-18-52.19q0-35,18.1-54.4t47.56-19.43q25.74,0,41.83,15.23,9.59,9,14.37,25.85L177,161.86a29.69,29.69,0,0,0-10.39-17.24c-5.26-4.23-11.66-6.29-19.19-6.29q-15.59,0-25.31,11.18t-9.72,36.24q0,26.66,9.57,37.95T146.83,235a28.46,28.46,0,0,0,19.43-7.14C171.7,223.07,175.58,215.5,177.94,205.23Z"/><path class="cls-42" d="M177.42,204.51l27.48,8.7q-6.32,23-21,34.1T146.6,258.52q-27.94,0-46-19.15c-12-12.68-18-30.13-18-52.19q0-35,18.09-54.4t47.57-19.43q25.74,0,41.82,15.22c6.39,6,11.17,14.63,14.37,25.86l-28.06,6.71a29.72,29.72,0,0,0-10.38-17.24c-5.26-4.23-11.66-6.29-19.2-6.29q-15.59,0-25.31,11.18T111.84,185q0,26.66,9.58,37.95t24.88,11.28a28.53,28.53,0,0,0,19.44-7.14C171.17,222.35,175.05,214.77,177.42,204.51Z"/><path class="cls-43" d="M176.89,203.79l27.49,8.7q-6.33,23-21,34.1T146.07,257.8q-27.94,0-46-19.16c-12-12.68-18-30.12-18-52.19q0-35,18.09-54.39t47.57-19.43q25.74,0,41.83,15.22c6.38,6,11.17,14.63,14.36,25.85l-28,6.72a29.76,29.76,0,0,0-10.39-17.24c-5.26-4.23-11.66-6.3-19.2-6.3q-15.59,0-25.31,11.19t-9.72,36.24q0,26.66,9.58,37.95t24.89,11.28a28.48,28.48,0,0,0,19.43-7.15C170.64,221.62,174.53,214.05,176.89,203.79Z"/><path class="cls-44" d="M176.36,203.07l27.49,8.7q-6.33,22.95-21,34.1t-37.28,11.2q-27.95,0-46-19.15c-12-12.68-18-30.12-18-52.19q0-35,18.1-54.4t47.56-19.42q25.74,0,41.83,15.22c6.39,6,11.17,14.63,14.37,25.85l-28.06,6.71A29.66,29.66,0,0,0,165,142.46c-5.26-4.24-11.66-6.3-19.19-6.3q-15.58,0-25.31,11.18t-9.72,36.25q0,26.66,9.57,37.95t24.89,11.28a28.51,28.51,0,0,0,19.44-7.15C170.12,220.9,174,213.33,176.36,203.07Z"/><path class="cls-45" d="M175.84,202.34l27.49,8.71q-6.33,22.95-21,34.1T145,256.35q-27.95,0-46-19.15c-12-12.68-18-30.12-18-52.19q0-35,18.09-54.4t47.57-19.42q25.74,0,41.82,15.22,9.58,9,14.37,25.85L174.88,159a29.73,29.73,0,0,0-10.39-17.23c-5.26-4.24-11.66-6.3-19.2-6.3q-15.58,0-25.31,11.18t-9.72,36.25q0,26.64,9.58,37.94t24.88,11.29A28.49,28.49,0,0,0,164.16,225C169.59,220.18,173.47,212.61,175.84,202.34Z"/><path class="cls-46" d="M175.31,201.62l27.49,8.71q-6.33,22.95-21,34.1t-37.29,11.2q-27.95,0-46-19.15c-12-12.68-18-30.13-18-52.19q0-35,18.09-54.4t47.57-19.43q25.74,0,41.83,15.23,9.59,9,14.36,25.85l-28.05,6.71A29.79,29.79,0,0,0,164,141c-5.26-4.23-11.66-6.29-19.19-6.29q-15.6,0-25.32,11.18t-9.72,36.24q0,26.66,9.58,38t24.89,11.28a28.47,28.47,0,0,0,19.43-7.14C169.07,219.46,173,211.89,175.31,201.62Z"/><path class="cls-47" d="M174.78,200.9l27.49,8.7q-6.32,23-21,34.11T144,254.91q-27.94,0-46-19.15c-12-12.68-18-30.13-18-52.19q0-35,18.1-54.4t47.56-19.43q25.74,0,41.83,15.22c6.39,6,11.17,14.63,14.37,25.86l-28.06,6.71a29.69,29.69,0,0,0-10.38-17.24c-5.27-4.23-11.66-6.29-19.2-6.29q-15.59,0-25.31,11.18t-9.72,36.24q0,26.66,9.57,38t24.89,11.28a28.51,28.51,0,0,0,19.44-7.15C168.54,218.73,172.42,211.16,174.78,200.9Z"/><path class="cls-48" d="M174.26,200.18l27.49,8.7q-6.33,23-21,34.1t-37.29,11.2q-27.94,0-46-19.14c-12-12.69-18-30.13-18-52.2q0-35,18.09-54.4T145.16,109q25.74,0,41.83,15.22c6.38,6,11.17,14.63,14.36,25.85l-28,6.71a29.76,29.76,0,0,0-10.39-17.23c-5.26-4.23-11.66-6.3-19.2-6.3q-15.59,0-25.31,11.19t-9.72,36.24q0,26.66,9.58,38t24.88,11.28a28.49,28.49,0,0,0,19.44-7.15C168,218,171.89,210.44,174.26,200.18Z"/><path class="cls-49" d="M173.73,199.45l27.49,8.71q-6.33,23-21,34.1t-37.28,11.2q-28,0-46-19.15c-12-12.68-18-30.12-18-52.19q0-35,18.09-54.4t47.57-19.42q25.74,0,41.83,15.22,9.58,9,14.36,25.85l-28,6.71a29.76,29.76,0,0,0-10.39-17.23c-5.26-4.23-11.66-6.3-19.19-6.3q-15.6,0-25.32,11.18T108.15,180q0,26.64,9.58,38t24.89,11.28a28.48,28.48,0,0,0,19.43-7.15C167.49,217.29,171.37,209.72,173.73,199.45Z"/><path class="cls-50" d="M173.2,198.73l27.49,8.71q-6.31,23-21,34.1t-37.28,11.2q-27.94,0-46-19.15c-12-12.68-18-30.12-18-52.19q0-35,18.1-54.4t47.56-19.42q25.74,0,41.83,15.22,9.58,9,14.37,25.85l-28.06,6.71a29.67,29.67,0,0,0-10.38-17.23c-5.26-4.24-11.66-6.3-19.2-6.3q-15.58,0-25.31,11.18t-9.72,36.25q0,26.64,9.57,37.94t24.89,11.29a28.51,28.51,0,0,0,19.44-7.15C167,216.57,170.84,209,173.2,198.73Z"/><path class="cls-51" d="M172.68,198l27.49,8.71q-6.33,23-21,34.1T141.86,252q-27.95,0-46-19.15c-12-12.68-18-30.13-18-52.19q0-35,18.09-54.4t47.57-19.43q25.74,0,41.83,15.23,9.57,9,14.36,25.85l-28.05,6.71a29.79,29.79,0,0,0-10.39-17.24c-5.26-4.23-11.66-6.29-19.2-6.29q-15.58,0-25.31,11.18t-9.72,36.25q0,26.64,9.58,37.94t24.89,11.28A28.47,28.47,0,0,0,161,220.62C166.43,215.84,170.31,208.28,172.68,198Z"/><path class="cls-52" d="M172.15,197.29l27.49,8.7q-6.33,23-21,34.11t-37.28,11.2q-28,0-46-19.15c-12-12.69-18-30.13-18-52.19q0-35,18.09-54.4t47.57-19.43q25.74,0,41.83,15.22c6.39,6,11.17,14.63,14.37,25.86l-28.06,6.71a29.71,29.71,0,0,0-10.39-17.24c-5.26-4.23-11.66-6.3-19.19-6.3q-15.6,0-25.31,11.19t-9.72,36.24q0,26.66,9.57,37.95T141,227a28.43,28.43,0,0,0,19.43-7.15C165.91,215.12,169.79,207.55,172.15,197.29Z"/><path class="cls-53" d="M171.62,196.57l27.49,8.7q-6.31,23-21,34.1t-37.29,11.2q-27.94,0-46-19.14c-12-12.69-18-30.13-18-52.2q0-35,18.1-54.4t47.56-19.42q25.75,0,41.83,15.22c6.39,6,11.18,14.63,14.37,25.85l-28.06,6.71A29.7,29.7,0,0,0,160.28,136c-5.26-4.23-11.66-6.3-19.2-6.3q-15.59,0-25.31,11.19t-9.72,36.24q0,26.66,9.57,37.95t24.89,11.28A28.49,28.49,0,0,0,160,219.17C165.38,214.4,169.26,206.83,171.62,196.57Z"/><path class="cls-54" d="M171.1,195.84l27.49,8.71q-6.33,22.95-21,34.1t-37.29,11.2q-27.94,0-46-19.15c-12-12.68-18-30.12-18-52.19q0-35,18.09-54.4T142,104.69q25.74,0,41.83,15.22,9.57,9,14.36,25.85l-28.05,6.71a29.76,29.76,0,0,0-10.39-17.23c-5.26-4.23-11.66-6.3-19.2-6.3q-15.59,0-25.31,11.18t-9.72,36.25q0,26.64,9.58,37.95T140,225.6a28.48,28.48,0,0,0,19.43-7.15C164.85,213.68,168.73,206.11,171.1,195.84Z"/><path class="cls-55" d="M170.57,195.12l27.49,8.71q-6.33,22.95-21,34.1t-37.28,11.2q-28,0-46-19.15c-12-12.68-18-30.12-18-52.19q0-35,18.1-54.4T141.47,104q25.74,0,41.83,15.22,9.58,9,14.37,25.85l-28.06,6.71a29.63,29.63,0,0,0-10.39-17.23c-5.26-4.24-11.66-6.3-19.19-6.3q-15.59,0-25.31,11.18T105,175.65q0,26.64,9.57,37.94t24.89,11.29a28.48,28.48,0,0,0,19.43-7.15C164.33,213,168.21,205.39,170.57,195.12Z"/><path class="cls-56" d="M170.05,194.4l27.48,8.71q-6.32,22.95-21,34.1t-37.29,11.2q-27.94,0-46-19.15c-12-12.68-18-30.13-18-52.19q0-35,18.09-54.4T141,103.24q25.74,0,41.82,15.23,9.58,9,14.37,25.85l-28,6.71a29.79,29.79,0,0,0-10.39-17.24c-5.26-4.23-11.66-6.29-19.2-6.29q-15.58,0-25.31,11.18t-9.72,36.25q0,26.64,9.57,37.94t24.89,11.28A28.48,28.48,0,0,0,158.37,217C163.8,212.23,167.68,204.67,170.05,194.4Z"/><path class="cls-56" d="M169.52,193.68l27.49,8.7q-6.33,23-21,34.11T138.7,247.68q-27.94,0-46-19.14c-12-12.69-18-30.13-18-52.19q0-35,18.09-54.41t47.57-19.42q25.74,0,41.83,15.22c6.38,6,11.17,14.63,14.36,25.86l-28.05,6.71a29.76,29.76,0,0,0-10.39-17.24c-5.26-4.23-11.66-6.3-19.19-6.3q-15.6,0-25.32,11.19t-9.72,36.24q0,26.66,9.58,38t24.89,11.28a28.43,28.43,0,0,0,19.43-7.15C163.27,211.51,167.15,203.94,169.52,193.68Z"/><path class="cls-57" d="M169,193l27.49,8.7q-6.33,23-21,34.1T138.18,247q-27.95,0-46-19.14c-12-12.69-18-30.13-18-52.2q0-35,18.1-54.4t47.56-19.42q25.74,0,41.83,15.22c6.39,6,11.17,14.63,14.37,25.85L168,149.58a29.7,29.7,0,0,0-10.38-17.23c-5.27-4.23-11.67-6.3-19.2-6.3q-15.58,0-25.31,11.19t-9.72,36.24q0,26.66,9.57,38t24.89,11.28a28.46,28.46,0,0,0,19.43-7.15C162.75,210.79,166.63,203.22,169,193Z"/><path class="cls-58" d="M168.47,192.23,196,200.94q-6.31,23-21,34.1t-37.29,11.2q-27.95,0-46-19.14c-12-12.69-18-30.13-18-52.2q0-35,18.09-54.4t47.57-19.42q25.74,0,41.83,15.22,9.57,9,14.36,25.85l-28.05,6.71a29.73,29.73,0,0,0-10.39-17.23c-5.26-4.23-11.66-6.3-19.2-6.3q-15.58,0-25.31,11.18t-9.72,36.25q0,26.64,9.58,37.94T137.35,222a28.49,28.49,0,0,0,19.44-7.15C162.22,210.07,166.1,202.5,168.47,192.23Z"/><path class="cls-59" d="M167.94,191.51l27.49,8.71q-6.33,23-21,34.1t-37.29,11.2q-27.95,0-46-19.15c-12-12.68-18-30.12-18-52.19q0-35,18.09-54.4t47.57-19.42q25.74,0,41.83,15.22,9.57,9,14.37,25.85L167,148.14a29.73,29.73,0,0,0-10.39-17.23c-5.26-4.24-11.66-6.3-19.19-6.3q-15.6,0-25.32,11.18T102.36,172q0,26.64,9.58,37.94t24.89,11.29a28.48,28.48,0,0,0,19.43-7.15C161.69,209.34,165.58,201.78,167.94,191.51Z"/><path class="cls-60" d="M167.41,190.79l27.49,8.71q-6.33,23-21,34.1T136.6,244.79q-27.94,0-46-19.14c-12-12.68-18-30.13-18-52.19q0-35,18.1-54.41t47.56-19.42q25.74,0,41.83,15.23,9.59,9,14.37,25.85l-28.06,6.71a29.67,29.67,0,0,0-10.38-17.23c-5.26-4.24-11.67-6.31-19.2-6.31q-15.59,0-25.31,11.19t-9.72,36.25q0,26.64,9.57,37.94t24.89,11.28a28.46,28.46,0,0,0,19.44-7.15C161.17,208.62,165.05,201.05,167.41,190.79Z"/><path class="cls-61" d="M166.89,190.07l27.49,8.7q-6.33,23-21,34.11t-37.29,11.19q-27.94,0-46-19.14c-12-12.69-18-30.13-18-52.19q0-35,18.09-54.41t47.57-19.42q25.74,0,41.83,15.22c6.38,6,11.17,14.63,14.36,25.86l-28,6.71a29.76,29.76,0,0,0-10.39-17.24c-5.26-4.23-11.66-6.3-19.2-6.3q-15.59,0-25.31,11.19t-9.72,36.24q0,26.66,9.58,37.95t24.88,11.28a28.44,28.44,0,0,0,19.44-7.15C160.64,207.9,164.52,200.33,166.89,190.07Z"/><path class="cls-62" d="M166.36,189.35l27.49,8.7q-6.33,23-21,34.11t-37.29,11.19q-27.94,0-46-19.14c-12-12.69-18-30.13-18-52.2q0-35,18.09-54.4t47.57-19.42q25.74,0,41.83,15.22,9.58,9,14.37,25.85L165.4,146A29.76,29.76,0,0,0,155,128.74c-5.26-4.23-11.66-6.3-19.19-6.3q-15.6,0-25.31,11.19t-9.72,36.24q0,26.65,9.57,37.95t24.89,11.28A28.48,28.48,0,0,0,154.68,212C160.11,207.18,164,199.61,166.36,189.35Z"/><path class="cls-63" d="M165.83,188.62l27.49,8.71q-6.31,22.95-21,34.1T135,242.63q-27.95,0-46-19.14c-12-12.69-18-30.13-18-52.2q0-35,18.1-54.4t47.56-19.42q25.76,0,41.83,15.22,9.58,9,14.37,25.85l-28.06,6.71A29.67,29.67,0,0,0,154.49,128c-5.26-4.23-11.66-6.3-19.2-6.3q-15.58,0-25.31,11.18t-9.72,36.25q0,26.64,9.57,37.94t24.89,11.29a28.51,28.51,0,0,0,19.44-7.15C159.59,206.45,163.47,198.89,165.83,188.62Z"/><path class="cls-64" d="M165.31,187.9l27.49,8.71q-6.33,22.95-21,34.1t-37.29,11.2q-27.95,0-46-19.15c-12-12.68-18-30.12-18-52.19q0-35,18.09-54.4t47.57-19.42Q162,96.75,178,112q9.57,9,14.36,25.85l-28.05,6.71A29.73,29.73,0,0,0,154,127.3c-5.26-4.23-11.66-6.31-19.2-6.31q-15.58,0-25.31,11.19t-9.72,36.25q0,26.64,9.58,37.94t24.88,11.29a28.49,28.49,0,0,0,19.44-7.15C159.06,205.73,162.94,198.17,165.31,187.9Z"/><path class="cls-65" d="M164.78,187.18l27.49,8.71q-6.33,23-21,34.1T134,241.18q-28,0-46-19.14c-12-12.69-18-30.13-18-52.19q0-35,18.09-54.41T135.68,96q25.74,0,41.83,15.23,9.59,9,14.37,25.85l-28.06,6.71a29.7,29.7,0,0,0-10.39-17.23c-5.26-4.24-11.66-6.31-19.19-6.31q-15.6,0-25.31,11.19t-9.72,36.25q0,26.64,9.57,37.94t24.89,11.28a28.43,28.43,0,0,0,19.43-7.15C158.53,205,162.42,197.44,164.78,187.18Z"/><path class="cls-66" d="M164.25,186.46l27.49,8.7q-6.31,23-21,34.11t-37.28,11.19q-27.94,0-46-19.14c-12-12.69-18-30.13-18-52.19q0-35,18.1-54.41T135.15,95.3q25.75,0,41.84,15.22c6.38,6,11.17,14.63,14.36,25.86l-28,6.71a29.76,29.76,0,0,0-10.39-17.24c-5.26-4.23-11.66-6.3-19.2-6.3q-15.59,0-25.31,11.19T98.68,167q0,26.64,9.57,37.94t24.89,11.28a28.46,28.46,0,0,0,19.44-7.15C158,204.29,161.89,196.72,164.25,186.46Z"/><path class="cls-67" d="M163.73,185.73l27.49,8.71q-6.33,23-21,34.11t-37.29,11.19q-27.94,0-46-19.14c-12-12.69-18-30.13-18-52.2q0-35,18.09-54.4t47.57-19.42q25.74,0,41.83,15.22,9.57,9,14.36,25.85l-28,6.71a29.76,29.76,0,0,0-10.39-17.23c-5.26-4.23-11.66-6.3-19.19-6.3q-15.6,0-25.32,11.19t-9.72,36.24q0,26.66,9.58,37.94t24.89,11.29a28.43,28.43,0,0,0,19.43-7.15C157.48,203.56,161.36,196,163.73,185.73Z"/><path class="cls-68" d="M163.2,185l27.49,8.71q-6.33,23-21,34.1T132.39,239q-28,0-46-19.14c-12-12.69-18-30.13-18-52.2q0-35,18.09-54.4T134.1,93.86q25.74,0,41.83,15.22,9.58,9,14.37,25.85l-28.06,6.71a29.77,29.77,0,0,0-10.38-17.23c-5.27-4.23-11.67-6.3-19.2-6.3q-15.6,0-25.31,11.18t-9.72,36.25q0,26.64,9.57,37.94t24.89,11.29a28.48,28.48,0,0,0,19.43-7.15C157,202.84,160.84,195.28,163.2,185Z"/><path class="cls-69" d="M162.67,184.29,190.16,193q-6.32,23-21,34.1t-37.29,11.19q-27.95,0-46-19.14c-12-12.68-18-30.12-18-52.19q0-35,18.1-54.41t47.56-19.41q25.76,0,41.84,15.22,9.57,9,14.36,25.85l-28.05,6.71a29.73,29.73,0,0,0-10.39-17.23c-5.26-4.23-11.66-6.31-19.2-6.31q-15.59,0-25.31,11.19T97.1,164.82q0,26.64,9.57,37.94t24.89,11.29A28.45,28.45,0,0,0,151,206.89C156.43,202.12,160.31,194.56,162.67,184.29Z"/><path class="cls-70" d="M162.15,183.57l27.49,8.71q-6.33,23-21,34.1t-37.29,11.19q-27.95,0-46-19.14c-12-12.69-18-30.13-18-52.19q0-35,18.09-54.41t47.57-19.42q25.74,0,41.83,15.23,9.57,9,14.37,25.85l-28.06,6.71A29.7,29.7,0,0,0,150.8,123c-5.26-4.24-11.66-6.31-19.19-6.31q-15.6,0-25.31,11.19T96.58,164.1q0,26.64,9.57,37.94T131,213.32a28.43,28.43,0,0,0,19.43-7.15C155.9,201.4,159.78,193.83,162.15,183.57Z"/><path class="cls-71" d="M161.62,182.85l27.49,8.7q-6.33,23-21,34.11t-37.28,11.19q-28,0-46-19.14c-12-12.69-18-30.13-18-52.19q0-35,18.1-54.41t47.56-19.42q25.74,0,41.83,15.22c6.39,6,11.17,14.63,14.37,25.86l-28.06,6.71a29.69,29.69,0,0,0-10.38-17.24c-5.26-4.23-11.67-6.3-19.2-6.3q-15.59,0-25.31,11.19t-9.72,36.25q0,26.64,9.57,37.94t24.89,11.28a28.43,28.43,0,0,0,19.43-7.15C155.38,200.68,159.26,193.11,161.62,182.85Z"/><path class="cls-72" d="M161.1,182.12l27.48,8.71q-6.32,23-21,34.11t-37.29,11.19q-27.94,0-46-19.14c-12-12.69-18-30.13-18-52.2q0-35,18.09-54.4T132,91q25.74,0,41.83,15.22,9.57,9,14.36,25.85l-28.05,6.71a29.73,29.73,0,0,0-10.39-17.23c-5.26-4.23-11.66-6.3-19.2-6.3q-15.59,0-25.31,11.19t-9.72,36.24q0,26.65,9.57,37.94T130,211.88a28.44,28.44,0,0,0,19.44-7.15C154.85,200,158.73,192.39,161.1,182.12Z"/><path class="cls-73" d="M160.57,181.4l27.49,8.71q-6.33,22.95-21,34.1T129.75,235.4q-27.94,0-46-19.13c-12-12.69-18-30.13-18-52.2q0-35,18.09-54.4t47.57-19.42q25.74,0,41.83,15.22,9.57,9,14.37,25.85L159.61,138a29.73,29.73,0,0,0-10.39-17.23c-5.26-4.23-11.66-6.31-19.19-6.31q-15.6,0-25.31,11.19T95,161.93q0,26.64,9.57,37.94t24.89,11.29A28.48,28.48,0,0,0,148.89,204C154.32,199.23,158.2,191.67,160.57,181.4Z"/><path class="cls-74" d="M160,180.68l27.49,8.71q-6.33,23-21,34.1t-37.28,11.19q-27.94,0-46-19.13c-12-12.69-18-30.13-18-52.2q0-35,18.1-54.41t47.56-19.41q25.76,0,41.83,15.22,9.58,9,14.37,25.85l-28.06,6.71a29.67,29.67,0,0,0-10.38-17.23c-5.26-4.23-11.67-6.31-19.2-6.31q-15.59,0-25.31,11.19t-9.72,36.25q0,26.64,9.57,37.94t24.89,11.29a28.44,28.44,0,0,0,19.43-7.16C153.8,198.51,157.68,191,160,180.68Z"/><path class="cls-75" d="M159.52,180,187,188.67q-6.31,23-21,34.1T128.7,234q-27.94,0-46-19.14c-12-12.69-18-30.13-18-52.19q0-35,18.09-54.41T130.42,88.8q25.74,0,41.83,15.23,9.57,9,14.36,25.85l-28.05,6.71a29.7,29.7,0,0,0-10.39-17.23c-5.26-4.24-11.66-6.31-19.19-6.31q-15.6,0-25.32,11.19t-9.72,36.25q0,26.64,9.58,37.94t24.88,11.28a28.44,28.44,0,0,0,19.44-7.15C153.27,197.79,157.15,190.22,159.52,180Z"/><path class="cls-76" d="M159,179.24l27.49,8.7q-6.33,23-21,34.11t-37.29,11.19q-27.94,0-46-19.14c-12-12.69-18-30.13-18-52.19q0-35,18.09-54.41t47.57-19.42q25.74,0,41.83,15.22,9.57,9,14.37,25.86L158,135.87a29.76,29.76,0,0,0-10.39-17.24c-5.26-4.23-11.66-6.3-19.19-6.3q-15.6,0-25.31,11.19t-9.72,36.25q0,26.64,9.57,37.94T127.88,209a28.43,28.43,0,0,0,19.43-7.15C152.74,197.06,156.63,189.5,159,179.24Z"/><path class="cls-77" d="M158.46,178.51,186,187.22q-6.33,23-21,34.11t-37.28,11.19q-27.95,0-46-19.14c-12-12.69-18-30.13-18-52.2q0-35,18.1-54.4t47.56-19.42q25.75,0,41.84,15.22,9.57,9,14.36,25.85l-28.05,6.71a29.73,29.73,0,0,0-10.39-17.23c-5.26-4.23-11.67-6.3-19.2-6.3q-15.58,0-25.31,11.19t-9.72,36.25q0,26.64,9.57,37.93t24.89,11.29a28.48,28.48,0,0,0,19.44-7.15C152.22,196.34,156.1,188.78,158.46,178.51Z"/><path class="cls-78" d="M157.94,177.79l27.48,8.71q-6.31,23-21,34.11t-37.29,11.18q-27.95,0-46-19.13c-12-12.69-18-30.13-18-52.2q0-35,18.09-54.41t47.57-19.41q25.74,0,41.83,15.22,9.57,9,14.36,25.85L157,134.42a29.73,29.73,0,0,0-10.39-17.23c-5.26-4.23-11.66-6.31-19.19-6.31q-15.6,0-25.32,11.19t-9.72,36.25q0,26.64,9.58,37.94t24.88,11.29a28.49,28.49,0,0,0,19.44-7.15C151.69,195.62,155.57,188.06,157.94,177.79Z"/><path class="cls-79" d="M157.41,177.07l27.49,8.71q-6.33,23-21,34.1t-37.29,11.19q-27.95,0-46-19.13t-18-52.2q0-35,18.09-54.41t47.57-19.41q25.74,0,41.83,15.22,9.59,9,14.37,25.85l-28.06,6.71a29.74,29.74,0,0,0-10.38-17.23c-5.27-4.23-11.67-6.31-19.2-6.31q-15.6,0-25.31,11.19T91.84,157.6q0,26.64,9.57,37.94t24.89,11.29a28.44,28.44,0,0,0,19.43-7.16C151.16,194.9,155.05,187.34,157.41,177.07Z"/><path class="cls-80" d="M156.88,176.35l27.49,8.71q-6.31,23-21,34.1t-37.28,11.19q-27.94,0-46-19.14c-12-12.69-18-30.13-18-52.19q0-35,18.1-54.41t47.56-19.42q25.75,0,41.84,15.23,9.57,9,14.36,25.85l-28,6.71a29.7,29.7,0,0,0-10.39-17.23c-5.26-4.23-11.66-6.31-19.2-6.31q-15.59,0-25.31,11.19t-9.72,36.25q0,26.64,9.57,37.94t24.89,11.28A28.46,28.46,0,0,0,145.21,199C150.64,194.17,154.52,186.61,156.88,176.35Z"/><path class="cls-81" d="M156.36,175.62l27.49,8.71q-6.33,23-21,34.11t-37.29,11.19q-27.95,0-46-19.14c-12-12.69-18-30.13-18-52.19q0-35,18.09-54.41t47.57-19.42q25.74,0,41.83,15.22,9.57,9,14.37,25.86l-28.06,6.71A29.76,29.76,0,0,0,145,115c-5.26-4.23-11.66-6.3-19.19-6.3q-15.6,0-25.31,11.19t-9.72,36.25q0,26.64,9.57,37.93t24.88,11.29a28.44,28.44,0,0,0,19.44-7.15C150.11,193.45,154,185.89,156.36,175.62Z"/><path class="cls-82" d="M155.83,174.9l27.49,8.71q-6.33,23-21,34.11T125,228.9q-28,0-46-19.13c-12-12.69-18-30.13-18-52.2q0-35,18.09-54.41t47.57-19.41q25.76,0,41.83,15.22,9.58,9,14.37,25.85l-28.06,6.71a29.77,29.77,0,0,0-10.38-17.23c-5.26-4.23-11.67-6.31-19.2-6.31q-15.6,0-25.31,11.2t-9.72,36.25q0,26.64,9.57,37.93t24.89,11.29a28.43,28.43,0,0,0,19.43-7.15C149.58,192.73,153.47,185.17,155.83,174.9Z"/><path class="cls-83" d="M155.3,174.18l27.49,8.71q-6.31,23-21,34.11t-37.28,11.18q-27.94,0-46-19.13c-12-12.69-18-30.13-18-52.2q0-35,18.1-54.41T126.2,83Q152,83,168,98.25q9.57,9,14.36,25.85l-28.05,6.71A29.73,29.73,0,0,0,144,113.58c-5.26-4.23-11.66-6.31-19.2-6.31q-15.58,0-25.31,11.19t-9.72,36.25q0,26.64,9.57,37.94t24.89,11.29a28.47,28.47,0,0,0,19.44-7.16C149.06,192,152.94,184.45,155.3,174.18Z"/><path class="cls-84" d="M154.78,173.46l27.49,8.71q-6.33,23-21,34.1T124,227.46q-27.94,0-46-19.13t-18-52.2q0-35,18.09-54.41t47.57-19.41q25.74,0,41.83,15.22,9.57,9,14.37,25.85l-28.06,6.71a29.7,29.7,0,0,0-10.39-17.23c-5.26-4.23-11.66-6.31-19.19-6.31q-15.6,0-25.31,11.19T89.21,154q0,26.64,9.57,37.94t24.89,11.29a28.44,28.44,0,0,0,19.43-7.16Q151.25,188.89,154.78,173.46Z"/><path class="cls-85" d="M154.25,172.74l27.49,8.71q-6.33,23-21,34.1t-37.28,11.19q-28,0-46-19.13c-12-12.7-18-30.14-18-52.2q0-35,18.09-54.41t47.57-19.42q25.75,0,41.83,15.23,9.59,9,14.37,25.85l-28,6.71a29.8,29.8,0,0,0-10.39-17.23c-5.26-4.23-11.67-6.31-19.2-6.31q-15.6,0-25.31,11.19t-9.72,36.25q0,26.64,9.57,37.94t24.89,11.28a28.43,28.43,0,0,0,19.43-7.15C148,190.56,151.89,183,154.25,172.74Z"/><path class="cls-86" d="M153.72,172l27.49,8.71q-6.32,23-21,34.11T122.91,226Q95,226,77,206.88c-12-12.69-18-30.13-18-52.19q0-35,18.1-54.41t47.56-19.42q25.75,0,41.84,15.22,9.57,9,14.36,25.86l-28,6.71a29.76,29.76,0,0,0-10.39-17.24c-5.26-4.23-11.66-6.3-19.19-6.3q-15.6,0-25.32,11.19t-9.72,36.25q0,26.64,9.57,37.93t24.89,11.29a28.44,28.44,0,0,0,19.44-7.15C147.48,189.84,151.36,182.28,153.72,172Z"/><path class="cls-87" d="M153.2,171.29,180.69,180q-6.33,23-21,34.11t-37.29,11.18q-27.94,0-46-19.13c-12-12.69-18-30.13-18-52.2q0-35,18.09-54.41T124.1,80.14q25.74,0,41.83,15.22,9.57,9,14.37,25.85l-28.06,6.71a29.73,29.73,0,0,0-10.39-17.23c-5.26-4.23-11.66-6.31-19.19-6.31q-15.6,0-25.31,11.2t-9.72,36.25q0,26.64,9.57,37.93t24.89,11.29a28.43,28.43,0,0,0,19.43-7.15C147,189.12,150.83,181.56,153.2,171.29Z"/><path class="cls-88" d="M152.67,170.57l27.49,8.71q-6.33,23-21,34.11t-37.28,11.18q-28,0-46-19.13c-12-12.69-18-30.13-18-52.2q0-35,18.1-54.41t47.56-19.41q25.76,0,41.84,15.22,9.57,9,14.36,25.85l-28.05,6.71A29.78,29.78,0,0,0,141.33,110c-5.26-4.23-11.67-6.31-19.2-6.31q-15.59,0-25.31,11.19T87.1,151.1q0,26.64,9.57,37.94t24.89,11.29A28.4,28.4,0,0,0,141,193.17C146.42,188.4,150.31,180.84,152.67,170.57Z"/><path class="cls-89" d="M152.14,169.85l27.49,8.71q-6.31,23-21,34.1t-37.29,11.19q-27.94,0-46-19.13t-18-52.2q0-35,18.09-54.41T123.05,78.7q25.74,0,41.83,15.22,9.57,9,14.37,25.85l-28.06,6.71a29.7,29.7,0,0,0-10.39-17.23c-5.26-4.23-11.66-6.31-19.19-6.31q-15.6,0-25.32,11.19t-9.72,36.25q0,26.64,9.57,37.94T121,199.61a28.45,28.45,0,0,0,19.44-7.16Q148.62,185.28,152.14,169.85Z"/><path class="cls-90" d="M151.62,169.13l27.49,8.71q-6.33,22.95-21,34.1T120.8,223.13q-27.94,0-46-19.13c-12-12.7-18-30.14-18-52.2q0-35,18.09-54.41T122.52,78q25.74,0,41.83,15.23,9.57,9,14.37,25.85l-28.06,6.71a29.74,29.74,0,0,0-10.38-17.23c-5.27-4.23-11.67-6.31-19.2-6.31q-15.6,0-25.31,11.19t-9.72,36.25q0,26.64,9.57,37.94t24.89,11.28a28.43,28.43,0,0,0,19.43-7.15C145.37,187,149.25,179.39,151.62,169.13Z"/><path class="cls-91" d="M151.09,168.4l27.49,8.71q-6.33,23-21,34.11T120.28,222.4q-27.94,0-46-19.13c-12-12.69-18-30.13-18-52.19q0-35,18.1-54.42T122,77.25q25.76,0,41.84,15.22,9.57,9,14.36,25.86L150.14,125a29.73,29.73,0,0,0-10.39-17.24c-5.26-4.23-11.67-6.31-19.2-6.31q-15.58,0-25.31,11.2t-9.72,36.25q0,26.64,9.57,37.93T120,198.16A28.43,28.43,0,0,0,139.41,191C144.85,186.23,148.73,178.67,151.09,168.4Z"/><path class="cls-92" d="M150.57,167.68l27.48,8.71q-6.31,23-21,34.11t-37.29,11.18q-27.94,0-46-19.13c-12-12.69-18-30.13-18-52.2q0-35,18.09-54.41t47.57-19.41q25.74,0,41.83,15.22,9.57,9,14.37,25.85l-28.06,6.71a29.73,29.73,0,0,0-10.39-17.23c-5.26-4.23-11.66-6.31-19.19-6.31q-15.6,0-25.31,11.2T85,148.22q0,26.64,9.57,37.93t24.88,11.29a28.44,28.44,0,0,0,19.44-7.15C144.32,185.51,148.2,178,150.57,167.68Z"/><path class="cls-93" d="M150,167l27.49,8.71q-6.33,23-21,34.11T119.22,221q-27.94,0-46-19.13t-18-52.2q0-35,18.09-54.41t47.57-19.41q25.76,0,41.83,15.22,9.57,9,14.37,25.85l-28.06,6.71a29.77,29.77,0,0,0-10.38-17.23c-5.26-4.23-11.67-6.31-19.2-6.31q-15.6,0-25.31,11.19T84.47,147.5q0,26.63,9.57,37.93t24.89,11.29a28.4,28.4,0,0,0,19.43-7.16Q146.51,182.39,150,167Z"/><path class="cls-94" d="M149.51,166.24,177,175q-6.33,23-21,34.11T118.7,220.24q-27.95,0-46-19.13t-18-52.2q0-35,18.1-54.41t47.56-19.41q25.76,0,41.84,15.22,9.57,9,14.36,25.85l-28.05,6.71a29.7,29.7,0,0,0-10.39-17.23c-5.26-4.23-11.67-6.31-19.2-6.31q-15.59,0-25.31,11.19t-9.72,36.25q0,26.64,9.57,37.94T118.4,196a28.49,28.49,0,0,0,19.44-7.16Q146,181.67,149.51,166.24Z"/><path class="cls-95" d="M149,165.51l27.48,8.72q-6.32,23-21,34.1t-37.29,11.18q-27.94,0-46-19.12c-12-12.7-18-30.14-18-52.2q0-35,18.09-54.42t47.57-19.41q25.74,0,41.83,15.23,9.57,9,14.37,25.85L148,122.15a29.7,29.7,0,0,0-10.39-17.23c-5.26-4.23-11.66-6.32-19.19-6.32q-15.6,0-25.31,11.2t-9.72,36.25q0,26.64,9.57,37.93t24.88,11.29a28.44,28.44,0,0,0,19.44-7.15C142.74,183.34,146.62,175.78,149,165.51Z"/><path class="cls-96" d="M148.46,164.79,176,173.5q-6.33,23-21,34.11t-37.29,11.18q-27.94,0-46-19.13c-12-12.69-18-30.13-18-52.19q0-35,18.09-54.42t47.57-19.41q25.76,0,41.84,15.22,9.57,9,14.36,25.86l-28.05,6.71a29.83,29.83,0,0,0-10.39-17.24q-7.89-6.33-19.2-6.31-15.6,0-25.31,11.2t-9.72,36.25q0,26.64,9.57,37.93t24.89,11.29a28.43,28.43,0,0,0,19.43-7.15C142.21,182.62,146.1,175.06,148.46,164.79Z"/><path class="cls-97" d="M147.93,164.07l27.49,8.71q-6.31,23-21,34.11t-37.28,11.18q-27.95,0-46-19.13c-12-12.69-18-30.13-18-52.2q0-35,18.1-54.41t47.56-19.41q25.76,0,41.84,15.22,9.57,9,14.36,25.85L147,120.7a29.73,29.73,0,0,0-10.39-17.23c-5.26-4.23-11.66-6.31-19.19-6.31q-15.6,0-25.32,11.2t-9.72,36.25q0,26.64,9.57,37.93t24.89,11.29a28.44,28.44,0,0,0,19.44-7.16Q144.41,179.5,147.93,164.07Z"/><path class="cls-97" d="M147.41,163.35l27.49,8.71q-6.33,23-21,34.11t-37.29,11.18q-27.95,0-46-19.13t-18-52.2q0-35,18.09-54.41T118.31,72.2q25.74,0,41.83,15.22,9.57,9,14.37,25.85L146.45,120a29.7,29.7,0,0,0-10.39-17.23c-5.26-4.23-11.66-6.31-19.19-6.31q-15.6,0-25.31,11.19t-9.72,36.26q0,26.63,9.57,37.93t24.88,11.29A28.47,28.47,0,0,0,135.73,186Q143.86,178.77,147.41,163.35Z"/><path class="cls-98" d="M146.88,162.63l27.49,8.71q-6.33,22.95-21,34.11t-37.28,11.18q-28,0-46-19.13t-18-52.2q0-35,18.09-54.41t47.57-19.41q25.75,0,41.84,15.22,9.57,9,14.36,25.85l-28,6.71A29.8,29.8,0,0,0,135.54,102c-5.26-4.23-11.67-6.31-19.2-6.31q-15.6,0-25.31,11.19t-9.72,36.25q0,26.64,9.57,37.94t24.89,11.29a28.51,28.51,0,0,0,19.43-7.16Q143.33,178,146.88,162.63Z"/><path class="cls-99" d="M146.35,161.9l27.49,8.72q-6.32,22.95-21,34.1T115.54,215.9q-27.95,0-46-19.12c-12-12.7-18-30.14-18-52.2q0-35,18.1-54.42t47.56-19.41Q143,70.75,159.09,86q9.57,9,14.37,25.85l-28.06,6.71A29.7,29.7,0,0,0,135,101.31C129.75,97.08,123.35,95,115.82,95q-15.6,0-25.31,11.2t-9.72,36.25q0,26.64,9.56,37.93t24.89,11.29a28.53,28.53,0,0,0,19.44-7.15Q142.81,177.33,146.35,161.9Z"/><path class="cls-100" d="M145.83,161.18l27.49,8.71q-6.33,23-21,34.11T115,215.18q-27.95,0-46-19.12c-12-12.7-18-30.14-18-52.2q0-35,18.09-54.42T116.73,70q25.74,0,41.83,15.22,9.57,9,14.37,25.86l-28.06,6.71a29.76,29.76,0,0,0-10.38-17.24q-7.91-6.33-19.2-6.31-15.6,0-25.31,11.2t-9.72,36.25q0,26.64,9.57,37.93t24.89,11.29a28.5,28.5,0,0,0,19.43-7.15Q142.28,176.59,145.83,161.18Z"/><path class="cls-101" d="M145.3,160.46l27.49,8.71q-6.33,23-21,34.11t-37.28,11.18q-28,0-46-19.13c-12-12.69-18-30.13-18-52.2q0-35,18.09-54.41T116.2,69.31Q142,69.31,158,84.53q9.57,9,14.36,25.85l-28.05,6.71A29.83,29.83,0,0,0,134,99.86c-5.26-4.23-11.67-6.31-19.2-6.31q-15.6,0-25.31,11.2T79.73,141q0,26.64,9.57,37.93t24.89,11.29a28.46,28.46,0,0,0,19.43-7.16Q141.75,175.88,145.3,160.46Z"/><path class="cls-102" d="M144.77,159.74l27.49,8.71q-6.31,23-21,34.11T114,213.74q-27.94,0-46-19.13t-18-52.2q0-35,18.1-54.41t47.56-19.41q25.76,0,41.84,15.22,9.57,9,14.37,25.85l-28.06,6.71a29.7,29.7,0,0,0-10.39-17.23c-5.26-4.23-11.66-6.31-19.19-6.31q-15.6,0-25.31,11.19t-9.72,36.26q0,26.63,9.56,37.93t24.89,11.29a28.47,28.47,0,0,0,19.44-7.16Q141.23,175.16,144.77,159.74Z"/><path class="cls-103" d="M144.25,159l27.49,8.71q-6.33,23-21,34.11T113.43,213q-27.95,0-46-19.12t-18-52.2q0-35,18.09-54.42t47.57-19.4q25.75,0,41.83,15.22,9.57,9,14.37,25.85l-28.06,6.71a29.74,29.74,0,0,0-10.38-17.23c-5.26-4.23-11.67-6.32-19.2-6.32q-15.6,0-25.31,11.2t-9.72,36.26q0,26.63,9.57,37.93t24.89,11.29a28.51,28.51,0,0,0,19.43-7.16Q140.7,174.44,144.25,159Z"/><path class="cls-104" d="M143.72,158.29,171.21,167q-6.33,23-21,34.1t-37.28,11.18q-28,0-46-19.12C55,180.47,49,163,49,141q0-35,18.1-54.42t47.56-19.41q25.75,0,41.84,15.22,9.57,9,14.36,25.86l-28,6.71A29.72,29.72,0,0,0,132.38,97.7c-5.26-4.23-11.67-6.32-19.19-6.32q-15.6,0-25.32,11.2t-9.72,36.25q0,26.64,9.57,37.93t24.89,11.29A28.5,28.5,0,0,0,132,180.9Q140.17,173.72,143.72,158.29Z"/><path class="cls-105" d="M143.19,157.57l27.49,8.71q-6.31,23-21,34.11t-37.29,11.18q-27.94,0-46-19.12c-12-12.7-18-30.14-18-52.2q0-35,18.09-54.42T114.1,66.42q25.74,0,41.83,15.22,9.57,9,14.37,25.86l-28.06,6.71A29.73,29.73,0,0,0,131.85,97q-7.89-6.33-19.19-6.31-15.6,0-25.31,11.2t-9.72,36.25q0,26.64,9.56,37.93t24.89,11.29a28.51,28.51,0,0,0,19.44-7.15Q139.65,173,143.19,157.57Z"/><path class="cls-106" d="M142.67,156.85l27.49,8.71q-6.33,23-21,34.11t-37.29,11.18q-27.94,0-46-19.13t-18-52.2q0-35,18.09-54.41T113.57,65.7q25.76,0,41.84,15.22,9.56,9,14.36,25.85l-28.05,6.71a29.83,29.83,0,0,0-10.39-17.23c-5.26-4.23-11.67-6.31-19.2-6.31q-15.6,0-25.31,11.2T77.1,137.39q0,26.64,9.57,37.93t24.89,11.29A28.46,28.46,0,0,0,131,179.45Q139.12,172.27,142.67,156.85Z"/><path class="cls-107" d="M142.14,156.13l27.49,8.71q-6.33,22.95-21,34.11t-37.28,11.17q-27.94,0-46-19.12t-18-52.2q0-35,18.1-54.41T113,65q25.76,0,41.84,15.22,9.57,9,14.36,25.85l-28.05,6.71A29.75,29.75,0,0,0,130.8,95.53c-5.26-4.23-11.67-6.31-19.19-6.31q-15.6,0-25.32,11.19t-9.72,36.26q0,26.63,9.57,37.93T111,185.89a28.46,28.46,0,0,0,19.43-7.16Q138.6,171.55,142.14,156.13Z"/><path class="cls-108" d="M141.62,155.41l27.48,8.71q-6.32,22.95-21,34.11T110.8,209.4q-27.94,0-46-19.12t-18-52.2q0-35,18.09-54.42t47.57-19.4q25.74,0,41.83,15.22,9.57,9,14.37,25.85L140.66,112a29.7,29.7,0,0,0-10.39-17.23c-5.26-4.23-11.66-6.32-19.19-6.32q-15.6,0-25.31,11.2T76.05,136q0,26.63,9.57,37.92t24.88,11.3A28.47,28.47,0,0,0,129.94,178Q138.07,170.83,141.62,155.41Z"/><path class="cls-109" d="M141.09,154.68l27.49,8.72q-6.33,22.95-21,34.11t-37.29,11.17q-27.94,0-46-19.12c-12-12.7-18-30.14-18-52.2q0-35,18.09-54.42T112,63.53q25.76,0,41.84,15.22,9.55,9,14.36,25.86l-28.05,6.71a29.77,29.77,0,0,0-10.39-17.23c-5.26-4.23-11.67-6.32-19.2-6.32Q95,87.77,85.24,99t-9.72,36.25q0,26.64,9.57,37.93T110,184.44a28.5,28.5,0,0,0,19.43-7.15Q137.54,170.09,141.09,154.68Z"/><path class="cls-110" d="M140.56,154l27.49,8.71q-6.33,23-21,34.11T109.75,208q-27.94,0-46-19.12c-12-12.7-18-30.14-18-52.2q0-35,18.1-54.42t47.56-19.41q25.76,0,41.84,15.22,9.57,9,14.37,25.86l-28.06,6.71a29.73,29.73,0,0,0-10.39-17.24Q121.33,87,110,87.05q-15.6,0-25.31,11.2T75,134.5q0,26.64,9.56,37.93t24.89,11.29a28.5,28.5,0,0,0,19.44-7.16Q137,169.38,140.56,154Z"/><path class="cls-111" d="M140,153.24,167.52,162q-6.32,23-21,34.11t-37.29,11.18q-27.94,0-46-19.12t-18-52.21q0-35,18.09-54.41t47.57-19.41q25.76,0,41.83,15.22,9.57,9,14.37,25.85l-28.06,6.71A29.74,29.74,0,0,0,128.7,92.64q-7.9-6.33-19.2-6.31-15.6,0-25.31,11.2t-9.72,36.25q0,26.64,9.57,37.93T108.92,183a28.47,28.47,0,0,0,19.44-7.16Q136.49,168.66,140,153.24Z"/><path class="cls-112" d="M139.51,152.52,167,161.23q-6.33,23-21,34.11t-37.29,11.17q-27.94,0-46-19.12t-18-52.2q0-35,18.09-54.42t47.57-19.4q25.75,0,41.84,15.22,9.57,9,14.36,25.85l-28.05,6.71a29.8,29.8,0,0,0-10.39-17.23c-5.26-4.23-11.67-6.32-19.2-6.32q-15.6,0-25.31,11.2t-9.72,36.26q0,26.63,9.57,37.93t24.89,11.29a28.46,28.46,0,0,0,19.43-7.16Q136,167.94,139.51,152.52Z"/><path class="cls-113" d="M139,151.79l27.49,8.72q-6.32,23-21,34.11t-37.28,11.17q-27.94,0-46-19.12t-18-52.2q0-35,18.1-54.42t47.56-19.4q25.75,0,41.84,15.22,9.57,9,14.37,25.85L138,108.43A29.7,29.7,0,0,0,127.64,91.2C122.38,87,116,84.88,108.45,84.88q-15.6,0-25.31,11.2t-9.72,36.26q0,26.63,9.56,37.92t24.89,11.3a28.49,28.49,0,0,0,19.44-7.16Q135.44,167.2,139,151.79Z"/><path class="cls-114" d="M138.46,151.07,166,159.79q-6.33,23-21,34.11t-37.29,11.17q-27.94,0-46-19.12c-12-12.7-18-30.14-18-52.2q0-35,18.09-54.42t47.57-19.41q25.76,0,41.83,15.22,9.57,9,14.37,25.86l-28.05,6.71a29.77,29.77,0,0,0-10.39-17.23c-5.26-4.23-11.67-6.32-19.2-6.32q-15.6,0-25.31,11.2t-9.72,36.26q0,26.63,9.57,37.92t24.88,11.29a28.51,28.51,0,0,0,19.44-7.15Q134.91,166.48,138.46,151.07Z"/><path class="cls-115" d="M137.93,150.35l27.49,8.71q-6.33,23-21,34.11t-37.28,11.18q-28,0-46-19.12t-18-52.2q0-35,18.09-54.42T108.83,59.2q25.76,0,41.84,15.22,9.57,9,14.36,25.86L137,107a29.83,29.83,0,0,0-10.39-17.24q-7.89-6.33-19.19-6.31-15.62,0-25.32,11.2t-9.72,36.25q0,26.64,9.57,37.93t24.89,11.29A28.46,28.46,0,0,0,126.25,173Q134.38,165.77,137.93,150.35Z"/><path class="cls-116" d="M137.4,149.63l27.49,8.71q-6.31,22.95-21,34.11t-37.28,11.17q-27.95,0-46-19.11t-18-52.21q0-35,18.1-54.42t47.56-19.4q25.76,0,41.84,15.22,9.57,9,14.37,25.85l-28.06,6.71A29.7,29.7,0,0,0,126.06,89q-7.89-6.33-19.19-6.31-15.6,0-25.31,11.2t-9.72,36.25q0,26.64,9.56,37.93t24.89,11.29a28.49,28.49,0,0,0,19.44-7.16Q133.86,165,137.4,149.63Z"/><path class="cls-117" d="M136.88,148.91l27.49,8.71q-6.33,22.95-21,34.11T106.06,202.9q-27.94,0-46-19.12t-18-52.2q0-35,18.09-54.42t47.57-19.4q25.75,0,41.84,15.22,9.56,9,14.36,25.85l-28,6.71a29.8,29.8,0,0,0-10.39-17.23c-5.26-4.23-11.67-6.32-19.2-6.32Q90.74,82,81,93.19t-9.72,36.26q0,26.63,9.57,37.93t24.89,11.29a28.46,28.46,0,0,0,19.43-7.16Q133.33,164.33,136.88,148.91Z"/><path class="cls-118" d="M136.35,148.18l27.49,8.72q-6.33,22.95-21,34.11t-37.28,11.17q-28,0-46-19.12t-18-52.2q0-35,18.09-54.42T107.25,57Q133,57,149.09,72.26q9.57,9,14.36,25.85l-28,6.71A29.8,29.8,0,0,0,125,87.59c-5.26-4.23-11.67-6.32-19.19-6.32q-15.61,0-25.32,11.2t-9.72,36.26q0,26.63,9.57,37.92T105.24,178a28.46,28.46,0,0,0,19.43-7.16Q132.8,163.59,136.35,148.18Z"/><path class="cls-119" d="M135.82,147.46l27.49,8.72q-6.31,22.95-21,34.11T105,201.46q-27.95,0-46-19.12c-12-12.7-18-30.14-18-52.2q0-35,18.1-54.42t47.56-19.41q25.75,0,41.84,15.22,9.57,9,14.37,25.86l-28.06,6.71a29.67,29.67,0,0,0-10.39-17.23c-5.26-4.23-11.66-6.32-19.19-6.32q-15.6,0-25.31,11.2T70.26,128q0,26.63,9.56,37.92t24.89,11.29a28.51,28.51,0,0,0,19.44-7.15Q132.28,162.87,135.82,147.46Z"/><path class="cls-120" d="M135.3,146.74l27.49,8.71q-6.33,23-21,34.11t-37.29,11.18q-27.95,0-46-19.12t-18-52.2q0-35,18.09-54.42T106.2,55.59Q132,55.59,148,70.81q9.56,9,14.36,25.86l-28.05,6.71A29.83,29.83,0,0,0,124,86.14q-7.89-6.33-19.2-6.31-15.6,0-25.31,11.2t-9.72,36.25q0,26.64,9.57,37.93t24.89,11.29a28.46,28.46,0,0,0,19.43-7.16Q131.75,162.16,135.3,146.74Z"/><path class="cls-121" d="M134.77,146l27.49,8.71q-6.33,23-21,34.11T104,200q-28,0-46-19.11T40,128.69q0-35,18.1-54.42t47.56-19.4q25.76,0,41.84,15.22,9.57,9,14.37,25.85l-28.06,6.71a29.75,29.75,0,0,0-10.39-17.23q-7.89-6.33-19.19-6.32-15.6,0-25.31,11.21t-9.72,36.25q0,26.64,9.56,37.93t24.89,11.29a28.46,28.46,0,0,0,19.43-7.16Q131.22,161.44,134.77,146Z"/><path class="cls-122" d="M134.24,145.3,161.73,154q-6.31,23-21,34.11t-37.29,11.17q-27.95,0-46-19.12t-18-52.2q0-35,18.09-54.42t47.57-19.4q25.75,0,41.83,15.22,9.57,9,14.37,25.85l-28.06,6.71A29.74,29.74,0,0,0,122.91,84.7c-5.27-4.23-11.67-6.32-19.2-6.32q-15.6,0-25.31,11.2t-9.72,36.26q0,26.63,9.56,37.92t24.89,11.3a28.47,28.47,0,0,0,19.44-7.16Q130.7,160.7,134.24,145.3Z"/><path class="cls-123" d="M133.72,144.57l27.49,8.72q-6.33,23-21,34.11T102.9,198.57q-27.95,0-46-19.12t-18-52.2q0-35,18.09-54.42t47.57-19.4q25.75,0,41.84,15.22,9.56,9,14.36,25.85l-28,6.71A29.77,29.77,0,0,0,122.38,84c-5.26-4.23-11.67-6.32-19.2-6.32q-15.6,0-25.31,11.2t-9.72,36.26q0,26.63,9.57,37.92t24.89,11.3A28.46,28.46,0,0,0,122,167.18Q130.17,160,133.72,144.57Z"/><path class="cls-124" d="M133.19,143.85l27.49,8.72q-6.33,23-21,34.11t-37.28,11.17q-27.94,0-46-19.12c-12-12.7-18-30.14-18-52.2q0-35,18.1-54.42T104.09,52.7q25.75,0,41.84,15.22,9.57,9,14.37,25.86l-28.06,6.71a29.72,29.72,0,0,0-10.39-17.23c-5.26-4.23-11.67-6.32-19.19-6.32q-15.6,0-25.31,11.2T67.63,124.4q0,26.63,9.56,37.92t24.89,11.29a28.41,28.41,0,0,0,19.43-7.16Q129.66,159.26,133.19,143.85Z"/><path class="cls-125" d="M132.67,143.13l27.48,8.71q-6.32,23-21,34.12t-37.29,11.16q-27.94,0-46-19.11t-18-52.2q0-35,18.09-54.43T103.57,52q25.75,0,41.83,15.22,9.57,9,14.37,25.86l-28.05,6.71a29.83,29.83,0,0,0-10.39-17.24q-7.89-6.33-19.2-6.32-15.6,0-25.31,11.21T67.1,123.67q0,26.64,9.57,37.93t24.88,11.29A28.47,28.47,0,0,0,121,165.73Q129.12,158.55,132.67,143.13Z"/><path class="cls-126" d="M132.14,142.41l27.49,8.71q-6.33,22.95-21,34.11T101.32,196.4q-27.94,0-46-19.11t-18-52.21q0-35,18.09-54.42T103,51.26q25.75,0,41.84,15.22,9.56,9,14.36,25.85L131.19,99A29.8,29.8,0,0,0,120.8,81.81q-7.89-6.33-19.19-6.32Q86,75.49,76.29,86.7T66.57,123q0,26.64,9.57,37.93T101,172.17A28.46,28.46,0,0,0,120.46,165Q128.59,157.82,132.14,142.41Z"/><path class="cls-127" d="M131.61,141.68l27.49,8.72q-6.33,22.95-21,34.11T100.8,195.68q-27.94,0-46-19.11t-18-52.21q0-35,18.1-54.42t47.56-19.4q25.76,0,41.84,15.22,9.57,9,14.37,25.85l-28.06,6.71a29.75,29.75,0,0,0-10.39-17.23q-7.89-6.33-19.19-6.32-15.6,0-25.31,11.2t-9.72,36.26q0,26.62,9.56,37.92t24.89,11.3a28.5,28.5,0,0,0,19.44-7.16Q128.07,157.09,131.61,141.68Z"/><path class="cls-128" d="M131.09,141l27.48,8.72q-6.31,22.95-21,34.11T100.27,195q-27.94,0-46-19.12t-18-52.2q0-35,18.09-54.42T102,49.82q25.76,0,41.84,15.22,9.55,9,14.36,25.85L130.14,97.6a29.77,29.77,0,0,0-10.39-17.23c-5.26-4.23-11.67-6.32-19.2-6.32q-15.6,0-25.31,11.2t-9.72,36.26q0,26.62,9.57,37.92T100,170.73a28.47,28.47,0,0,0,19.44-7.16Q127.54,156.37,131.09,141Z"/><path class="cls-129" d="M130.56,140.24,158.05,149q-6.33,22.95-21,34.11T99.74,194.23q-27.94,0-46-19.11t-18-52.2q0-35,18.09-54.43t47.57-19.4q25.76,0,41.84,15.22,9.57,9,14.37,25.86l-28.06,6.71a29.77,29.77,0,0,0-10.39-17.23C114,75.42,107.55,73.33,100,73.33q-15.61,0-25.31,11.2T65,120.79q0,26.62,9.57,37.92T99.45,170a28.41,28.41,0,0,0,19.43-7.16Q127,155.66,130.56,140.24Z"/><path class="cls-130" d="M130,139.52l27.49,8.71q-6.32,23-21,34.12T99.22,193.51q-27.94,0-46-19.11t-18-52.2q0-35,18.1-54.43t47.56-19.4q25.75,0,41.84,15.22,9.57,9,14.37,25.86l-28.06,6.71a29.7,29.7,0,0,0-10.39-17.24Q110.8,72.59,99.5,72.6q-15.6,0-25.31,11.21t-9.72,36.26Q64.47,146.7,74,158t24.89,11.29a28.49,28.49,0,0,0,19.44-7.16Q126.49,154.94,130,139.52Z"/><path class="cls-131" d="M129.51,138.8,157,147.51q-6.33,23-21,34.11T98.69,192.79q-27.94,0-46-19.11t-18-52.21q0-35,18.09-54.42t47.57-19.4q25.75,0,41.84,15.22,9.56,9,14.36,25.85l-28.05,6.71A29.8,29.8,0,0,0,118.17,78.2q-7.89-6.33-19.2-6.32-15.6,0-25.31,11.21t-9.72,36.25q0,26.64,9.57,37.93t24.88,11.29a28.47,28.47,0,0,0,19.44-7.16Q126,154.2,129.51,138.8Z"/><path class="cls-132" d="M129,138.07l27.49,8.72q-6.33,23-21,34.11T98.17,192.07q-28,0-46-19.11t-18-52.21q0-35,18.09-54.42t47.57-19.4q25.75,0,41.84,15.22,9.57,9,14.37,25.85L128,94.71a29.8,29.8,0,0,0-10.39-17.23q-7.89-6.33-19.19-6.32-15.61,0-25.31,11.2t-9.72,36.26q0,26.63,9.56,37.92t24.89,11.3a28.46,28.46,0,0,0,19.43-7.16Q125.43,153.48,129,138.07Z"/><path class="cls-133" d="M128.45,137.35l27.49,8.72q-6.31,23-21,34.11T97.64,191.35q-27.94,0-46-19.12t-18-52.2q0-35,18.1-54.42t47.56-19.4q25.77,0,41.84,15.22,9.57,9,14.37,25.85L127.5,94a29.71,29.71,0,0,0-10.38-17.23c-5.27-4.23-11.67-6.32-19.2-6.32q-15.6,0-25.31,11.2T62.89,117.9q0,26.63,9.56,37.92t24.89,11.3A28.49,28.49,0,0,0,116.78,160Q124.91,152.76,128.45,137.35Z"/><path class="cls-134" d="M127.93,136.63l27.49,8.72q-6.33,23-21,34.11T97.11,190.62q-27.94,0-46-19.11t-18-52.2q0-35,18.09-54.43T98.83,45.49q25.76,0,41.84,15.21,9.56,9,14.36,25.86l-28,6.71A29.77,29.77,0,0,0,116.59,76q-7.89-6.35-19.19-6.33-15.62,0-25.32,11.21t-9.72,36.26q0,26.63,9.57,37.92t24.89,11.29a28.41,28.41,0,0,0,19.43-7.16Q124.38,152,127.93,136.63Z"/><path class="cls-135" d="M127.4,135.91l27.49,8.71q-6.33,23-21,34.12T96.59,189.9q-28,0-46-19.11t-18-52.2q0-35,18.09-54.43T98.3,44.76q25.76,0,41.84,15.22,9.57,9,14.37,25.86l-28.06,6.71a29.8,29.8,0,0,0-10.39-17.24Q108.17,69,96.87,69,81.26,69,71.56,80.2t-9.72,36.26q0,26.63,9.56,37.92t24.89,11.29a28.41,28.41,0,0,0,19.43-7.16Q123.85,151.31,127.4,135.91Z"/><path class="cls-136" d="M126.87,135.19l27.49,8.71q-6.31,22.95-21,34.11T96.06,189.18q-27.94,0-46-19.11t-18-52.2q0-35,18.1-54.43T97.77,44q25.77,0,41.85,15.22,9.56,9,14.36,25.85l-28,6.71a29.8,29.8,0,0,0-10.39-17.23q-7.89-6.33-19.2-6.32-15.6,0-25.31,11.21t-9.72,36.25q0,26.64,9.56,37.92T95.76,165a28.47,28.47,0,0,0,19.44-7.16Q123.33,150.59,126.87,135.19Z"/><path class="cls-137" d="M126.35,134.46l27.49,8.72q-6.33,22.95-21,34.11T95.53,188.46q-27.94,0-46-19.11t-18-52.21q0-35,18.09-54.42t47.57-19.4q25.75,0,41.84,15.22,9.56,9,14.36,25.85l-28,6.71A29.77,29.77,0,0,0,115,73.87q-7.89-6.33-19.19-6.32-15.61,0-25.32,11.2T60.78,115q0,26.62,9.57,37.92t24.89,11.3a28.46,28.46,0,0,0,19.43-7.16Q122.8,149.87,126.35,134.46Z"/><path class="cls-138" d="M125.82,133.74l27.49,8.72q-6.33,22.95-21,34.11T95,187.73q-28,0-46-19.1t-18-52.21q0-35,18.1-54.43T96.72,42.6q25.75,0,41.84,15.22,9.57,9,14.37,25.85l-28.06,6.71a29.72,29.72,0,0,0-10.39-17.23c-5.26-4.23-11.67-6.32-19.19-6.32Q79.67,66.83,70,78t-9.72,36.26q0,26.62,9.56,37.92t24.89,11.3a28.42,28.42,0,0,0,19.43-7.17Q122.27,149.16,125.82,133.74Z"/><path class="cls-138" d="M125.29,133l27.49,8.72q-6.32,22.95-21,34.11T94.48,187q-27.95,0-46-19.11t-18-52.2q0-35,18.09-54.43T96.2,41.88Q122,41.88,138,57.09q9.56,9,14.36,25.86l-28.05,6.71A29.77,29.77,0,0,0,114,72.43q-7.89-6.34-19.2-6.33-15.6,0-25.31,11.21t-9.72,36.26q0,26.63,9.56,37.92t24.89,11.29a28.42,28.42,0,0,0,19.44-7.16Q121.75,148.44,125.29,133Z"/><path class="cls-139" d="M124.77,132.3,152.26,141q-6.33,23-21,34.12T94,186.29q-27.95,0-46-19.11T30,115q0-35,18.09-54.43t47.57-19.4q25.76,0,41.84,15.22,9.56,9,14.37,25.86l-28.06,6.71A29.8,29.8,0,0,0,113.43,71.7q-7.89-6.33-19.19-6.32-15.61,0-25.31,11.21t-9.72,36.26q0,26.63,9.56,37.92t24.89,11.29a28.41,28.41,0,0,0,19.43-7.16Q121.22,147.7,124.77,132.3Z"/><path class="cls-140" d="M124.24,131.58l27.49,8.71q-6.33,23-21,34.12T93.43,185.57q-27.95,0-46-19.11t-18-52.2q0-35,18.1-54.43t47.56-19.4q25.77,0,41.84,15.22,9.57,9,14.37,25.85l-28.06,6.71A29.75,29.75,0,0,0,112.9,71Q105,64.65,93.71,64.66q-15.6,0-25.31,11.21t-9.72,36.26q0,26.63,9.56,37.91t24.89,11.3a28.46,28.46,0,0,0,19.43-7.16Q120.7,147,124.24,131.58Z"/><path class="cls-141" d="M123.72,130.85l27.48,8.72q-6.31,23-21,34.11T92.9,184.84q-27.95,0-46-19.1T29,113.53q0-35,18.09-54.42t47.57-19.4q25.75,0,41.84,15.22,9.56,9,14.36,25.85l-28,6.71a29.77,29.77,0,0,0-10.39-17.23q-7.89-6.33-19.2-6.32-15.6,0-25.31,11.2T58.15,111.4q0,26.63,9.57,37.92t24.88,11.3A28.47,28.47,0,0,0,112,153.46Q120.17,146.26,123.72,130.85Z"/><path class="cls-142" d="M123.19,130.13l27.49,8.72q-6.33,23-21,34.11T92.37,184.12q-27.95,0-46-19.1t-18-52.21q0-35,18.09-54.43T94.09,39q25.75,0,41.84,15.22,9.56,9,14.37,25.85l-28.06,6.71a29.77,29.77,0,0,0-10.39-17.23Q104,63.21,92.66,63.21,77,63.21,67.35,74.42t-9.72,36.26q0,26.63,9.56,37.92t24.89,11.3a28.42,28.42,0,0,0,19.43-7.17Q119.64,145.55,123.19,130.13Z"/><path class="cls-143" d="M122.66,129.41l27.49,8.72q-6.33,23-21,34.11T91.85,183.4q-27.94,0-46-19.11t-18-52.2q0-35,18.1-54.43T93.56,38.27q25.77,0,41.84,15.21,9.57,9,14.37,25.86l-28.05,6.71a29.79,29.79,0,0,0-10.39-17.23q-7.9-6.34-19.2-6.33-15.6,0-25.31,11.21T57.1,110q0,26.62,9.56,37.92t24.89,11.29A28.46,28.46,0,0,0,111,152Q119.12,144.81,122.66,129.41Z"/><path class="cls-144" d="M122.14,128.69l27.48,8.71q-6.31,23-21,34.12T91.32,182.68q-27.94,0-46-19.11t-18-52.2q0-35,18.09-54.43T93,37.54q25.75,0,41.84,15.22,9.56,9,14.36,25.86l-28.05,6.71A29.8,29.8,0,0,0,110.8,68.09q-7.89-6.33-19.19-6.32Q76,61.77,66.29,73t-9.72,36.26q0,26.63,9.57,37.92T91,158.45a28.42,28.42,0,0,0,19.44-7.16Q118.59,144.09,122.14,128.69Z"/><path class="cls-145" d="M121.61,128l27.49,8.72q-6.33,22.95-21,34.12T90.79,182q-27.95,0-46-19.11t-18-52.2q0-35,18.09-54.43t47.57-19.4q25.76,0,41.84,15.22,9.57,9,14.37,25.86l-28.06,6.7a29.8,29.8,0,0,0-10.39-17.23Q102.38,61,91.08,61.05q-15.61,0-25.31,11.21t-9.72,36.26q0,26.62,9.56,37.91t24.89,11.3a28.41,28.41,0,0,0,19.43-7.16Q118.06,143.37,121.61,128Z"/><path class="cls-146" d="M121.08,127.24,148.57,136q-6.31,22.95-21,34.11T90.27,181.23q-27.94,0-46-19.1t-18-52.21q0-35,18.1-54.43T92,36.1q25.77,0,41.85,15.22,9.55,9,14.36,25.85l-28,6.71a29.82,29.82,0,0,0-10.39-17.23c-5.26-4.22-11.68-6.32-19.2-6.32q-15.6,0-25.31,11.2t-9.72,36.26q0,26.63,9.56,37.92T90,157a28.49,28.49,0,0,0,19.44-7.16Q117.54,142.65,121.08,127.24Z"/><path class="cls-147" d="M120.56,126.52l27.49,8.72q-6.33,22.95-21,34.11T89.74,180.51q-27.94,0-46-19.1t-18-52.21q0-35,18.09-54.43T91.46,35.38q25.76,0,41.84,15.22,9.55,9,14.36,25.85l-28,6.71a29.77,29.77,0,0,0-10.39-17.23Q101.33,59.6,90,59.6q-15.61,0-25.32,11.21T55,107.07Q55,133.7,64.56,145t24.88,11.3a28.43,28.43,0,0,0,19.44-7.17Q117,141.92,120.56,126.52Z"/><path class="cls-148" d="M120,125.8l27.49,8.72q-6.33,22.95-21,34.11T89.22,179.79q-28,0-46-19.11t-18-52.2q0-35,18.09-54.43T90.93,34.66q25.75,0,41.84,15.21,9.57,9,14.37,25.86l-28.06,6.71a29.74,29.74,0,0,0-10.39-17.23q-7.89-6.34-19.19-6.33-15.61,0-25.31,11.21t-9.72,36.26q0,26.63,9.56,37.92t24.89,11.29a28.41,28.41,0,0,0,19.43-7.16Q116.48,141.2,120,125.8Z"/><path class="cls-149" d="M119.5,125.08,147,133.79q-6.31,23-21,34.12T88.69,179.07q-27.94,0-46-19.11t-18-52.2q0-35,18.1-54.43T90.4,33.93q25.77,0,41.85,15.22,9.56,9,14.36,25.86l-28.05,6.71a29.8,29.8,0,0,0-10.39-17.24q-7.89-6.33-19.2-6.32-15.6,0-25.31,11.21t-9.72,36.26q0,26.63,9.56,37.91t24.89,11.3a28.44,28.44,0,0,0,19.44-7.16Q116,140.48,119.5,125.08Z"/><path class="cls-150" d="M119,124.35l27.49,8.72q-6.33,23-21,34.12T88.16,178.34q-27.94,0-46-19.1t-18-52.2q0-35,18.09-54.44T89.88,33.21q25.75,0,41.84,15.22,9.56,9,14.37,25.86L118,81a29.8,29.8,0,0,0-10.39-17.23q-7.89-6.33-19.19-6.32-15.61,0-25.31,11.21t-9.72,36.26q0,26.63,9.56,37.91t24.89,11.3A28.41,28.41,0,0,0,107.3,147Q115.43,139.76,119,124.35Z"/><path class="cls-151" d="M118.45,123.63l27.49,8.72q-6.33,23-21,34.11T87.64,177.62q-28,0-46-19.1t-18-52.21q0-35,18.09-54.43T89.35,32.49q25.77,0,41.84,15.22,9.57,9,14.37,25.85L117.5,80.27A29.77,29.77,0,0,0,107.11,63q-7.89-6.33-19.19-6.33-15.61,0-25.31,11.21t-9.72,36.26q0,26.63,9.56,37.92t24.89,11.3a28.42,28.42,0,0,0,19.43-7.17Q114.9,139,118.45,123.63Z"/><path class="cls-152" d="M117.92,122.91l27.49,8.72q-6.32,23-21,34.11T87.11,176.9q-27.94,0-46-19.1t-18-52.21q0-35,18.1-54.43T88.82,31.77q25.77,0,41.85,15.22,9.56,9,14.36,25.85l-28,6.71a29.77,29.77,0,0,0-10.39-17.23Q98.7,56,87.39,56,71.79,56,62.08,67.2t-9.72,36.26q0,26.62,9.56,37.92t24.89,11.3a28.43,28.43,0,0,0,19.44-7.17Q114.38,138.31,117.92,122.91Z"/><path class="cls-152" d="M117.4,122.19l27.49,8.72q-6.33,23-21,34.11T86.58,176.18q-27.94,0-46-19.1t-18-52.21q0-35,18.09-54.43T88.3,31.05q25.76,0,41.84,15.21,9.56,9,14.37,25.86l-28.06,6.71A29.74,29.74,0,0,0,106.06,61.6q-7.89-6.35-19.19-6.33-15.62,0-25.31,11.21t-9.72,36.26q0,26.63,9.56,37.92T86.29,152a28.41,28.41,0,0,0,19.43-7.16Q113.85,137.59,117.4,122.19Z"/><path class="cls-153" d="M116.87,121.47l27.49,8.71q-6.33,23-21,34.12T86.06,175.45q-28,0-46-19.1t-18-52.2q0-35,18.09-54.43t47.57-19.4q25.77,0,41.84,15.22,9.57,9,14.37,25.86l-28,6.71a29.85,29.85,0,0,0-10.39-17.24q-7.91-6.33-19.2-6.32Q70.73,54.55,61,65.76T51.31,102q0,26.62,9.56,37.91t24.89,11.3a28.41,28.41,0,0,0,19.43-7.16Q113.32,136.87,116.87,121.47Z"/><path class="cls-154" d="M116.34,120.74l27.49,8.72q-6.32,22.95-21,34.12T85.53,174.73q-27.94,0-46-19.1t-18-52.2q0-35,18.09-54.44T87.25,29.6q25.75,0,41.84,15.22,9.56,9,14.36,25.86l-28,6.7A29.77,29.77,0,0,0,105,60.15q-7.89-6.33-19.19-6.33Q70.21,53.82,60.5,65T50.78,101.3q0,26.63,9.56,37.91t24.89,11.3a28.42,28.42,0,0,0,19.44-7.16Q112.8,136.15,116.34,120.74Z"/><path class="cls-155" d="M115.82,120l27.49,8.72q-6.33,22.95-21,34.12T85,174q-27.94,0-46-19.1t-18-52.21q0-35,18.09-54.43T86.72,28.88q25.75,0,41.84,15.22,9.56,9,14.37,25.85l-28.06,6.71a29.77,29.77,0,0,0-10.39-17.23Q96.59,53.1,85.29,53.1,69.67,53.1,60,64.31t-9.72,36.27q0,26.61,9.56,37.91t24.89,11.3a28.42,28.42,0,0,0,19.43-7.17Q112.27,135.42,115.82,120Z"/><path class="cls-156" d="M115.29,119.3,142.78,128q-6.33,22.95-21,34.11T84.48,173.29q-27.95,0-46-19.1T20.53,102q0-35,18.1-54.43T86.19,28.16Q112,28.16,128,43.38q9.56,9,14.36,25.85l-28.05,6.71A29.82,29.82,0,0,0,104,58.71c-5.26-4.22-11.68-6.33-19.2-6.33q-15.6,0-25.31,11.21T49.73,99.85q0,26.63,9.56,37.92t24.89,11.3a28.42,28.42,0,0,0,19.43-7.17Q111.76,134.7,115.29,119.3Z"/><path class="cls-157" d="M114.77,118.58l27.48,8.72q-6.31,23-21,34.11T84,172.57q-27.95,0-46-19.1T20,101.26q0-35,18.09-54.43T85.67,27.44q25.76,0,41.84,15.21,9.55,9,14.37,25.86l-28.06,6.71A29.74,29.74,0,0,0,103.43,58q-7.89-6.33-19.19-6.33-15.61,0-25.32,11.21T49.2,99.13q0,26.63,9.57,37.92t24.88,11.29a28.42,28.42,0,0,0,19.44-7.16Q111.22,134,114.77,118.58Z"/><path class="cls-158" d="M114.24,117.85l27.49,8.72q-6.33,23-21,34.12T83.42,171.84q-27.94,0-46-19.1t-18-52.2q0-35,18.09-54.44T85.14,26.71q25.76,0,41.84,15.22,9.55,9,14.37,25.86L113.29,74.5A29.8,29.8,0,0,0,102.9,57.26Q95,50.93,83.71,50.94q-15.61,0-25.31,11.21T48.68,98.41q0,26.63,9.56,37.91t24.89,11.3a28.41,28.41,0,0,0,19.43-7.16Q110.69,133.26,114.24,117.85Z"/><path class="cls-159" d="M113.71,117.13l27.49,8.72q-6.33,23-21,34.12T82.9,171.12q-27.95,0-46-19.1T19,99.82q0-35,18.1-54.44T84.61,26q25.77,0,41.85,15.22,9.56,9,14.36,25.86l-28,6.7a29.82,29.82,0,0,0-10.39-17.23c-5.26-4.22-11.68-6.33-19.2-6.33q-15.6,0-25.31,11.22T48.15,97.69q0,26.63,9.56,37.91T82.6,146.9A28.46,28.46,0,0,0,102,139.74Q110.17,132.53,113.71,117.13Z"/><path class="cls-160" d="M113.19,116.41l27.48,8.72q-6.31,23-21,34.12T82.37,170.4q-27.95,0-46-19.1t-18-52.21q0-35,18.09-54.43T84.09,25.27q25.75,0,41.84,15.22,9.56,9,14.37,25.85l-28.06,6.71a29.77,29.77,0,0,0-10.39-17.23Q94,49.49,82.66,49.49,67,49.49,57.35,60.7T47.63,97q0,26.61,9.56,37.91t24.88,11.3A28.38,28.38,0,0,0,101.51,139Q109.64,131.81,113.19,116.41Z"/><path class="cls-161" d="M112.66,115.69l27.49,8.72q-6.33,23-21,34.11T81.84,169.68q-27.95,0-46-19.1t-18-52.21q0-35,18.09-54.43T83.56,24.55q25.77,0,41.84,15.22,9.57,9,14.37,25.85l-28.06,6.71A29.74,29.74,0,0,0,101.32,55.1q-7.89-6.33-19.19-6.33Q66.52,48.77,56.82,60T47.1,96.24q0,26.63,9.56,37.92t24.89,11.29A28.41,28.41,0,0,0,101,138.29Q109.11,131.09,112.66,115.69Z"/><path class="cls-162" d="M112.13,115l27.49,8.72q-6.31,23-21,34.11T81.32,169q-27.94,0-46-19.09t-18-52.21q0-35,18.1-54.44T83,23.83q25.77,0,41.85,15.21,9.56,9,14.36,25.86l-28.05,6.71A29.79,29.79,0,0,0,100.8,54.38c-5.26-4.22-11.68-6.33-19.2-6.33q-15.6,0-25.31,11.21T46.57,95.52q0,26.63,9.56,37.91T81,144.73a28.44,28.44,0,0,0,19.44-7.16Q108.59,130.37,112.13,115Z"/><path class="cls-162" d="M111.61,114.24,139.1,123q-6.33,23-21,34.12T80.79,168.23q-27.95,0-46-19.09t-18-52.21q0-35,18.09-54.44T82.51,23.1q25.76,0,41.84,15.22,9.56,9,14.37,25.86l-28.06,6.71a29.8,29.8,0,0,0-10.39-17.24q-7.89-6.33-19.19-6.33-15.61,0-25.31,11.22T46.05,94.8q0,26.63,9.56,37.91T80.49,144a28.42,28.42,0,0,0,19.44-7.16Q108.06,129.65,111.61,114.24Z"/><path class="cls-163" d="M111.08,113.52l27.49,8.72q-6.33,23-21,34.12T80.27,167.51q-28,0-46-19.1t-18-52.2q0-35,18.09-54.44T82,22.38q25.77,0,41.85,15.22,9.55,9,14.36,25.86l-28,6.7A29.87,29.87,0,0,0,99.75,52.93q-7.91-6.33-19.2-6.33-15.61,0-25.31,11.22T45.52,94.08q0,26.63,9.56,37.91T80,143.29a28.37,28.37,0,0,0,19.43-7.17Q107.53,128.92,111.08,113.52Z"/><path class="cls-164" d="M110.55,112.8,138,121.52q-6.31,23-21,34.12T79.74,166.79q-27.94,0-46-19.1t-18-52.21q0-35,18.1-54.43T81.45,21.66q25.77,0,41.85,15.22,9.55,9,14.36,25.85l-28,6.71A29.82,29.82,0,0,0,99.22,52.21Q91.33,45.88,80,45.88q-15.61,0-25.32,11.21T45,93.36q0,26.61,9.56,37.91t24.89,11.3a28.4,28.4,0,0,0,19.44-7.17Q107,128.2,110.55,112.8Z"/><path class="cls-165" d="M110,112.08l27.49,8.72q-6.33,23-21,34.11T79.21,166.07q-27.94,0-46-19.1t-18-52.21q0-35,18.09-54.43T80.93,20.94q25.75,0,41.84,15.22,9.55,9,14.37,25.85l-28.06,6.71A29.74,29.74,0,0,0,98.69,51.49Q90.8,45.16,79.5,45.16q-15.61,0-25.31,11.21T44.47,92.64q0,26.61,9.56,37.91t24.89,11.29a28.41,28.41,0,0,0,19.43-7.16Q106.48,127.48,110,112.08Z"/><path class="cls-166" d="M109.5,111.36,137,120.08q-6.33,23-21,34.11T78.69,165.34q-28,0-46-19.09T14.74,94q0-35,18.09-54.44T80.4,20.22q25.77,0,41.85,15.21,9.56,9,14.36,25.86L108.56,68q-2.5-10.9-10.39-17.23c-5.26-4.22-11.68-6.33-19.2-6.33q-15.61,0-25.31,11.21T43.94,91.91q0,26.63,9.56,37.91t24.89,11.3A28.41,28.41,0,0,0,97.82,134Q106,126.76,109.5,111.36Z"/><path class="cls-167" d="M109,110.63l27.49,8.72q-6.32,23-21,34.12T78.16,164.62q-27.94,0-46-19.09t-18-52.21q0-35,18.1-54.44T79.87,19.49q25.77,0,41.85,15.22,9.56,9,14.37,25.86L108,67.28A29.77,29.77,0,0,0,97.64,50q-7.89-6.33-19.19-6.33-15.61,0-25.31,11.22T43.42,91.19q0,26.63,9.55,37.91t24.89,11.3a28.42,28.42,0,0,0,19.44-7.16Q105.43,126,109,110.63Z"/><path class="cls-168" d="M108.45,109.91l27.49,8.72q-6.33,23-21,34.12T77.63,163.9q-27.94,0-46-19.1t-18-52.2q0-35,18.09-54.44T79.35,18.77q25.77,0,41.84,15.22,9.56,9,14.37,25.86l-28.06,6.7A29.77,29.77,0,0,0,97.11,49.32Q89.22,43,77.92,43,62.31,43,52.61,54.21T42.89,90.47q0,26.63,9.56,37.91t24.89,11.3a28.37,28.37,0,0,0,19.43-7.17Q104.9,125.31,108.45,109.91Z"/><path class="cls-169" d="M107.92,109.19l27.49,8.72q-6.33,23-21,34.12T77.11,163.18q-28,0-46-19.1t-18-52.21q0-35,18.09-54.43T78.82,18.05q25.77,0,41.85,15.22,9.56,9,14.36,25.85l-28,6.71A29.82,29.82,0,0,0,96.59,48.6c-5.26-4.22-11.68-6.33-19.2-6.33q-15.61,0-25.31,11.21T42.36,89.75q0,26.61,9.56,37.91T76.81,139a28.37,28.37,0,0,0,19.43-7.17Q104.37,124.59,107.92,109.19Z"/><path class="cls-170" d="M107.39,108.47l27.49,8.72q-6.31,23-21,34.12T76.58,162.45q-27.94,0-46-19.09t-18-52.21q0-35,18.09-54.44T78.3,17.33q25.76,0,41.84,15.22,9.55,9,14.37,25.85l-28.06,6.71A29.74,29.74,0,0,0,96.06,47.88q-7.89-6.33-19.19-6.33-15.62,0-25.31,11.21T41.84,89q0,26.61,9.55,37.91t24.89,11.29a28.37,28.37,0,0,0,19.44-7.16Q103.85,123.87,107.39,108.47Z"/><path class="cls-171" d="M106.87,107.75l27.49,8.72q-6.33,23-21,34.11T76.05,161.73q-27.94,0-46-19.09t-18-52.21q0-35,18.09-54.44T77.77,16.61q25.77,0,41.84,15.21,9.56,9,14.37,25.86l-28,6.71q-2.5-10.9-10.4-17.23T76.34,40.82Q60.73,40.82,51,52T41.31,88.3q0,26.63,9.56,37.91t24.89,11.3a28.41,28.41,0,0,0,19.43-7.16Q103.32,123.15,106.87,107.75Z"/><path class="cls-172" d="M106.34,107l27.49,8.73q-6.33,23-21,34.11T75.53,161q-28,0-46-19.09t-18-52.21q0-35,18.1-54.44T77.24,15.88q25.77,0,41.85,15.22,9.55,9,14.36,25.86l-28,6.71A29.82,29.82,0,0,0,95,46.43c-5.26-4.21-11.68-6.33-19.19-6.33q-15.61,0-25.32,11.22T40.78,87.58q0,26.63,9.56,37.91t24.89,11.3a28.41,28.41,0,0,0,19.43-7.16Q102.81,122.42,106.34,107Z"/><path class="cls-173" d="M105.82,106.3,133.3,115q-6.32,23-21,34.12T75,160.29q-27.95,0-46-19.09T11.06,89q0-35,18.09-54.44T76.72,15.16q25.75,0,41.84,15.22,9.56,9,14.37,25.86l-28.06,6.7A29.77,29.77,0,0,0,94.48,45.71q-7.89-6.33-19.19-6.33Q59.67,39.38,50,50.6T40.26,86.86q0,26.63,9.56,37.91t24.88,11.3a28.38,28.38,0,0,0,19.44-7.17Q102.27,121.7,105.82,106.3Z"/><path class="cls-174" d="M105.29,105.58l27.49,8.72q-6.33,23-21,34.12T74.47,159.56q-27.94,0-46-19.09t-18-52.21q0-35,18.09-54.43T76.19,14.44Q102,14.44,118,29.66c6.36,6,11.17,14.63,14.36,25.85l-28.05,6.71Q101.85,51.32,94,45t-19.2-6.33q-15.62,0-25.31,11.21T39.73,86.14q0,26.61,9.56,37.91t24.89,11.3a28.37,28.37,0,0,0,19.43-7.17Q101.74,121,105.29,105.58Z"/><path class="cls-175" d="M104.76,104.86l27.49,8.72q-6.33,23-21,34.12T74,158.84q-27.95,0-46-19.09T10,87.54q0-35,18.1-54.44T75.66,13.72q25.77,0,41.85,15.22,9.55,9,14.36,25.85L103.82,61.5A29.79,29.79,0,0,0,93.43,44.27c-5.26-4.22-11.68-6.33-19.19-6.33q-15.61,0-25.32,11.21T39.2,85.42q0,26.61,9.56,37.9t24.89,11.3a28.41,28.41,0,0,0,19.44-7.16Q101.22,120.26,104.76,104.86Z"/><path class="cls-176" d="M104.24,104.13l27.48,8.73q-6.31,23-21,34.11T73.42,158.12q-27.95,0-46-19.09t-18-52.21q0-35,18.09-54.44T75.14,13Q100.9,13,117,28.21q9.55,9,14.37,25.86l-28.06,6.71A29.74,29.74,0,0,0,92.9,43.55Q85,37.22,73.71,37.21q-15.61,0-25.31,11.22T38.68,84.69q0,26.63,9.56,37.91t24.88,11.3a28.42,28.42,0,0,0,19.44-7.16Q100.69,119.53,104.24,104.13Z"/><path class="cls-177" d="M103.71,103.41l27.49,8.73q-6.33,23-21,34.11T72.89,157.4q-27.95,0-46-19.09T9,86.1Q9,51.06,27,31.66T74.61,12.27q25.77,0,41.85,15.22,9.56,9,14.36,25.86l-28,6.71A29.87,29.87,0,0,0,92.38,42.82c-5.26-4.21-11.68-6.33-19.2-6.33q-15.62,0-25.31,11.22T38.15,84q0,26.63,9.56,37.91t24.89,11.3A28.37,28.37,0,0,0,92,126Q100.16,118.81,103.71,103.41Z"/><path class="cls-178" d="M103.18,102.69l27.49,8.72q-6.31,22.95-21,34.12T72.37,156.68q-27.95,0-46-19.09t-18-52.21q0-35,18.1-54.44T74.08,11.55q25.77,0,41.85,15.22,9.55,9,14.37,25.86l-28.06,6.7A29.82,29.82,0,0,0,91.85,42.1c-5.26-4.22-11.68-6.33-19.19-6.33Q57,35.77,47.35,47T37.63,83.25q0,26.63,9.55,37.91t24.89,11.3a28.42,28.42,0,0,0,19.44-7.17Q99.64,118.09,103.18,102.69Z"/><path class="cls-179" d="M102.66,102l27.49,8.72q-6.33,22.95-21,34.12T71.84,156q-27.95,0-46-19.09T7.9,84.65q0-35,18.09-54.44T73.56,10.83q25.77,0,41.84,15.22,9.55,9,14.37,25.85l-28.06,6.71A29.74,29.74,0,0,0,91.32,41.38q-7.89-6.33-19.19-6.33-15.61,0-25.31,11.21T37.1,82.53q0,26.61,9.56,37.91t24.88,11.3A28.38,28.38,0,0,0,91,124.57Q99.11,117.37,102.66,102Z"/><path class="cls-180" d="M102.13,101.25,129.62,110q-6.33,22.95-21,34.12T71.32,155.23q-28,0-46-19.09t-18-52.21q0-35,18.09-54.44T73,10.11q25.77,0,41.85,15.22,9.56,9,14.36,25.85l-28.05,6.71Q98.69,47,90.8,40.66c-5.26-4.22-11.68-6.34-19.2-6.34Q56,34.32,46.29,45.54T36.57,81.81q0,26.61,9.56,37.9T71,131a28.37,28.37,0,0,0,19.43-7.16C95.87,119,99.77,111.53,102.13,101.25Z"/><path class="cls-181" d="M101.6,100.52l27.49,8.73q-6.32,22.95-21,34.11T70.79,154.51q-27.95,0-46-19.09t-18-52.21q0-35,18.1-54.44T72.5,9.39q25.77,0,41.85,15.21,9.56,9,14.37,25.86l-28.06,6.71A29.79,29.79,0,0,0,90.27,39.94q-7.89-6.33-19.19-6.34-15.61,0-25.31,11.22T36.05,81.09q0,26.61,9.55,37.9t24.89,11.3a28.44,28.44,0,0,0,19.44-7.16Q98.06,115.92,101.6,100.52Z"/><path class="cls-182" d="M101.08,99.8l27.49,8.73q-6.33,22.95-21,34.11T70.26,153.79q-27.95,0-46-19.09t-18-52.21q0-35,18.09-54.44T72,8.66q25.77,0,41.84,15.22,9.56,9,14.37,25.86l-28,6.71a29.83,29.83,0,0,0-10.4-17.24q-7.89-6.32-19.19-6.33-15.61,0-25.31,11.22T35.52,80.36q0,26.63,9.56,37.91T70,129.57A28.37,28.37,0,0,0,89.4,122.4Q97.53,115.2,101.08,99.8Z"/><path class="cls-183" d="M100.55,99.08,128,107.8q-6.33,23-21,34.12T69.74,153.06q-28,0-46-19.08t-18-52.21q0-35,18.09-54.45T71.45,7.94q25.77,0,41.85,15.22,9.56,9,14.36,25.86l-28,6.7A29.87,29.87,0,0,0,89.22,38.49C84,34.27,77.54,32.16,70,32.16q-15.63,0-25.32,11.22T35,79.64q0,26.63,9.56,37.91t24.89,11.3a28.37,28.37,0,0,0,19.43-7.17Q97,114.48,100.55,99.08Z"/><path class="cls-184" d="M100,98.36l27.49,8.72q-6.32,23-21,34.12T69.21,152.34q-27.94,0-46-19.09T5.26,81q0-35,18.1-54.44T70.92,7.22q25.77,0,41.85,15.22,9.56,9,14.37,25.85L99.08,55A29.79,29.79,0,0,0,88.69,37.77Q80.8,31.44,69.5,31.43q-15.61,0-25.31,11.22T34.47,78.92q0,26.61,9.55,37.9t24.89,11.31A28.38,28.38,0,0,0,88.35,121Q96.48,113.76,100,98.36Z"/><path class="cls-184" d="M99.5,97.64,127,106.36q-6.33,23-21,34.12T68.68,151.62q-27.95,0-46-19.09t-18-52.21q0-35,18.09-54.44T70.4,6.5q25.77,0,41.85,15.22c6.36,6,11.17,14.63,14.36,25.85l-28,6.71q-2.5-10.9-10.39-17.23T69,30.71q-15.61,0-25.31,11.22T33.94,78.2q0,26.61,9.56,37.9t24.89,11.3a28.37,28.37,0,0,0,19.43-7.16C93.24,115.43,97.13,107.92,99.5,97.64Z"/><path class="cls-185" d="M99,96.91l27.49,8.73q-6.33,23-21,34.12T68.16,150.9q-28,0-46-19.09T4.21,79.6q0-35,18.09-54.44T69.87,5.78q25.77,0,41.85,15.21,9.56,9,14.37,25.86L98,53.56A29.76,29.76,0,0,0,87.64,36.33C82.38,32.11,76,30,68.45,30Q52.82,30,43.13,41.21T33.41,77.48q0,26.61,9.56,37.9t24.89,11.3a28.33,28.33,0,0,0,19.43-7.17Q95.42,112.31,99,96.91Z"/><path class="cls-186" d="M98.44,96.19l27.49,8.73q-6.32,23-21,34.11T67.63,150.17q-27.94,0-46-19.08t-18-52.21q0-35,18.09-54.44T69.35,5.05q25.75,0,41.84,15.22,9.56,9,14.37,25.86L97.5,52.84A29.77,29.77,0,0,0,87.11,35.6q-7.89-6.32-19.19-6.33-15.62,0-25.31,11.22T32.89,76.75q0,26.63,9.55,37.91T67.33,126a28.38,28.38,0,0,0,19.44-7.17Q94.9,111.59,98.44,96.19Z"/><path class="cls-187" d="M97.92,95.47l27.49,8.72q-6.33,22.95-21,34.12T67.1,149.45q-27.94,0-46-19.08t-18-52.21q0-35,18.09-54.45T68.82,4.33q25.77,0,41.85,15.22c6.36,6,11.17,14.63,14.36,25.86l-28,6.7A29.87,29.87,0,0,0,86.59,34.88c-5.26-4.21-11.68-6.33-19.2-6.33q-15.62,0-25.31,11.22T32.36,76q0,26.63,9.56,37.91t24.89,11.3a28.37,28.37,0,0,0,19.43-7.17Q94.37,110.87,97.92,95.47Z"/><path class="cls-188" d="M97.39,94.75l27.49,8.72q-6.33,22.95-21,34.12T66.58,148.73q-28,0-46-19.08t-18-52.22q0-35,18.1-54.44T68.29,3.61q25.77,0,41.85,15.22,9.56,9,14.37,25.85L96.45,51.39A29.79,29.79,0,0,0,86.06,34.16c-5.26-4.22-11.68-6.34-19.19-6.34Q51.26,27.82,41.56,39T31.84,75.31q0,26.61,9.55,37.9t24.89,11.31a28.37,28.37,0,0,0,19.43-7.17C91.14,112.54,95,105,97.39,94.75Z"/><path class="cls-189" d="M96.87,94l27.48,8.73q-6.31,22.95-21,34.12T66.05,148q-27.94,0-46-19.09t-18-52.21q0-35,18.09-54.44T67.77,2.89q25.77,0,41.84,15.22,9.56,9,14.37,25.85L95.92,50.67A29.74,29.74,0,0,0,85.53,33.44q-7.89-6.33-19.19-6.34Q50.72,27.1,41,38.32T31.31,74.59q0,26.61,9.56,37.9t24.88,11.3a28.37,28.37,0,0,0,19.44-7.16C90.61,111.82,94.5,104.31,96.87,94Z"/><path class="cls-190" d="M96.34,93.3,123.83,102q-6.33,22.95-21,34.12T65.52,147.29q-27.94,0-46-19.09T1.58,76q0-35,18.09-54.44T67.24,2.17q25.77,0,41.85,15.21c6.36,6,11.17,14.64,14.36,25.86L95.4,50Q92.9,39,85,32.72c-5.26-4.22-11.68-6.34-19.2-6.34q-15.62,0-25.31,11.22T30.78,73.87q0,26.61,9.56,37.9t24.89,11.3a28.33,28.33,0,0,0,19.43-7.17Q92.79,108.7,96.34,93.3Z"/><path class="cls-191" d="M95.81,92.58l27.49,8.73q-6.33,22.95-21,34.11T65,146.56q-27.95,0-46-19.08t-18-52.21q0-35,18.1-54.45T66.71,1.44q25.77,0,41.85,15.22,9.56,9,14.37,25.86L94.87,49.23A29.76,29.76,0,0,0,84.48,32c-5.26-4.22-11.68-6.34-19.19-6.34Q49.68,25.66,40,36.88T30.26,73.15q0,26.61,9.55,37.9t24.89,11.3a28.42,28.42,0,0,0,19.44-7.17Q92.27,108,95.81,92.58Z"/><path class="cls-191" d="M95.29,91.86l27.48,8.72q-6.31,23-21,34.12T64.47,145.84q-27.94,0-46-19.08T.53,74.55q0-35,18.09-54.45T66.19.72Q92,.72,108,15.94c6.36,6,11.17,14.63,14.36,25.86L94.35,48.5Q91.85,37.6,84,31.27c-5.26-4.21-11.67-6.34-19.19-6.34q-15.62,0-25.31,11.23T29.73,72.42q0,26.63,9.56,37.91t24.88,11.3a28.38,28.38,0,0,0,19.44-7.17C89,109.65,92.92,102.14,95.29,91.86Z"/><path d="M94.76,91.14l27.49,8.72q-6.33,23-21,34.12T63.94,145.12Q36,145.12,18,126T0,73.82q0-35,18.09-54.44T65.66,0q25.77,0,41.85,15.22,9.55,9,14.36,25.85L93.82,47.78q-2.5-10.9-10.39-17.23c-5.26-4.22-11.68-6.34-19.19-6.34q-15.63,0-25.32,11.22T29.2,71.7q0,26.61,9.56,37.9t24.89,11.31a28.37,28.37,0,0,0,19.43-7.17C88.5,108.93,92.4,101.42,94.76,91.14Z"/></g><path class="cls-192" d="M94.79,91.14l27.46,8.72q-6.28,23-21,34.12T64,145.12q-28,0-46-19.08T0,73.82q0-35,18.09-54.44T65.69,0q25.73,0,41.82,15.22,9.58,9,14.36,25.85L93.82,47.78c-1.67-7.27-5.1-13-10.39-17.23s-11.65-6.34-19.19-6.34q-15.58,0-25.32,11.22T29.2,71.7q0,26.61,9.59,37.9t24.89,11.31a28.37,28.37,0,0,0,19.43-7.17C88.53,108.93,92.42,101.42,94.79,91.14Z"/></g></g></svg>