<svg xmlns="http://www.w3.org/2000/svg" height="35px" width="40px" viewBox="0 0 316.92 222.9"><defs><style>.cls-1,.cls-2{fill:#82621f;}.cls-1{fill-rule:evenodd;opacity:0.12;}</style></defs><g id="Layer_2" data-name="Layer 2"><g id="Layer_1-2" data-name="Layer 1"><g id="YouTube_icon" data-name="YouTube icon"><path id="The_Sharpness" data-name="The Sharpness" class="cls-1" d="M125.73,63.51l75.09,50.15,10.54-5.47Z"/><g id="Lozenge"><path class="cls-2" d="M313.75,48.09s-3.1-21.84-12.6-31.46C289.1,4,275.59,4,269.4,3.21,225.05,0,158.53,0,158.53,0h-.14S91.87,0,47.52,3.21c-6.2.74-19.7.8-31.76,13.42C6.26,26.25,3.17,48.09,3.17,48.09A479,479,0,0,0,0,99.38v24a479,479,0,0,0,3.17,51.29s3.09,21.84,12.59,31.46c12.06,12.63,27.9,12.22,35,13.55,25.35,2.43,107.75,3.18,107.75,3.18s66.59-.1,110.94-3.3c6.19-.74,19.7-.8,31.75-13.43,9.5-9.62,12.6-31.46,12.6-31.46a479,479,0,0,0,3.17-51.29v-24A479,479,0,0,0,313.75,48.09Zm-188,104.47V63.51l85.63,44.68Z"/></g></g></g></g></svg>